<svg width="25px" height="30px" viewBox="0 0 25 30" version="1.1" xmlns="http://www.w3.org/2000/svg" xmlns:xlink="http://www.w3.org/1999/xlink">
    <g id="UI" stroke="none" stroke-width="1" fill="none" fill-rule="evenodd">
        <g id="Apple-TV" transform="translate(-1759.000000, -231.000000)" fill="#1A1A1A" fill-rule="nonzero">
            <path d="M1783,257 L1760,257 L1760,260 L1783,260 L1783,257 Z M1765.9,249 L1765.9,242 L1768.51,242 C1770.71,242 1772.23,243.51 1772.23,245.5 C1772.23,247.47 1770.71,249 1768.51,249 L1765.9,249 Z M1767.13,247.88 L1768.51,247.88 C1769.98,247.88 1770.94,246.89 1770.94,245.5 C1770.94,244.13 1769.98,243.12 1768.51,243.12 L1767.13,243.12 L1767.13,247.88 Z M1776.02,249.12 C1774.49,249.12 1773.31,248.01 1773.31,246.36 C1773.31,244.85 1774.38,243.61 1775.89,243.61 C1777.57,243.61 1778.42,244.93 1778.42,246.45 C1778.42,246.53 1778.41,246.73 1778.4,246.79 L1774.52,246.79 C1774.65,247.65 1775.26,248.13 1776.04,248.13 C1776.63,248.13 1777.05,247.91 1777.47,247.5 L1778.18,248.13 C1777.68,248.73 1776.99,249.12 1776.02,249.12 Z M1774.51,245.99 L1777.22,245.99 C1777.14,245.21 1776.68,244.6 1775.88,244.6 C1775.14,244.6 1774.62,245.17 1774.51,245.99 Z M1759,236.555556 L1764.70174,231 L1784,231 L1784,261 L1759,261 L1759,236.555556 Z M1760,256 L1783,256 L1783,232 L1765.09533,232 L1760,236.945068 L1760,256 Z" id="de"></path>
        </g>
    </g>
</svg>
