<svg width="25px" height="30px" viewBox="0 0 25 30" version="1.1" xmlns="http://www.w3.org/2000/svg" xmlns:xlink="http://www.w3.org/1999/xlink">
    <g id="UI" stroke="none" stroke-width="1" fill="none" fill-rule="evenodd">
        <g id="Apple-TV" transform="translate(-1612.000000, -231.000000)" fill="#292929" fill-rule="nonzero">
            <path d="M1615,257 L1615,239 L1620.01753,234 L1633,234 L1633,232 L1619.43101,232 L1613,238.414946 L1613,257 L1615,257 Z M1615,258 L1612,258 L1612,238 L1619.01753,231 L1634,231 L1634,234 L1637,234 L1637,261 L1615,261 L1615,258 Z M1616,260 L1636,260 L1636,235 L1620.43072,235 L1616,239.415239 L1616,260 Z M1619.608,256.28 L1619.608,250.776 L1620.576,250.776 L1620.576,251.48 C1620.888,251.04 1621.328,250.688 1622.008,250.688 C1623.008,250.688 1623.976,251.48 1623.976,252.896 C1623.976,254.296 1623.016,255.088 1622.008,255.088 C1621.312,255.088 1620.872,254.736 1620.576,254.344 L1620.576,256.28 L1619.608,256.28 Z M1621.784,254.248 C1622.448,254.248 1622.992,253.728 1622.992,252.88 C1622.992,252.064 1622.44,251.528 1621.784,251.528 C1621.128,251.528 1620.552,252.072 1620.552,252.896 C1620.552,253.712 1621.128,254.248 1621.784,254.248 Z M1626.712,255.088 C1625.72,255.088 1624.752,254.296 1624.752,252.88 C1624.752,251.48 1625.704,250.688 1626.712,250.688 C1627.408,250.688 1627.848,251.04 1628.152,251.432 L1628.152,249.16 L1629.12,249.16 L1629.12,255 L1628.152,255 L1628.152,254.296 C1627.84,254.736 1627.4,255.088 1626.712,255.088 Z M1626.944,254.248 C1627.592,254.248 1628.168,253.704 1628.168,252.88 C1628.168,252.064 1627.592,251.528 1626.944,251.528 C1626.28,251.528 1625.728,252.04 1625.728,252.896 C1625.728,253.712 1626.288,254.248 1626.944,254.248 Z M1630.544,255 L1630.544,251.608 L1630.008,251.608 L1630.008,250.8 L1630.544,250.8 L1630.544,250.496 C1630.544,250.024 1630.664,249.672 1630.888,249.448 C1631.112,249.224 1631.424,249.112 1631.84,249.112 C1632.176,249.112 1632.408,249.16 1632.624,249.224 L1632.624,250.04 C1632.432,249.976 1632.264,249.936 1632.056,249.936 C1631.688,249.936 1631.496,250.136 1631.496,250.576 L1631.496,250.808 L1632.616,250.808 L1632.616,251.608 L1631.512,251.608 L1631.512,255 L1630.544,255 Z" id="pdf-icon"></path>
        </g>
    </g>
</svg>
