<?xml version="1.0" encoding="UTF-8"?>
<svg width="25px" height="30px" viewBox="0 0 25 30" version="1.1" xmlns="http://www.w3.org/2000/svg" xmlns:xlink="http://www.w3.org/1999/xlink">
    <!-- Generator: Sketch 54.1 (76490) - https://sketchapp.com -->
    <title>ru</title>
    <desc>Created with Sketch.</desc>
    <g id="UI" stroke="none" stroke-width="1" fill="none" fill-rule="evenodd">
        <g id="Apple-TV" transform="translate(-1678.000000, -231.000000)" fill="#1A1A1A" fill-rule="nonzero">
            <path d="M1702,257 L1679,257 L1679,260 L1702,260 L1702,257 Z M1684.9,249 L1684.9,242 L1687.66,242 C1689.29,242 1690.32,242.93 1690.32,244.36 C1690.32,245.93 1689.06,246.75 1687.52,246.75 L1686.13,246.75 L1686.13,249 L1684.9,249 Z M1686.13,245.64 L1687.56,245.64 C1688.49,245.64 1689.07,245.12 1689.07,244.37 C1689.07,243.55 1688.48,243.12 1687.56,243.12 L1686.13,243.12 L1686.13,245.64 Z M1692.54,250.63 C1692.03,250.63 1691.66,250.51 1691.29,250.31 L1691.7,249.41 C1691.92,249.53 1692.16,249.61 1692.41,249.61 C1692.75,249.61 1692.96,249.46 1693.16,249 L1690.96,243.72 L1692.25,243.72 L1693.75,247.64 L1695.12,243.72 L1696.38,243.72 L1694.28,249.15 C1693.86,250.23 1693.39,250.63 1692.54,250.63 Z M1678,236.555556 L1683.70174,231 L1703,231 L1703,261 L1678,261 L1678,236.555556 Z M1679,256 L1702,256 L1702,232 L1684.09533,232 L1679,236.945068 L1679,256 Z" id="ru"></path>
        </g>
    </g>
</svg>