<svg width="46px" height="32px" viewBox="0 0 46 32" version="1.1" xmlns="http://www.w3.org/2000/svg" xmlns:xlink="http://www.w3.org/1999/xlink">
    <g id="UI" stroke="none" stroke-width="1" fill="none" fill-rule="evenodd">
        <g id="Apple-TV" transform="translate(-300.000000, -229.000000)" fill="#1A1A1A" fill-rule="nonzero">
            <path d="M307,257 L306,257 C302.686292,257 300,254.313708 300,251 L300,235 C300,231.686292 302.686292,229 306,229 L324,229 C327.23597,229 329.873616,231.561731 329.995591,234.767847 C330.526872,234.290457 331.229516,234 332,234 L337.960629,234 C339.239138,234 340.37717,234.810271 340.795496,236.018406 L343.215566,243.007626 C344.771804,243.118121 346,244.41563 346,246 L346,254 C346,255.656854 344.656854,257 343,257 L341,257 C341,259.209139 339.209139,261 337,261 C334.790861,261 333,259.209139 333,257 L315,257 C315,259.209139 313.209139,261 311,261 C308.790861,261 307,259.209139 307,257 L307,257 Z M307.126017,256 C307.57006,254.274773 309.136161,253 311,253 C312.863839,253 314.42994,254.274773 314.873983,256 L329,256 L329,235 C329,232.238576 326.761424,230 324,230 L306,230 C303.238576,230 301,232.238576 301,235 L301,251 C301,253.761424 303.238576,256 306,256 L307.126017,256 L307.126017,256 Z M340.873983,256 L343,256 C344.104569,256 345,255.104569 345,254 L345,246 C345,245.004856 344.273196,244.179467 343.321452,244.025696 L339.534257,244 L330,244 L330,256 L333.126017,256 C333.57006,254.274773 335.136161,253 337,253 C338.863839,253 340.42994,254.274773 340.873983,256 L340.873983,256 Z M330,242.935286 L339.53765,243 L342.154675,243 L339.85054,236.345604 C339.571656,235.540181 338.812968,235 337.960629,235 L332,235 C330.895431,235 330,235.895431 330,237 L330,242.935286 L330,242.935286 Z M337,260 C338.656854,260 340,258.656854 340,257 C340,255.343146 338.656854,254 337,254 C335.343146,254 334,255.343146 334,257 C334,258.656854 335.343146,260 337,260 Z M311,260 C312.656854,260 314,258.656854 314,257 C314,255.343146 312.656854,254 311,254 C309.343146,254 308,255.343146 308,257 C308,258.656854 309.343146,260 311,260 Z" id="Shape"></path>
        </g>
    </g>
</svg>
