<?xml version="1.0" encoding="UTF-8"?>
<svg width="24px" height="50px" viewBox="0 0 24 50" version="1.1" xmlns="http://www.w3.org/2000/svg" xmlns:xlink="http://www.w3.org/1999/xlink">
    <!-- Generator: Sketch 54.1 (76490) - https://sketchapp.com -->
    <title>retail-icon</title>
    <desc>Created with Sketch.</desc>
    <g id="UI" stroke="none" stroke-width="1" fill="none" fill-rule="evenodd">
        <g id="Apple-TV" transform="translate(-106.000000, -221.000000)" fill="#1A1A1A" fill-rule="nonzero">
            <path d="M117.377115,237.300612 C117.580707,237.272158 117.788652,237.257452 118,237.257452 C120.485281,237.257452 122.5,239.290989 122.5,241.799484 C122.5,244.307979 120.485281,246.341516 118,246.341516 C115.514719,246.341516 113.5,244.307979 113.5,241.799484 C113.5,239.864005 114.699402,238.211278 116.388928,237.557206 C116.238239,237.25022 116.065576,236.934355 115.871257,236.608836 C115.361131,235.754286 114.776348,234.931212 113.883253,233.789771 L108.62245,238.654372 C107.588656,239.610309 107,240.960428 107,242.375562 L107,264.943957 C107,267.731174 109.238576,269.99066 112,269.99066 L124,269.99066 C126.761424,269.99066 129,267.731174 129,264.943957 L129,242.373457 C129,240.959346 128.412192,239.610107 127.379697,238.654253 L120.708798,232.478536 C119.179922,231.063147 116.832694,231.062457 115.303001,232.476946 L114.622578,233.106125 C115.566429,234.309682 116.182754,235.174892 116.727793,236.087929 C116.97538,236.502681 117.192217,236.906463 117.377115,237.300612 L117.377115,237.300612 Z M117.774649,238.273997 C118.010053,238.957947 118.138136,239.614162 118.151898,240.250498 C118.714971,239.74469 119.233599,239.232252 119.708159,238.71536 C119.202922,238.429668 118.620306,238.266792 118,238.266792 C117.924298,238.266792 117.849157,238.269218 117.774649,238.273997 L117.774649,238.273997 Z M120.503731,239.330962 C119.726154,240.18655 118.837237,241.026952 117.836385,241.843045 C117.463254,242.147295 116.920931,241.798058 117.03705,241.328302 C117.251498,240.460764 117.163104,239.524952 116.78662,238.484854 C115.451685,238.982879 114.5,240.279004 114.5,241.799484 C114.5,243.750535 116.067003,245.332175 118,245.332175 C119.932997,245.332175 121.5,243.750535 121.5,241.799484 C121.5,240.83886 121.120127,239.96779 120.503731,239.330962 L120.503731,239.330962 Z M113.257219,232.999783 C113.211899,232.943187 113.165895,232.88584 113.119186,232.827712 C110.265043,229.275782 109.604895,228.352663 109.102396,226.826209 C108.379224,224.629406 109.279727,222.931421 112.027091,221.770575 C116.721951,219.786852 121.721007,221.771808 123.732613,226.134689 C124.844524,228.546262 124.893405,231.270618 123.860937,234.027086 L128.055636,237.910413 C129.294631,239.057437 130,240.676524 130,242.373457 L130,264.943957 C130,268.288617 127.313708,271 124,271 L112,271 C108.686292,271 106,268.288617 106,264.943957 L106,242.375562 C106,240.677401 106.706387,239.057259 107.94694,237.910134 L113.257219,232.999783 L113.257219,232.999783 Z M113.995974,232.316665 L114.627491,231.732708 C116.539608,229.964597 119.473642,229.96546 121.384738,231.734695 L123.064005,233.289311 C123.858958,230.914445 123.767737,228.603084 122.825983,226.560557 C121.03998,222.686976 116.610472,220.928168 112.413242,222.701627 C110.124346,223.668756 109.502646,224.841031 110.051383,226.507946 C110.497173,227.862139 111.148265,228.772593 113.89585,232.191913 C113.929579,232.233888 113.962951,232.275468 113.995974,232.316665 L113.995974,232.316665 Z" id="retail-icon"></path>
        </g>
    </g>
</svg>