<svg width="35px" height="46px" viewBox="0 0 35 46" version="1.1" xmlns="http://www.w3.org/2000/svg" xmlns:xlink="http://www.w3.org/1999/xlink">
    <g id="UI" stroke="none" stroke-width="1" fill="none" fill-rule="evenodd">
        <g id="Apple-TV" transform="translate(-405.000000, -222.000000)" fill="#1A1A1A" fill-rule="nonzero">
            <path d="M411,223 C408.238576,223 406,225.238576 406,228 L406,262 C406,264.761424 408.238576,267 411,267 L434,267 C436.761424,267 439,264.761424 439,262 L439,228 C439,225.238576 436.761424,223 434,223 L411,223 Z M411,222 L434,222 C437.313708,222 440,224.686292 440,228 L440,262 C440,265.313708 437.313708,268 434,268 L411,268 C407.686292,268 405,265.313708 405,262 L405,228 C405,224.686292 407.686292,222 411,222 Z M412,227 C410.895431,227 410,227.895431 410,229 L410,250 C410,251.104569 410.895431,252 412,252 L424,252 C425.104569,252 426,251.104569 426,250 L426,229 C426,227.895431 425.104569,227 424,227 L412,227 Z M412,226 L424,226 C425.656854,226 427,227.343146 427,229 L427,250 C427,251.656854 425.656854,253 424,253 L412,253 C410.343146,253 409,251.656854 409,250 L409,229 C409,227.343146 410.343146,226 412,226 Z M432,248 C431.447715,248 431,248.447715 431,249 L431,251 C431,251.552285 431.447715,252 432,252 L434,252 C434.552285,252 435,251.552285 435,251 L435,249 C435,248.447715 434.552285,248 434,248 L432,248 Z M432,247 L434,247 C435.104569,247 436,247.895431 436,249 L436,251 C436,252.104569 435.104569,253 434,253 L432,253 C430.895431,253 430,252.104569 430,251 L430,249 C430,247.895431 430.895431,247 432,247 Z M432,241 C431.447715,241 431,241.447715 431,242 L431,244 C431,244.552285 431.447715,245 432,245 L434,245 C434.552285,245 435,244.552285 435,244 L435,242 C435,241.447715 434.552285,241 434,241 L432,241 Z M432,240 L434,240 C435.104569,240 436,240.895431 436,242 L436,244 C436,245.104569 435.104569,246 434,246 L432,246 C430.895431,246 430,245.104569 430,244 L430,242 C430,240.895431 430.895431,240 432,240 Z M432,234 C431.447715,234 431,234.447715 431,235 L431,237 C431,237.552285 431.447715,238 432,238 L434,238 C434.552285,238 435,237.552285 435,237 L435,235 C435,234.447715 434.552285,234 434,234 L432,234 Z M432,233 L434,233 C435.104569,233 436,233.895431 436,235 L436,237 C436,238.104569 435.104569,239 434,239 L432,239 C430.895431,239 430,238.104569 430,237 L430,235 C430,233.895431 430.895431,233 432,233 Z M432,227 C431.447715,227 431,227.447715 431,228 L431,230 C431,230.552285 431.447715,231 432,231 L434,231 C434.552285,231 435,230.552285 435,230 L435,228 C435,227.447715 434.552285,227 434,227 L432,227 Z M432,226 L434,226 C435.104569,226 436,226.895431 436,228 L436,230 C436,231.104569 435.104569,232 434,232 L432,232 C430.895431,232 430,231.104569 430,230 L430,228 C430,226.895431 430.895431,226 432,226 Z" id="vending"></path>
        </g>
    </g>
</svg>
