<svg width="23px" height="46px" viewBox="0 0 23 46" version="1.1" xmlns="http://www.w3.org/2000/svg" xmlns:xlink="http://www.w3.org/1999/xlink">
    <g id="UI" stroke="none" stroke-width="1" fill="none" fill-rule="evenodd">
        <g id="Apple-TV" transform="translate(-957.000000, -222.000000)" fill="#1A1A1A" fill-rule="nonzero">
            <path d="M963,233 C960.238576,233 958,235.238576 958,238 L958,262 C958,264.761424 960.238576,267 963,267 L974,267 C976.761424,267 979,264.761424 979,262 L979,238 C979,235.238576 976.761424,233 974,233 L963,233 Z M963,232 L974,232 C977.313708,232 980,234.686292 980,238 L980,262 C980,265.313708 977.313708,268 974,268 L963,268 C959.686292,268 957,265.313708 957,262 L957,238 C957,234.686292 959.686292,232 963,232 Z M977.914385,227.002847 C978.068953,227.231677 978.008752,227.542483 977.779921,227.697051 C977.551091,227.851619 977.240285,227.791417 977.085717,227.562587 C975.173286,224.731325 971.986515,223 968.50571,223 C965.018067,223 961.825826,224.738185 959.914906,227.578604 C959.760765,227.807722 959.450072,227.868503 959.220954,227.714362 C958.991836,227.56022 958.931055,227.249527 959.085196,227.020409 C961.180004,223.906656 964.681649,222 968.50571,222 C972.322268,222 975.817924,223.899138 977.914385,227.002847 Z M974.909096,229.323923 C975.067906,229.549831 975.013513,229.861705 974.787606,230.020515 C974.561699,230.179325 974.249824,230.124932 974.091014,229.899025 C972.822838,228.095043 970.761173,227.000002 968.514515,227.000002 C966.251212,227.000002 964.176133,228.111455 962.911069,229.937639 C962.75382,230.164636 962.442328,230.221177 962.215331,230.063929 C961.988335,229.90668 961.931793,229.595188 962.089042,229.368191 C963.538975,227.275138 965.91965,226.000002 968.514515,226.000002 C971.090279,226.000002 973.455605,227.25633 974.909096,229.323923 Z M964,236 C962.343146,236 961,237.343146 961,239 L961,258 C961,259.656854 962.343146,261 964,261 L973,261 C974.656854,261 976,259.656854 976,258 L976,239 C976,237.343146 974.656854,236 973,236 L964,236 Z M964,235 L973,235 C975.209139,235 977,236.790861 977,239 L977,258 C977,260.209139 975.209139,262 973,262 L964,262 C961.790861,262 960,260.209139 960,258 L960,239 C960,236.790861 961.790861,235 964,235 Z" id="chehli-icon"></path>
        </g>
    </g>
</svg>
