<?xml version="1.0" encoding="UTF-8"?>
<svg width="46px" height="32px" viewBox="0 0 46 32" version="1.1" xmlns="http://www.w3.org/2000/svg" xmlns:xlink="http://www.w3.org/1999/xlink">
    <!-- Generator: Sketch 54.1 (76490) - https://sketchapp.com -->
    <title>kassa</title>
    <desc>Created with Sketch.</desc>
    <g id="UI" stroke="none" stroke-width="1" fill="none" fill-rule="evenodd">
        <g id="Apple-TV" transform="translate(-1051.000000, -223.000000)" fill="#1A1A1A" fill-rule="nonzero">
            <path d="M1075.29243,251.40824 L1070.99189,251.466197 L1056.35695,254.884958 C1054.00766,255.433756 1051.66013,253.966306 1051.11359,251.607316 C1051.03811,251.281521 1051,250.948124 1051,250.613629 L1051,249.101624 C1051,246.672337 1052.45297,244.480711 1054.68492,243.543377 L1073.48819,235.646708 C1074.36208,235.279708 1075.28312,235.039392 1076.22362,234.932658 C1078.88589,227.954506 1085.6194,223 1093.50532,223 C1094.18106,223 1094.84834,223.036379 1095.50532,223.107294 L1095.50532,224.117636 C1094.84899,224.042655 1094.18164,224.004132 1093.50532,224.004132 C1086.77529,224.004132 1080.93257,227.818851 1078.00468,233.412394 C1079.78891,232.032139 1081.99435,231.162782 1084.41374,231.035464 C1087.48527,230.873827 1090.33836,231.937815 1092.50199,233.801575 C1094.88734,234.420791 1096.74066,236.487844 1096.97556,239.092976 C1096.99184,239.2736 1097,239.45487 1097,239.636232 L1097,245.17122 C1097,248.338414 1094.56445,250.940721 1091.46186,251.178338 C1089.37557,253.308908 1086.47213,254.630156 1083.26137,254.630156 C1080.16773,254.630156 1077.35941,253.403543 1075.29243,251.40824 L1075.29243,251.40824 Z M1076.79246,251.388025 C1078.57536,252.790165 1080.82115,253.626024 1083.26137,253.626024 C1085.80276,253.626024 1088.13328,252.719412 1089.94965,251.21071 L1076.79246,251.388025 L1076.79246,251.388025 Z M1077.94316,234.773834 L1090.45898,233.635983 C1090.49997,233.632256 1090.54091,233.628953 1090.58178,233.626069 C1088.8161,232.515617 1086.70462,231.920417 1084.46607,232.03822 C1081.94291,232.170999 1079.6746,233.187702 1077.94316,234.773834 L1077.94316,234.773834 Z M1055.07076,244.469751 C1053.21081,245.250863 1052,247.077219 1052,249.101624 L1052,250.613629 C1052,250.871534 1052.02939,251.128592 1052.08758,251.37979 C1052.50898,253.198637 1054.31899,254.330082 1056.13036,253.906943 L1070.7653,250.488183 L1070.97847,250.462156 L1091.0671,250.191428 C1093.80211,250.154569 1096,247.917777 1096,245.17122 L1096,239.636232 C1096,239.485097 1095.9932,239.334039 1095.97963,239.183519 C1095.73063,236.421981 1093.29932,234.385998 1090.54915,234.636025 L1076.53514,235.910081 C1075.61959,235.993316 1074.72214,236.21691 1073.87404,236.573082 L1055.07076,244.469751 Z" id="kassa"></path>
        </g>
    </g>
</svg>