<?xml version="1.0" encoding="UTF-8"?>
<svg width="26px" height="46px" viewBox="0 0 26 46" version="1.1" xmlns="http://www.w3.org/2000/svg" xmlns:xlink="http://www.w3.org/1999/xlink">
    <!-- Generator: Sketch 54.1 (76490) - https://sketchapp.com -->
    <title>pl-terminal</title>
    <desc>Created with Sketch.</desc>
    <g id="UI" stroke="none" stroke-width="1" fill="none" fill-rule="evenodd">
        <g id="Apple-TV" transform="translate(-1364.000000, -222.000000)" fill="#1A1A1A" fill-rule="nonzero">
            <path d="M1388.98982,241 L1365.00496,241 L1367.87272,262 L1386.12707,262 L1388.98982,241 Z M1389,240 L1389,228 C1389,225.238576 1386.76142,223 1384,223 L1370,223 C1367.23858,223 1365,225.238576 1365,228 L1365,240 L1389,240 Z M1390,228 L1390,241 L1387.13591,262.003024 C1388.72969,262.074084 1390,263.388693 1390,265 C1390,266.656854 1388.65685,268 1387,268 L1367,268 C1365.34315,268 1364,266.656854 1364,265 C1364,263.388773 1365.27019,262.074214 1366.86385,262.003034 L1364,241.031642 L1364,228 C1364,224.686292 1366.68629,222 1370,222 L1384,222 C1387.31371,222 1390,224.686292 1390,228 Z M1387,263 L1367,263 C1365.89543,263 1365,263.895431 1365,265 C1365,266.104569 1365.89543,267 1367,267 L1387,267 C1388.10457,267 1389,266.104569 1389,265 C1389,263.895431 1388.10457,263 1387,263 Z M1371,226 C1369.89543,226 1369,226.895431 1369,228 L1369,235 C1369,236.104569 1369.89543,237 1371,237 L1383,237 C1384.10457,237 1385,236.104569 1385,235 L1385,228 C1385,226.895431 1384.10457,226 1383,226 L1371,226 Z M1371,225 L1383,225 C1384.65685,225 1386,226.343146 1386,228 L1386,235 C1386,236.656854 1384.65685,238 1383,238 L1371,238 C1369.34315,238 1368,236.656854 1368,235 L1368,228 C1368,226.343146 1369.34315,225 1371,225 Z" id="pl-terminal"></path>
        </g>
    </g>
</svg>