<svg width="46px" height="31px" viewBox="0 0 46 31" version="1.1" xmlns="http://www.w3.org/2000/svg" xmlns:xlink="http://www.w3.org/1999/xlink">
    <g id="UI" stroke="none" stroke-width="1" fill="none" fill-rule="evenodd">
        <g id="Apple-TV" transform="translate(-1450.000000, -230.000000)" fill="#1A1A1A" fill-rule="nonzero">
            <path d="M1471.86609,241.698719 C1474.6235,234.83598 1481.25611,230 1489,230 C1489.67574,230 1490.34302,230.036824 1491,230.108604 L1491,231.131283 C1490.34367,231.055387 1489.67631,231.016393 1489,231.016393 C1481.97405,231.016393 1475.91515,235.224723 1473.13021,241.296665 C1475.18741,239.333572 1477.95555,238.131148 1481,238.131148 C1484.24211,238.131148 1487.17087,239.494775 1489.26137,241.688525 L1490,241.688525 C1493.31371,241.688525 1496,244.418854 1496,247.786885 L1496,254.901639 C1496,258.269671 1493.31371,261 1490,261 L1456,261 C1452.68629,261 1450,258.269671 1450,254.901639 L1450,251.633951 C1450,248.788657 1451.93585,246.321478 1454.66508,245.68844 L1471.86609,241.698719 Z M1472.55565,242.704918 L1472.0227,242.704918 L1454.88757,246.679358 C1452.61321,247.20689 1451,249.262873 1451,251.633951 L1451,254.901639 C1451,257.708332 1453.23858,259.983607 1456,259.983607 L1490,259.983607 C1492.76142,259.983607 1495,257.708332 1495,254.901639 L1495,247.786885 C1495,244.980192 1492.76142,242.704918 1490,242.704918 L1472.55565,242.704918 Z M1474.19894,241.688525 L1487.80106,241.688525 C1485.96886,240.103834 1483.59431,239.147541 1481,239.147541 C1478.40569,239.147541 1476.03114,240.103834 1474.19894,241.688525 Z" id="Printer"></path>
        </g>
    </g>
</svg>
