<svg width="36px" height="46px" viewBox="0 0 36 46" version="1.1" xmlns="http://www.w3.org/2000/svg" xmlns:xlink="http://www.w3.org/1999/xlink">
    <g id="UI" stroke="none" stroke-width="1" fill="none" fill-rule="evenodd">
        <g id="Apple-TV" transform="translate(-1249.000000, -223.000000)" fill="#1A1A1A" fill-rule="nonzero">
            <path d="M1261.1598,224 C1255.00376,224 1250.01332,228.924867 1250.01332,235 C1250.01332,241.075131 1255.00376,245.999999 1261.1598,245.999999 L1282.95525,245.999999 C1283.11435,245.999999 1283.27122,245.963027 1283.41315,245.892075 C1283.9124,245.642505 1284.1121,245.040792 1283.8592,244.548108 C1282.24017,241.393923 1281.42612,238.22196 1281.42612,235.041732 C1281.42612,231.848738 1282.24669,228.648391 1283.87846,225.449663 C1283.94962,225.310173 1283.98668,225.156174 1283.98668,225.000004 C1283.98668,224.44772 1283.53301,224.000006 1282.97337,224.000006 L1261.1598,224 Z M1282.97337,223.000005 C1284.09265,223.000006 1285,223.895435 1285,225 C1285,225.312344 1284.92587,225.620342 1284.78355,225.899324 C1283.22081,228.962744 1282.43944,232.010213 1282.43944,235.041732 C1282.43944,238.060034 1283.21401,241.078198 1284.76316,244.096224 C1285.26895,245.081585 1284.86954,246.285013 1283.87105,246.784152 C1283.58719,246.926055 1283.27345,246.999999 1282.95525,246.999999 L1261.1598,246.999999 C1254.44413,246.999999 1249,241.627416 1249,235 C1249,228.372582 1254.44412,223 1261.15979,223 L1282.97337,223.000005 Z M1277.56882,245.999999 C1275.41653,242.367983 1274.33291,238.711957 1274.33291,235.041732 C1274.33291,231.364915 1275.42041,227.681343 1277.58034,223.999996 C1278.50066,223.779858 1278.89235,223.781326 1278.7554,224.0044 C1276.48262,227.706712 1275.34622,231.385821 1275.34622,235.041732 C1275.34622,239.028061 1276.69731,243.01415 1279.39949,246.999999 L1277.6231,246.999999 L1277.56882,245.999999 Z M1269.04117,246.999999 L1262.29176,246.999999 L1257.86791,261.564345 C1257.72644,262.030113 1257.65457,262.513756 1257.65457,262.999999 C1257.65457,265.761424 1259.92295,268 1262.72115,268 L1264.25858,268 C1264.82243,268 1265.35766,267.754956 1265.72179,267.330106 C1266.40529,266.532619 1266.30428,265.339314 1265.49619,264.664786 C1263.22593,262.769826 1262.21852,261.156917 1262.75973,259.663295 C1263.38732,257.931271 1265.47115,253.733996 1269.04117,246.999999 Z M1261.53764,245.999999 L1270.71705,245.999999 C1266.6971,253.542687 1264.36271,258.209354 1263.71388,259.999999 C1263.36754,260.955834 1264.17977,262.256257 1266.15057,263.901268 C1267.38596,264.932464 1267.54038,266.756727 1266.49547,267.975893 C1265.93881,268.625386 1265.12057,269 1264.25858,269 L1262.72115,269 C1259.36331,269 1256.64125,266.313708 1256.64125,262.999999 C1256.64125,262.416508 1256.7275,261.836136 1256.89727,261.277214 L1261.53764,245.999999 Z" id="scanner"></path>
        </g>
    </g>
</svg>
