<svg width="46px" height="28px" viewBox="0 0 46 28" version="1.1" xmlns="http://www.w3.org/2000/svg" xmlns:xlink="http://www.w3.org/1999/xlink">
    <g id="UI" stroke="none" stroke-width="1" fill="none" fill-rule="evenodd">
        <g id="Apple-TV" transform="translate(-1153.000000, -231.000000)" fill="#1A1A1A" fill-rule="nonzero">
            <path d="M1170,240 L1170,232 L1156,232 C1154.89543,232 1154,232.895431 1154,234 L1154,238 C1154,239.104569 1154.89543,240 1156,240 L1161.94122,240 L1170,240 L1170,240 Z M1170.64242,241 L1164.91746,257.010113 C1164.49072,258.20352 1163.36004,259 1162.09263,259 L1161.37505,259 C1160.06634,259 1159.00542,257.939083 1159.00542,256.630376 C1159.00542,256.490539 1159.0178,256.350976 1159.04241,256.213321 L1161.76243,241 L1156,241 C1154.34315,241 1153,239.656854 1153,238 L1153,234 C1153,232.343146 1154.34315,231 1156,231 L1196,231 C1197.65685,231 1199,232.343146 1199,234 L1199,238 C1199,239.656854 1197.65685,241 1196,241 L1170.64242,241 Z M1169.58041,241 L1162.77828,241 L1160.0268,256.389322 C1160.01258,256.468885 1160.00542,256.549551 1160.00542,256.630376 C1160.00542,257.386799 1160.61862,258 1161.37505,258 L1162.09263,258 C1162.93757,258 1163.69136,257.469014 1163.97585,256.673409 L1169.58041,241 L1169.58041,241 Z M1171,232 L1171,240 L1196,240 C1197.10457,240 1198,239.104569 1198,238 L1198,234 C1198,232.895431 1197.10457,232 1196,232 L1171,232 Z" id="terminal-sbora"></path>
        </g>
    </g>
</svg>
