<?xml version="1.0" encoding="UTF-8"?>
<svg width="32px" height="46px" viewBox="0 0 32 46" version="1.1" xmlns="http://www.w3.org/2000/svg" xmlns:xlink="http://www.w3.org/1999/xlink">
    <!-- Generator: Sketch 54.1 (76490) - https://sketchapp.com -->
    <title>dps-m</title>
    <desc>Created with Sketch.</desc>
    <g id="UI" stroke="none" stroke-width="1" fill="none" fill-rule="evenodd">
        <g id="Apple-TV" transform="translate(-832.000000, -222.000000)" fill="#1A1A1A" fill-rule="nonzero">
            <path d="M838,223 C835.238576,223 833,225.238576 833,228 L833,262 C833,264.761424 835.238576,267 838,267 L858,267 C860.761424,267 863,264.761424 863,262 L863,228 C863,225.238576 860.761424,223 858,223 L838,223 Z M838,222 L858,222 C861.313708,222 864,224.686292 864,228 L864,262 C864,265.313708 861.313708,268 858,268 L838,268 C834.686292,268 832,265.313708 832,262 L832,228 C832,224.686292 834.686292,222 838,222 Z M848,264.5 C846.067003,264.5 844.5,262.932997 844.5,261 C844.5,259.067003 846.067003,257.5 848,257.5 C849.932997,257.5 851.5,259.067003 851.5,261 C851.5,262.932997 849.932997,264.5 848,264.5 Z M848,263.5 C849.380712,263.5 850.5,262.380712 850.5,261 C850.5,259.619288 849.380712,258.5 848,258.5 C846.619288,258.5 845.5,259.619288 845.5,261 C845.5,262.380712 846.619288,263.5 848,263.5 Z M840.5,232 L852.5,232 C852.776142,232 853,232.223858 853,232.5 C853,232.776142 852.776142,233 852.5,233 L840.5,233 C840.223858,233 840,232.776142 840,232.5 C840,232.223858 840.223858,232 840.5,232 Z M840.5,237 L848.5,237 C848.776142,237 849,237.223858 849,237.5 C849,237.776142 848.776142,238 848.5,238 L840.5,238 C840.223858,238 840,237.776142 840,237.5 C840,237.223858 840.223858,237 840.5,237 Z M848.156854,247.106602 L857.117009,238.146447 C857.312272,237.951184 857.628854,237.951184 857.824116,238.146447 C858.019378,238.341709 858.019378,238.658291 857.824116,238.853553 L848.510408,248.167262 C848.315145,248.362524 847.998563,248.362524 847.803301,248.167262 L844.146447,244.510408 C843.951184,244.315145 843.951184,243.998563 844.146447,243.803301 C844.341709,243.608039 844.658291,243.608039 844.853553,243.803301 L848.156854,247.106602 Z" id="dps-m"></path>
        </g>
    </g>
</svg>