<?xml version="1.0" encoding="UTF-8"?>
<svg width="46px" height="32px" viewBox="0 0 46 32" version="1.1" xmlns="http://www.w3.org/2000/svg" xmlns:xlink="http://www.w3.org/1999/xlink">
    <!-- Generator: Sketch 54.1 (76490) - https://sketchapp.com -->
    <title>dps-icon</title>
    <desc>Created with Sketch.</desc>
    <g id="UI" stroke="none" stroke-width="1" fill="none" fill-rule="evenodd">
        <g id="Apple-TV" transform="translate(-710.000000, -229.000000)" fill="#1A1A1A" fill-rule="nonzero">
            <path d="M746,251 L746,253 C746,253.552285 746.447715,254 747,254 L749,254 C749.552285,254 750,253.552285 750,253 L750,251 C750,250.447715 749.552285,250 749,250 L747,250 C746.447715,250 746,250.447715 746,251 Z M745.5,254.322912 C745.133528,254.738123 744.597346,255 744,255 L742,255 C740.895431,255 740,254.104569 740,253 L740,251 C740,249.895431 740.895431,249 742,249 L744,249 C744.597346,249 745.133528,249.261877 745.5,249.677088 C745.866472,249.261877 746.402654,249 747,249 L749,249 C750.104569,249 751,249.895431 751,251 L751,253 C751,254.104569 750.104569,255 749,255 L747,255 C746.402654,255 745.866472,254.738123 745.5,254.322912 Z M745,253 L745,251 C745,250.447715 744.552285,250 744,250 L742,250 C741.447715,250 741,250.447715 741,251 L741,253 C741,253.552285 741.447715,254 742,254 L744,254 C744.552285,254 745,253.552285 745,253 Z M711,235 L755,235 C755,232.238576 752.761424,230 750,230 L716,230 C713.238576,230 711,232.238576 711,235 Z M711,243 L711,255 C711,257.761424 713.238576,260 716,260 L750,260 C752.761424,260 755,257.761424 755,255 L755,243 L711,243 Z M756,235 L756,255 C756,258.313708 753.313708,261 750,261 L716,261 C712.686292,261 710,258.313708 710,255 L710,235 C710,231.686292 712.686292,229 716,229 L750,229 C753.313708,229 756,231.686292 756,235 Z M711,236 L711,242 L755,242 L755,236 L711,236 Z" id="dps-icon"></path>
        </g>
    </g>
</svg>