<?xml version="1.0" encoding="UTF-8"?>
<svg width="32px" height="46px" viewBox="0 0 32 46" version="1.1" xmlns="http://www.w3.org/2000/svg" xmlns:xlink="http://www.w3.org/1999/xlink">
    <!-- Generator: Sketch 54.1 (76490) - https://sketchapp.com -->
    <title>salepoint-icon</title>
    <desc>Created with Sketch.</desc>
    <g id="UI" stroke="none" stroke-width="1" fill="none" fill-rule="evenodd">
        <g id="Apple-TV" transform="translate(-604.000000, -222.000000)" fill="#1A1A1A" fill-rule="nonzero">
            <path d="M630,232 L630,236 L610,236 L610,232 C607.238576,232 605,234.238576 605,237 L605,262 C605,264.761424 607.238576,267 610,267 L630,267 C632.761424,267 635,264.761424 635,262 L635,237 C635,234.238576 632.761424,232 630,232 Z M611,231 L611,235 L629,235 L629,231 L629,223.620682 L625.943172,225.154688 L623.017225,223.201381 L620.005863,225.201127 L617.006263,223.201419 L614.071118,225.153638 L611,223.618048 L611,231 Z M630,231 C633.313708,231 636,233.686292 636,237 L636,262 C636,265.313708 633.313708,268 630,268 L610,268 C606.686292,268 604,265.313708 604,262 L604,237 C604,233.686292 606.686292,231 610,231 L610,222 L613.999921,224 L617.006904,222 L620.006942,224 L623.018687,222 L626.01458,224 L630,222 L630,231 Z M612,240 C611.447715,240 611,240.447715 611,241 L611,244 C611,244.552285 611.447715,245 612,245 L628,245 C628.552285,245 629,244.552285 629,244 L629,241 C629,240.447715 628.552285,240 628,240 L612,240 Z M612,239 L628,239 C629.104569,239 630,239.895431 630,241 L630,244 C630,245.104569 629.104569,246 628,246 L612,246 C610.895431,246 610,245.104569 610,244 L610,241 C610,239.895431 610.895431,239 612,239 Z M612,249 C611.447715,249 611,249.447715 611,250 L611,252 C611,252.552285 611.447715,253 612,253 L614,253 C614.552285,253 615,252.552285 615,252 L615,250 C615,249.447715 614.552285,249 614,249 L612,249 Z M612,248 L614,248 C615.104569,248 616,248.895431 616,250 L616,252 C616,253.104569 615.104569,254 614,254 L612,254 C610.895431,254 610,253.104569 610,252 L610,250 C610,248.895431 610.895431,248 612,248 Z M619,249 C618.447715,249 618,249.447715 618,250 L618,252 C618,252.552285 618.447715,253 619,253 L621,253 C621.552285,253 622,252.552285 622,252 L622,250 C622,249.447715 621.552285,249 621,249 L619,249 Z M619,248 L621,248 C622.104569,248 623,248.895431 623,250 L623,252 C623,253.104569 622.104569,254 621,254 L619,254 C617.895431,254 617,253.104569 617,252 L617,250 C617,248.895431 617.895431,248 619,248 Z M626,249 C625.447715,249 625,249.447715 625,250 L625,252 C625,252.552285 625.447715,253 626,253 L628,253 C628.552285,253 629,252.552285 629,252 L629,250 C629,249.447715 628.552285,249 628,249 L626,249 Z M626,248 L628,248 C629.104569,248 630,248.895431 630,250 L630,252 C630,253.104569 629.104569,254 628,254 L626,254 C624.895431,254 624,253.104569 624,252 L624,250 C624,248.895431 624.895431,248 626,248 Z M612,256 C611.447715,256 611,256.447715 611,257 L611,259 C611,259.552285 611.447715,260 612,260 L614,260 C614.552285,260 615,259.552285 615,259 L615,257 C615,256.447715 614.552285,256 614,256 L612,256 Z M612,255 L614,255 C615.104569,255 616,255.895431 616,257 L616,259 C616,260.104569 615.104569,261 614,261 L612,261 C610.895431,261 610,260.104569 610,259 L610,257 C610,255.895431 610.895431,255 612,255 Z M619,256 C618.447715,256 618,256.447715 618,257 L618,259 C618,259.552285 618.447715,260 619,260 L621,260 C621.552285,260 622,259.552285 622,259 L622,257 C622,256.447715 621.552285,256 621,256 L619,256 Z M619,255 L621,255 C622.104569,255 623,255.895431 623,257 L623,259 C623,260.104569 622.104569,261 621,261 L619,261 C617.895431,261 617,260.104569 617,259 L617,257 C617,255.895431 617.895431,255 619,255 Z M626,256 C625.447715,256 625,256.447715 625,257 L625,259 C625,259.552285 625.447715,260 626,260 L628,260 C628.552285,260 629,259.552285 629,259 L629,257 C629,256.447715 628.552285,256 628,256 L626,256 Z M626,255 L628,255 C629.104569,255 630,255.895431 630,257 L630,259 C630,260.104569 629.104569,261 628,261 L626,261 C624.895431,261 624,260.104569 624,259 L624,257 C624,255.895431 624.895431,255 626,255 Z" id="salepoint-icon"></path>
        </g>
    </g>
</svg>