<?xml version="1.0" encoding="UTF-8"?>
<svg width="32px" height="46px" viewBox="0 0 32 46" version="1.1" xmlns="http://www.w3.org/2000/svg" xmlns:xlink="http://www.w3.org/1999/xlink">
    <!-- Generator: Sketch 54.1 (76490) - https://sketchapp.com -->
    <title>store-online-icon</title>
    <desc>Created with Sketch.</desc>
    <g id="UI" stroke="none" stroke-width="1" fill="none" fill-rule="evenodd">
        <g id="Apple-TV" transform="translate(-489.000000, -222.000000)" fill="#1A1A1A" fill-rule="nonzero">
            <path d="M499.469765,235.712652 C499.34287,235.289668 498.953547,235 498.511939,235 L497.5,235 C497.223858,235 497,234.776142 497,234.5 C497,234.223858 497.223858,234 497.5,234 L498.511939,234 C499.395155,234 500.173801,234.579336 500.427591,235.425304 L502.530235,242.287348 C502.65713,242.710332 503.046453,243 503.488061,243 L509,243 C509.552285,243 510,242.552285 510,242 L510,239 C510,238.447715 509.552285,238 509,238 L504.5,238 C504.223858,238 504,237.776142 504,237.5 C504,237.223858 504.223858,237 504.5,237 L509,237 C510.104569,237 511,237.895431 511,239 L511,242 C511,243.104569 510.104569,244 509,244 L503.488061,244 C502.604845,244 501.826199,243.420664 501.572409,242.574696 L499.469765,235.712652 Z M508,248 C507.447715,248 507,247.552285 507,247 C507,246.447715 507.447715,246 508,246 C508.552285,246 509,246.447715 509,247 C509,247.552285 508.552285,248 508,248 Z M504,248 C503.447715,248 503,247.552285 503,247 C503,246.447715 503.447715,246 504,246 C504.552285,246 505,246.447715 505,247 C505,247.552285 504.552285,248 504,248 Z M495,223 C492.238576,223 490,225.238576 490,228 L490,262 C490,264.761424 492.238576,267 495,267 L515,267 C517.761424,267 520,264.761424 520,262 L520,228 C520,225.238576 517.761424,223 515,223 L495,223 Z M495,222 L515,222 C518.313708,222 521,224.686292 521,228 L521,262 C521,265.313708 518.313708,268 515,268 L495,268 C491.686292,268 489,265.313708 489,262 L489,228 C489,224.686292 491.686292,222 495,222 Z M505,264.5 C503.067003,264.5 501.5,262.932997 501.5,261 C501.5,259.067003 503.067003,257.5 505,257.5 C506.932997,257.5 508.5,259.067003 508.5,261 C508.5,262.932997 506.932997,264.5 505,264.5 Z M505,263.5 C506.380712,263.5 507.5,262.380712 507.5,261 C507.5,259.619288 506.380712,258.5 505,258.5 C503.619288,258.5 502.5,259.619288 502.5,261 C502.5,262.380712 503.619288,263.5 505,263.5 Z" id="store-online-icon"></path>
        </g>
    </g>
</svg>