<?xml version="1.0" encoding="UTF-8"?>
<svg width="23px" height="29px" viewBox="0 0 23 29" version="1.1" xmlns="http://www.w3.org/2000/svg" xmlns:xlink="http://www.w3.org/1999/xlink">
    <!-- Generator: Sketch 54.1 (76490) - https://sketchapp.com -->
    <title>Combined Shape</title>
    <desc>Created with Sketch.</desc>
    <g id="UI" stroke="none" stroke-width="1" fill="none" fill-rule="evenodd">
        <g id="Apple-TV" transform="translate(-1546.000000, -231.000000)" fill="#1A1A1A">
            <path d="M1558,251.192388 L1564.04594,245.146447 C1564.2412,244.951184 1564.55779,244.951184 1564.75305,245.146447 C1564.94831,245.341709 1564.94831,245.658291 1564.75305,245.853553 L1557.8033,252.803301 C1557.60804,252.998563 1557.29146,252.998563 1557.09619,252.803301 L1550.14645,245.853553 C1549.95118,245.658291 1549.95118,245.341709 1550.14645,245.146447 C1550.34171,244.951184 1550.65829,244.951184 1550.85355,245.146447 L1557,251.292893 L1557,231.5 C1557,231.223858 1557.22386,231 1557.5,231 C1557.77614,231 1558,231.223858 1558,231.5 L1558,251.192388 Z M1547,259 L1568,259 L1568,254.5 C1568,254.223858 1568.22386,254 1568.5,254 C1568.77614,254 1569,254.223858 1569,254.5 L1569,259.5 C1569,259.776142 1568.77614,260 1568.5,260 L1546.5,260 C1546.22386,260 1546,259.776142 1546,259.5 L1546,254.5 C1546,254.223858 1546.22386,254 1546.5,254 C1546.77614,254 1547,254.223858 1547,254.5 L1547,259 Z" id="Combined-Shape"></path>
        </g>
    </g>
</svg>