<svg width="600px" height="350px" viewBox="0 0 600 350" version="1.1" xmlns="http://www.w3.org/2000/svg" xmlns:xlink="http://www.w3.org/1999/xlink">
    <g id="UI" stroke="none" stroke-width="1" fill="none" fill-rule="evenodd">
        <g id="Apple-TV-Copy-3" transform="translate(-1051.000000, -605.000000)" fill="#FFFFFF" fill-rule="nonzero">
            <path d="M1341,606 C1338.23858,606 1336,608.238576 1336,611 L1336,645 C1336,647.761424 1338.23858,650 1341,650 L1361,650 C1363.76142,650 1366,647.761424 1366,645 L1366,611 C1366,608.238576 1363.76142,606 1361,606 L1341,606 Z M1341,605 L1361,605 C1364.31371,605 1367,607.686292 1367,611 L1367,645 C1367,648.313708 1364.31371,651 1361,651 L1341,651 C1337.68629,651 1335,648.313708 1335,645 L1335,611 C1335,607.686292 1337.68629,605 1341,605 Z M1351,647.5 C1349.067,647.5 1347.5,645.932997 1347.5,644 C1347.5,642.067003 1349.067,640.5 1351,640.5 C1352.933,640.5 1354.5,642.067003 1354.5,644 C1354.5,645.932997 1352.933,647.5 1351,647.5 Z M1351,646.5 C1352.38071,646.5 1353.5,645.380712 1353.5,644 C1353.5,642.619288 1352.38071,641.5 1351,641.5 C1349.61929,641.5 1348.5,642.619288 1348.5,644 C1348.5,645.380712 1349.61929,646.5 1351,646.5 Z M1343.5,615 L1355.5,615 C1355.77614,615 1356,615.223858 1356,615.5 C1356,615.776142 1355.77614,616 1355.5,616 L1343.5,616 C1343.22386,616 1343,615.776142 1343,615.5 C1343,615.223858 1343.22386,615 1343.5,615 Z M1343.5,620 L1351.5,620 C1351.77614,620 1352,620.223858 1352,620.5 C1352,620.776142 1351.77614,621 1351.5,621 L1343.5,621 C1343.22386,621 1343,620.776142 1343,620.5 C1343,620.223858 1343.22386,620 1343.5,620 Z M1351.15685,630.106602 L1360.11701,621.146447 C1360.31227,620.951184 1360.62885,620.951184 1360.82412,621.146447 C1361.01938,621.341709 1361.01938,621.658291 1360.82412,621.853553 L1351.51041,631.167262 C1351.31515,631.362524 1350.99856,631.362524 1350.8033,631.167262 L1347.14645,627.510408 C1346.95118,627.315145 1346.95118,626.998563 1347.14645,626.803301 C1347.34171,626.608039 1347.65829,626.608039 1347.85355,626.803301 L1351.15685,630.106602 Z M1270,682 C1267.23858,682 1265,684.238576 1265,687 L1265,721 C1265,723.761424 1267.23858,726 1270,726 L1290,726 C1292.76142,726 1295,723.761424 1295,721 L1295,687 C1295,684.238576 1292.76142,682 1290,682 L1270,682 Z M1270,681 L1290,681 C1293.31371,681 1296,683.686292 1296,687 L1296,721 C1296,724.313708 1293.31371,727 1290,727 L1270,727 C1266.68629,727 1264,724.313708 1264,721 L1264,687 C1264,683.686292 1266.68629,681 1270,681 Z M1280,723.5 C1278.067,723.5 1276.5,721.932997 1276.5,720 C1276.5,718.067003 1278.067,716.5 1280,716.5 C1281.933,716.5 1283.5,718.067003 1283.5,720 C1283.5,721.932997 1281.933,723.5 1280,723.5 Z M1280,722.5 C1281.38071,722.5 1282.5,721.380712 1282.5,720 C1282.5,718.619288 1281.38071,717.5 1280,717.5 C1278.61929,717.5 1277.5,718.619288 1277.5,720 C1277.5,721.380712 1278.61929,722.5 1280,722.5 Z M1272.5,691 L1284.5,691 C1284.77614,691 1285,691.223858 1285,691.5 C1285,691.776142 1284.77614,692 1284.5,692 L1272.5,692 C1272.22386,692 1272,691.776142 1272,691.5 C1272,691.223858 1272.22386,691 1272.5,691 Z M1272.5,696 L1280.5,696 C1280.77614,696 1281,696.223858 1281,696.5 C1281,696.776142 1280.77614,697 1280.5,697 L1272.5,697 C1272.22386,697 1272,696.776142 1272,696.5 C1272,696.223858 1272.22386,696 1272.5,696 Z M1280.15685,706.106602 L1289.11701,697.146447 C1289.31227,696.951184 1289.62885,696.951184 1289.82412,697.146447 C1290.01938,697.341709 1290.01938,697.658291 1289.82412,697.853553 L1280.51041,707.167262 C1280.31515,707.362524 1279.99856,707.362524 1279.8033,707.167262 L1276.14645,703.510408 C1275.95118,703.315145 1275.95118,702.998563 1276.14645,702.803301 C1276.34171,702.608039 1276.65829,702.608039 1276.85355,702.803301 L1280.15685,706.106602 Z M1483,606 C1480.23858,606 1478,608.238576 1478,611 L1478,645 C1478,647.761424 1480.23858,650 1483,650 L1503,650 C1505.76142,650 1508,647.761424 1508,645 L1508,611 C1508,608.238576 1505.76142,606 1503,606 L1483,606 Z M1483,605 L1503,605 C1506.31371,605 1509,607.686292 1509,611 L1509,645 C1509,648.313708 1506.31371,651 1503,651 L1483,651 C1479.68629,651 1477,648.313708 1477,645 L1477,611 C1477,607.686292 1479.68629,605 1483,605 Z M1493,647.5 C1491.067,647.5 1489.5,645.932997 1489.5,644 C1489.5,642.067003 1491.067,640.5 1493,640.5 C1494.933,640.5 1496.5,642.067003 1496.5,644 C1496.5,645.932997 1494.933,647.5 1493,647.5 Z M1493,646.5 C1494.38071,646.5 1495.5,645.380712 1495.5,644 C1495.5,642.619288 1494.38071,641.5 1493,641.5 C1491.61929,641.5 1490.5,642.619288 1490.5,644 C1490.5,645.380712 1491.61929,646.5 1493,646.5 Z M1485.5,615 L1497.5,615 C1497.77614,615 1498,615.223858 1498,615.5 C1498,615.776142 1497.77614,616 1497.5,616 L1485.5,616 C1485.22386,616 1485,615.776142 1485,615.5 C1485,615.223858 1485.22386,615 1485.5,615 Z M1485.5,620 L1493.5,620 C1493.77614,620 1494,620.223858 1494,620.5 C1494,620.776142 1493.77614,621 1493.5,621 L1485.5,621 C1485.22386,621 1485,620.776142 1485,620.5 C1485,620.223858 1485.22386,620 1485.5,620 Z M1493.15685,630.106602 L1502.11701,621.146447 C1502.31227,620.951184 1502.62885,620.951184 1502.82412,621.146447 C1503.01938,621.341709 1503.01938,621.658291 1502.82412,621.853553 L1493.51041,631.167262 C1493.31515,631.362524 1492.99856,631.362524 1492.8033,631.167262 L1489.14645,627.510408 C1488.95118,627.315145 1488.95118,626.998563 1489.14645,626.803301 C1489.34171,626.608039 1489.65829,626.608039 1489.85355,626.803301 L1493.15685,630.106602 Z M1412,682 C1409.23858,682 1407,684.238576 1407,687 L1407,721 C1407,723.761424 1409.23858,726 1412,726 L1432,726 C1434.76142,726 1437,723.761424 1437,721 L1437,687 C1437,684.238576 1434.76142,682 1432,682 L1412,682 Z M1412,681 L1432,681 C1435.31371,681 1438,683.686292 1438,687 L1438,721 C1438,724.313708 1435.31371,727 1432,727 L1412,727 C1408.68629,727 1406,724.313708 1406,721 L1406,687 C1406,683.686292 1408.68629,681 1412,681 Z M1422,723.5 C1420.067,723.5 1418.5,721.932997 1418.5,720 C1418.5,718.067003 1420.067,716.5 1422,716.5 C1423.933,716.5 1425.5,718.067003 1425.5,720 C1425.5,721.932997 1423.933,723.5 1422,723.5 Z M1422,722.5 C1423.38071,722.5 1424.5,721.380712 1424.5,720 C1424.5,718.619288 1423.38071,717.5 1422,717.5 C1420.61929,717.5 1419.5,718.619288 1419.5,720 C1419.5,721.380712 1420.61929,722.5 1422,722.5 Z M1414.5,691 L1426.5,691 C1426.77614,691 1427,691.223858 1427,691.5 C1427,691.776142 1426.77614,692 1426.5,692 L1414.5,692 C1414.22386,692 1414,691.776142 1414,691.5 C1414,691.223858 1414.22386,691 1414.5,691 Z M1414.5,696 L1422.5,696 C1422.77614,696 1423,696.223858 1423,696.5 C1423,696.776142 1422.77614,697 1422.5,697 L1414.5,697 C1414.22386,697 1414,696.776142 1414,696.5 C1414,696.223858 1414.22386,696 1414.5,696 Z M1422.15685,706.106602 L1431.11701,697.146447 C1431.31227,696.951184 1431.62885,696.951184 1431.82412,697.146447 C1432.01938,697.341709 1432.01938,697.658291 1431.82412,697.853553 L1422.51041,707.167262 C1422.31515,707.362524 1421.99856,707.362524 1421.8033,707.167262 L1418.14645,703.510408 C1417.95118,703.315145 1417.95118,702.998563 1418.14645,702.803301 C1418.34171,702.608039 1418.65829,702.608039 1418.85355,702.803301 L1422.15685,706.106602 Z M1625,606 C1622.23858,606 1620,608.238576 1620,611 L1620,645 C1620,647.761424 1622.23858,650 1625,650 L1645,650 C1647.76142,650 1650,647.761424 1650,645 L1650,611 C1650,608.238576 1647.76142,606 1645,606 L1625,606 Z M1625,605 L1645,605 C1648.31371,605 1651,607.686292 1651,611 L1651,645 C1651,648.313708 1648.31371,651 1645,651 L1625,651 C1621.68629,651 1619,648.313708 1619,645 L1619,611 C1619,607.686292 1621.68629,605 1625,605 Z M1635,647.5 C1633.067,647.5 1631.5,645.932997 1631.5,644 C1631.5,642.067003 1633.067,640.5 1635,640.5 C1636.933,640.5 1638.5,642.067003 1638.5,644 C1638.5,645.932997 1636.933,647.5 1635,647.5 Z M1635,646.5 C1636.38071,646.5 1637.5,645.380712 1637.5,644 C1637.5,642.619288 1636.38071,641.5 1635,641.5 C1633.61929,641.5 1632.5,642.619288 1632.5,644 C1632.5,645.380712 1633.61929,646.5 1635,646.5 Z M1627.5,615 L1639.5,615 C1639.77614,615 1640,615.223858 1640,615.5 C1640,615.776142 1639.77614,616 1639.5,616 L1627.5,616 C1627.22386,616 1627,615.776142 1627,615.5 C1627,615.223858 1627.22386,615 1627.5,615 Z M1627.5,620 L1635.5,620 C1635.77614,620 1636,620.223858 1636,620.5 C1636,620.776142 1635.77614,621 1635.5,621 L1627.5,621 C1627.22386,621 1627,620.776142 1627,620.5 C1627,620.223858 1627.22386,620 1627.5,620 Z M1635.15685,630.106602 L1644.11701,621.146447 C1644.31227,620.951184 1644.62885,620.951184 1644.82412,621.146447 C1645.01938,621.341709 1645.01938,621.658291 1644.82412,621.853553 L1635.51041,631.167262 C1635.31515,631.362524 1634.99856,631.362524 1634.8033,631.167262 L1631.14645,627.510408 C1630.95118,627.315145 1630.95118,626.998563 1631.14645,626.803301 C1631.34171,626.608039 1631.65829,626.608039 1631.85355,626.803301 L1635.15685,630.106602 Z M1554,682 C1551.23858,682 1549,684.238576 1549,687 L1549,721 C1549,723.761424 1551.23858,726 1554,726 L1574,726 C1576.76142,726 1579,723.761424 1579,721 L1579,687 C1579,684.238576 1576.76142,682 1574,682 L1554,682 Z M1554,681 L1574,681 C1577.31371,681 1580,683.686292 1580,687 L1580,721 C1580,724.313708 1577.31371,727 1574,727 L1554,727 C1550.68629,727 1548,724.313708 1548,721 L1548,687 C1548,683.686292 1550.68629,681 1554,681 Z M1564,723.5 C1562.067,723.5 1560.5,721.932997 1560.5,720 C1560.5,718.067003 1562.067,716.5 1564,716.5 C1565.933,716.5 1567.5,718.067003 1567.5,720 C1567.5,721.932997 1565.933,723.5 1564,723.5 Z M1564,722.5 C1565.38071,722.5 1566.5,721.380712 1566.5,720 C1566.5,718.619288 1565.38071,717.5 1564,717.5 C1562.61929,717.5 1561.5,718.619288 1561.5,720 C1561.5,721.380712 1562.61929,722.5 1564,722.5 Z M1556.5,691 L1568.5,691 C1568.77614,691 1569,691.223858 1569,691.5 C1569,691.776142 1568.77614,692 1568.5,692 L1556.5,692 C1556.22386,692 1556,691.776142 1556,691.5 C1556,691.223858 1556.22386,691 1556.5,691 Z M1556.5,696 L1564.5,696 C1564.77614,696 1565,696.223858 1565,696.5 C1565,696.776142 1564.77614,697 1564.5,697 L1556.5,697 C1556.22386,697 1556,696.776142 1556,696.5 C1556,696.223858 1556.22386,696 1556.5,696 Z M1564.15685,706.106602 L1573.11701,697.146447 C1573.31227,696.951184 1573.62885,696.951184 1573.82412,697.146447 C1574.01938,697.341709 1574.01938,697.658291 1573.82412,697.853553 L1564.51041,707.167262 C1564.31515,707.362524 1563.99856,707.362524 1563.8033,707.167262 L1560.14645,703.510408 C1559.95118,703.315145 1559.95118,702.998563 1560.14645,702.803301 C1560.34171,702.608039 1560.65829,702.608039 1560.85355,702.803301 L1564.15685,706.106602 Z M1199,758 C1196.23858,758 1194,760.238576 1194,763 L1194,797 C1194,799.761424 1196.23858,802 1199,802 L1219,802 C1221.76142,802 1224,799.761424 1224,797 L1224,763 C1224,760.238576 1221.76142,758 1219,758 L1199,758 Z M1199,757 L1219,757 C1222.31371,757 1225,759.686292 1225,763 L1225,797 C1225,800.313708 1222.31371,803 1219,803 L1199,803 C1195.68629,803 1193,800.313708 1193,797 L1193,763 C1193,759.686292 1195.68629,757 1199,757 Z M1209,799.5 C1207.067,799.5 1205.5,797.932997 1205.5,796 C1205.5,794.067003 1207.067,792.5 1209,792.5 C1210.933,792.5 1212.5,794.067003 1212.5,796 C1212.5,797.932997 1210.933,799.5 1209,799.5 Z M1209,798.5 C1210.38071,798.5 1211.5,797.380712 1211.5,796 C1211.5,794.619288 1210.38071,793.5 1209,793.5 C1207.61929,793.5 1206.5,794.619288 1206.5,796 C1206.5,797.380712 1207.61929,798.5 1209,798.5 Z M1201.5,767 L1213.5,767 C1213.77614,767 1214,767.223858 1214,767.5 C1214,767.776142 1213.77614,768 1213.5,768 L1201.5,768 C1201.22386,768 1201,767.776142 1201,767.5 C1201,767.223858 1201.22386,767 1201.5,767 Z M1201.5,772 L1209.5,772 C1209.77614,772 1210,772.223858 1210,772.5 C1210,772.776142 1209.77614,773 1209.5,773 L1201.5,773 C1201.22386,773 1201,772.776142 1201,772.5 C1201,772.223858 1201.22386,772 1201.5,772 Z M1209.15685,782.106602 L1218.11701,773.146447 C1218.31227,772.951184 1218.62885,772.951184 1218.82412,773.146447 C1219.01938,773.341709 1219.01938,773.658291 1218.82412,773.853553 L1209.51041,783.167262 C1209.31515,783.362524 1208.99856,783.362524 1208.8033,783.167262 L1205.14645,779.510408 C1204.95118,779.315145 1204.95118,778.998563 1205.14645,778.803301 C1205.34171,778.608039 1205.65829,778.608039 1205.85355,778.803301 L1209.15685,782.106602 Z M1341,758 C1338.23858,758 1336,760.238576 1336,763 L1336,797 C1336,799.761424 1338.23858,802 1341,802 L1361,802 C1363.76142,802 1366,799.761424 1366,797 L1366,763 C1366,760.238576 1363.76142,758 1361,758 L1341,758 Z M1341,757 L1361,757 C1364.31371,757 1367,759.686292 1367,763 L1367,797 C1367,800.313708 1364.31371,803 1361,803 L1341,803 C1337.68629,803 1335,800.313708 1335,797 L1335,763 C1335,759.686292 1337.68629,757 1341,757 Z M1351,799.5 C1349.067,799.5 1347.5,797.932997 1347.5,796 C1347.5,794.067003 1349.067,792.5 1351,792.5 C1352.933,792.5 1354.5,794.067003 1354.5,796 C1354.5,797.932997 1352.933,799.5 1351,799.5 Z M1351,798.5 C1352.38071,798.5 1353.5,797.380712 1353.5,796 C1353.5,794.619288 1352.38071,793.5 1351,793.5 C1349.61929,793.5 1348.5,794.619288 1348.5,796 C1348.5,797.380712 1349.61929,798.5 1351,798.5 Z M1343.5,767 L1355.5,767 C1355.77614,767 1356,767.223858 1356,767.5 C1356,767.776142 1355.77614,768 1355.5,768 L1343.5,768 C1343.22386,768 1343,767.776142 1343,767.5 C1343,767.223858 1343.22386,767 1343.5,767 Z M1343.5,772 L1351.5,772 C1351.77614,772 1352,772.223858 1352,772.5 C1352,772.776142 1351.77614,773 1351.5,773 L1343.5,773 C1343.22386,773 1343,772.776142 1343,772.5 C1343,772.223858 1343.22386,772 1343.5,772 Z M1351.15685,782.106602 L1360.11701,773.146447 C1360.31227,772.951184 1360.62885,772.951184 1360.82412,773.146447 C1361.01938,773.341709 1361.01938,773.658291 1360.82412,773.853553 L1351.51041,783.167262 C1351.31515,783.362524 1350.99856,783.362524 1350.8033,783.167262 L1347.14645,779.510408 C1346.95118,779.315145 1346.95118,778.998563 1347.14645,778.803301 C1347.34171,778.608039 1347.65829,778.608039 1347.85355,778.803301 L1351.15685,782.106602 Z M1483,758 C1480.23858,758 1478,760.238576 1478,763 L1478,797 C1478,799.761424 1480.23858,802 1483,802 L1503,802 C1505.76142,802 1508,799.761424 1508,797 L1508,763 C1508,760.238576 1505.76142,758 1503,758 L1483,758 Z M1483,757 L1503,757 C1506.31371,757 1509,759.686292 1509,763 L1509,797 C1509,800.313708 1506.31371,803 1503,803 L1483,803 C1479.68629,803 1477,800.313708 1477,797 L1477,763 C1477,759.686292 1479.68629,757 1483,757 Z M1493,799.5 C1491.067,799.5 1489.5,797.932997 1489.5,796 C1489.5,794.067003 1491.067,792.5 1493,792.5 C1494.933,792.5 1496.5,794.067003 1496.5,796 C1496.5,797.932997 1494.933,799.5 1493,799.5 Z M1493,798.5 C1494.38071,798.5 1495.5,797.380712 1495.5,796 C1495.5,794.619288 1494.38071,793.5 1493,793.5 C1491.61929,793.5 1490.5,794.619288 1490.5,796 C1490.5,797.380712 1491.61929,798.5 1493,798.5 Z M1485.5,767 L1497.5,767 C1497.77614,767 1498,767.223858 1498,767.5 C1498,767.776142 1497.77614,768 1497.5,768 L1485.5,768 C1485.22386,768 1485,767.776142 1485,767.5 C1485,767.223858 1485.22386,767 1485.5,767 Z M1485.5,772 L1493.5,772 C1493.77614,772 1494,772.223858 1494,772.5 C1494,772.776142 1493.77614,773 1493.5,773 L1485.5,773 C1485.22386,773 1485,772.776142 1485,772.5 C1485,772.223858 1485.22386,772 1485.5,772 Z M1493.15685,782.106602 L1502.11701,773.146447 C1502.31227,772.951184 1502.62885,772.951184 1502.82412,773.146447 C1503.01938,773.341709 1503.01938,773.658291 1502.82412,773.853553 L1493.51041,783.167262 C1493.31515,783.362524 1492.99856,783.362524 1492.8033,783.167262 L1489.14645,779.510408 C1488.95118,779.315145 1488.95118,778.998563 1489.14645,778.803301 C1489.34171,778.608039 1489.65829,778.608039 1489.85355,778.803301 L1493.15685,782.106602 Z M1128,834 C1125.23858,834 1123,836.238576 1123,839 L1123,873 C1123,875.761424 1125.23858,878 1128,878 L1148,878 C1150.76142,878 1153,875.761424 1153,873 L1153,839 C1153,836.238576 1150.76142,834 1148,834 L1128,834 Z M1128,833 L1148,833 C1151.31371,833 1154,835.686292 1154,839 L1154,873 C1154,876.313708 1151.31371,879 1148,879 L1128,879 C1124.68629,879 1122,876.313708 1122,873 L1122,839 C1122,835.686292 1124.68629,833 1128,833 Z M1138,875.5 C1136.067,875.5 1134.5,873.932997 1134.5,872 C1134.5,870.067003 1136.067,868.5 1138,868.5 C1139.933,868.5 1141.5,870.067003 1141.5,872 C1141.5,873.932997 1139.933,875.5 1138,875.5 Z M1138,874.5 C1139.38071,874.5 1140.5,873.380712 1140.5,872 C1140.5,870.619288 1139.38071,869.5 1138,869.5 C1136.61929,869.5 1135.5,870.619288 1135.5,872 C1135.5,873.380712 1136.61929,874.5 1138,874.5 Z M1130.5,843 L1142.5,843 C1142.77614,843 1143,843.223858 1143,843.5 C1143,843.776142 1142.77614,844 1142.5,844 L1130.5,844 C1130.22386,844 1130,843.776142 1130,843.5 C1130,843.223858 1130.22386,843 1130.5,843 Z M1130.5,848 L1138.5,848 C1138.77614,848 1139,848.223858 1139,848.5 C1139,848.776142 1138.77614,849 1138.5,849 L1130.5,849 C1130.22386,849 1130,848.776142 1130,848.5 C1130,848.223858 1130.22386,848 1130.5,848 Z M1138.15685,858.106602 L1147.11701,849.146447 C1147.31227,848.951184 1147.62885,848.951184 1147.82412,849.146447 C1148.01938,849.341709 1148.01938,849.658291 1147.82412,849.853553 L1138.51041,859.167262 C1138.31515,859.362524 1137.99856,859.362524 1137.8033,859.167262 L1134.14645,855.510408 C1133.95118,855.315145 1133.95118,854.998563 1134.14645,854.803301 C1134.34171,854.608039 1134.65829,854.608039 1134.85355,854.803301 L1138.15685,858.106602 Z M1270,834 C1267.23858,834 1265,836.238576 1265,839 L1265,873 C1265,875.761424 1267.23858,878 1270,878 L1290,878 C1292.76142,878 1295,875.761424 1295,873 L1295,839 C1295,836.238576 1292.76142,834 1290,834 L1270,834 Z M1270,833 L1290,833 C1293.31371,833 1296,835.686292 1296,839 L1296,873 C1296,876.313708 1293.31371,879 1290,879 L1270,879 C1266.68629,879 1264,876.313708 1264,873 L1264,839 C1264,835.686292 1266.68629,833 1270,833 Z M1280,875.5 C1278.067,875.5 1276.5,873.932997 1276.5,872 C1276.5,870.067003 1278.067,868.5 1280,868.5 C1281.933,868.5 1283.5,870.067003 1283.5,872 C1283.5,873.932997 1281.933,875.5 1280,875.5 Z M1280,874.5 C1281.38071,874.5 1282.5,873.380712 1282.5,872 C1282.5,870.619288 1281.38071,869.5 1280,869.5 C1278.61929,869.5 1277.5,870.619288 1277.5,872 C1277.5,873.380712 1278.61929,874.5 1280,874.5 Z M1272.5,843 L1284.5,843 C1284.77614,843 1285,843.223858 1285,843.5 C1285,843.776142 1284.77614,844 1284.5,844 L1272.5,844 C1272.22386,844 1272,843.776142 1272,843.5 C1272,843.223858 1272.22386,843 1272.5,843 Z M1272.5,848 L1280.5,848 C1280.77614,848 1281,848.223858 1281,848.5 C1281,848.776142 1280.77614,849 1280.5,849 L1272.5,849 C1272.22386,849 1272,848.776142 1272,848.5 C1272,848.223858 1272.22386,848 1272.5,848 Z M1280.15685,858.106602 L1289.11701,849.146447 C1289.31227,848.951184 1289.62885,848.951184 1289.82412,849.146447 C1290.01938,849.341709 1290.01938,849.658291 1289.82412,849.853553 L1280.51041,859.167262 C1280.31515,859.362524 1279.99856,859.362524 1279.8033,859.167262 L1276.14645,855.510408 C1275.95118,855.315145 1275.95118,854.998563 1276.14645,854.803301 C1276.34171,854.608039 1276.65829,854.608039 1276.85355,854.803301 L1280.15685,858.106602 Z M1412,834 C1409.23858,834 1407,836.238576 1407,839 L1407,873 C1407,875.761424 1409.23858,878 1412,878 L1432,878 C1434.76142,878 1437,875.761424 1437,873 L1437,839 C1437,836.238576 1434.76142,834 1432,834 L1412,834 Z M1412,833 L1432,833 C1435.31371,833 1438,835.686292 1438,839 L1438,873 C1438,876.313708 1435.31371,879 1432,879 L1412,879 C1408.68629,879 1406,876.313708 1406,873 L1406,839 C1406,835.686292 1408.68629,833 1412,833 Z M1422,875.5 C1420.067,875.5 1418.5,873.932997 1418.5,872 C1418.5,870.067003 1420.067,868.5 1422,868.5 C1423.933,868.5 1425.5,870.067003 1425.5,872 C1425.5,873.932997 1423.933,875.5 1422,875.5 Z M1422,874.5 C1423.38071,874.5 1424.5,873.380712 1424.5,872 C1424.5,870.619288 1423.38071,869.5 1422,869.5 C1420.61929,869.5 1419.5,870.619288 1419.5,872 C1419.5,873.380712 1420.61929,874.5 1422,874.5 Z M1414.5,843 L1426.5,843 C1426.77614,843 1427,843.223858 1427,843.5 C1427,843.776142 1426.77614,844 1426.5,844 L1414.5,844 C1414.22386,844 1414,843.776142 1414,843.5 C1414,843.223858 1414.22386,843 1414.5,843 Z M1414.5,848 L1422.5,848 C1422.77614,848 1423,848.223858 1423,848.5 C1423,848.776142 1422.77614,849 1422.5,849 L1414.5,849 C1414.22386,849 1414,848.776142 1414,848.5 C1414,848.223858 1414.22386,848 1414.5,848 Z M1422.15685,858.106602 L1431.11701,849.146447 C1431.31227,848.951184 1431.62885,848.951184 1431.82412,849.146447 C1432.01938,849.341709 1432.01938,849.658291 1431.82412,849.853553 L1422.51041,859.167262 C1422.31515,859.362524 1421.99856,859.362524 1421.8033,859.167262 L1418.14645,855.510408 C1417.95118,855.315145 1417.95118,854.998563 1418.14645,854.803301 C1418.34171,854.608039 1418.65829,854.608039 1418.85355,854.803301 L1422.15685,858.106602 Z M1057,910 C1054.23858,910 1052,912.238576 1052,915 L1052,949 C1052,951.761424 1054.23858,954 1057,954 L1077,954 C1079.76142,954 1082,951.761424 1082,949 L1082,915 C1082,912.238576 1079.76142,910 1077,910 L1057,910 Z M1057,909 L1077,909 C1080.31371,909 1083,911.686292 1083,915 L1083,949 C1083,952.313708 1080.31371,955 1077,955 L1057,955 C1053.68629,955 1051,952.313708 1051,949 L1051,915 C1051,911.686292 1053.68629,909 1057,909 Z M1067,951.5 C1065.067,951.5 1063.5,949.932997 1063.5,948 C1063.5,946.067003 1065.067,944.5 1067,944.5 C1068.933,944.5 1070.5,946.067003 1070.5,948 C1070.5,949.932997 1068.933,951.5 1067,951.5 Z M1067,950.5 C1068.38071,950.5 1069.5,949.380712 1069.5,948 C1069.5,946.619288 1068.38071,945.5 1067,945.5 C1065.61929,945.5 1064.5,946.619288 1064.5,948 C1064.5,949.380712 1065.61929,950.5 1067,950.5 Z M1059.5,919 L1071.5,919 C1071.77614,919 1072,919.223858 1072,919.5 C1072,919.776142 1071.77614,920 1071.5,920 L1059.5,920 C1059.22386,920 1059,919.776142 1059,919.5 C1059,919.223858 1059.22386,919 1059.5,919 Z M1059.5,924 L1067.5,924 C1067.77614,924 1068,924.223858 1068,924.5 C1068,924.776142 1067.77614,925 1067.5,925 L1059.5,925 C1059.22386,925 1059,924.776142 1059,924.5 C1059,924.223858 1059.22386,924 1059.5,924 Z M1067.15685,934.106602 L1076.11701,925.146447 C1076.31227,924.951184 1076.62885,924.951184 1076.82412,925.146447 C1077.01938,925.341709 1077.01938,925.658291 1076.82412,925.853553 L1067.51041,935.167262 C1067.31515,935.362524 1066.99856,935.362524 1066.8033,935.167262 L1063.14645,931.510408 C1062.95118,931.315145 1062.95118,930.998563 1063.14645,930.803301 C1063.34171,930.608039 1063.65829,930.608039 1063.85355,930.803301 L1067.15685,934.106602 Z M1199,910 C1196.23858,910 1194,912.238576 1194,915 L1194,949 C1194,951.761424 1196.23858,954 1199,954 L1219,954 C1221.76142,954 1224,951.761424 1224,949 L1224,915 C1224,912.238576 1221.76142,910 1219,910 L1199,910 Z M1199,909 L1219,909 C1222.31371,909 1225,911.686292 1225,915 L1225,949 C1225,952.313708 1222.31371,955 1219,955 L1199,955 C1195.68629,955 1193,952.313708 1193,949 L1193,915 C1193,911.686292 1195.68629,909 1199,909 Z M1209,951.5 C1207.067,951.5 1205.5,949.932997 1205.5,948 C1205.5,946.067003 1207.067,944.5 1209,944.5 C1210.933,944.5 1212.5,946.067003 1212.5,948 C1212.5,949.932997 1210.933,951.5 1209,951.5 Z M1209,950.5 C1210.38071,950.5 1211.5,949.380712 1211.5,948 C1211.5,946.619288 1210.38071,945.5 1209,945.5 C1207.61929,945.5 1206.5,946.619288 1206.5,948 C1206.5,949.380712 1207.61929,950.5 1209,950.5 Z M1201.5,919 L1213.5,919 C1213.77614,919 1214,919.223858 1214,919.5 C1214,919.776142 1213.77614,920 1213.5,920 L1201.5,920 C1201.22386,920 1201,919.776142 1201,919.5 C1201,919.223858 1201.22386,919 1201.5,919 Z M1201.5,924 L1209.5,924 C1209.77614,924 1210,924.223858 1210,924.5 C1210,924.776142 1209.77614,925 1209.5,925 L1201.5,925 C1201.22386,925 1201,924.776142 1201,924.5 C1201,924.223858 1201.22386,924 1201.5,924 Z M1209.15685,934.106602 L1218.11701,925.146447 C1218.31227,924.951184 1218.62885,924.951184 1218.82412,925.146447 C1219.01938,925.341709 1219.01938,925.658291 1218.82412,925.853553 L1209.51041,935.167262 C1209.31515,935.362524 1208.99856,935.362524 1208.8033,935.167262 L1205.14645,931.510408 C1204.95118,931.315145 1204.95118,930.998563 1205.14645,930.803301 C1205.34171,930.608039 1205.65829,930.608039 1205.85355,930.803301 L1209.15685,934.106602 Z M1341,910 C1338.23858,910 1336,912.238576 1336,915 L1336,949 C1336,951.761424 1338.23858,954 1341,954 L1361,954 C1363.76142,954 1366,951.761424 1366,949 L1366,915 C1366,912.238576 1363.76142,910 1361,910 L1341,910 Z M1341,909 L1361,909 C1364.31371,909 1367,911.686292 1367,915 L1367,949 C1367,952.313708 1364.31371,955 1361,955 L1341,955 C1337.68629,955 1335,952.313708 1335,949 L1335,915 C1335,911.686292 1337.68629,909 1341,909 Z M1351,951.5 C1349.067,951.5 1347.5,949.932997 1347.5,948 C1347.5,946.067003 1349.067,944.5 1351,944.5 C1352.933,944.5 1354.5,946.067003 1354.5,948 C1354.5,949.932997 1352.933,951.5 1351,951.5 Z M1351,950.5 C1352.38071,950.5 1353.5,949.380712 1353.5,948 C1353.5,946.619288 1352.38071,945.5 1351,945.5 C1349.61929,945.5 1348.5,946.619288 1348.5,948 C1348.5,949.380712 1349.61929,950.5 1351,950.5 Z M1343.5,919 L1355.5,919 C1355.77614,919 1356,919.223858 1356,919.5 C1356,919.776142 1355.77614,920 1355.5,920 L1343.5,920 C1343.22386,920 1343,919.776142 1343,919.5 C1343,919.223858 1343.22386,919 1343.5,919 Z M1343.5,924 L1351.5,924 C1351.77614,924 1352,924.223858 1352,924.5 C1352,924.776142 1351.77614,925 1351.5,925 L1343.5,925 C1343.22386,925 1343,924.776142 1343,924.5 C1343,924.223858 1343.22386,924 1343.5,924 Z M1351.15685,934.106602 L1360.11701,925.146447 C1360.31227,924.951184 1360.62885,924.951184 1360.82412,925.146447 C1361.01938,925.341709 1361.01938,925.658291 1360.82412,925.853553 L1351.51041,935.167262 C1351.31515,935.362524 1350.99856,935.362524 1350.8033,935.167262 L1347.14645,931.510408 C1346.95118,931.315145 1346.95118,930.998563 1347.14645,930.803301 C1347.34171,930.608039 1347.65829,930.608039 1347.85355,930.803301 L1351.15685,934.106602 Z" id="dps-m—pattern"></path>
        </g>
    </g>
</svg>
