<svg width="600px" height="350px" viewBox="0 0 600 350" version="1.1" xmlns="http://www.w3.org/2000/svg" xmlns:xlink="http://www.w3.org/1999/xlink">
    <g id="UI" stroke="none" stroke-width="1" fill="none" fill-rule="evenodd">
        <g id="Apple-TV-Copy-3" transform="translate(-258.000000, -605.000000)" fill="#FFFFFF" fill-rule="nonzero">
            <path d="M284,919 L284,923 L264,923 L264,919 C261.238576,919 259,921.238576 259,924 L259,949 C259,951.761424 261.238576,954 264,954 L284,954 C286.761424,954 289,951.761424 289,949 L289,924 C289,921.238576 286.761424,919 284,919 Z M265,918 L265,922 L283,922 L283,918 L283,910.620682 L279.943172,912.154688 L277.017225,910.201381 L274.005863,912.201127 L271.006263,910.201419 L268.071118,912.153638 L265,910.618048 L265,918 Z M284,918 C287.313708,918 290,920.686292 290,924 L290,949 C290,952.313708 287.313708,955 284,955 L264,955 C260.686292,955 258,952.313708 258,949 L258,924 C258,920.686292 260.686292,918 264,918 L264,909 L267.999921,911 L271.006904,909 L274.006942,911 L277.018687,909 L280.01458,911 L284,909 L284,918 Z M266,927 C265.447715,927 265,927.447715 265,928 L265,931 C265,931.552285 265.447715,932 266,932 L282,932 C282.552285,932 283,931.552285 283,931 L283,928 C283,927.447715 282.552285,927 282,927 L266,927 Z M266,926 L282,926 C283.104569,926 284,926.895431 284,928 L284,931 C284,932.104569 283.104569,933 282,933 L266,933 C264.895431,933 264,932.104569 264,931 L264,928 C264,926.895431 264.895431,926 266,926 Z M266,936 C265.447715,936 265,936.447715 265,937 L265,939 C265,939.552285 265.447715,940 266,940 L268,940 C268.552285,940 269,939.552285 269,939 L269,937 C269,936.447715 268.552285,936 268,936 L266,936 Z M266,935 L268,935 C269.104569,935 270,935.895431 270,937 L270,939 C270,940.104569 269.104569,941 268,941 L266,941 C264.895431,941 264,940.104569 264,939 L264,937 C264,935.895431 264.895431,935 266,935 Z M273,936 C272.447715,936 272,936.447715 272,937 L272,939 C272,939.552285 272.447715,940 273,940 L275,940 C275.552285,940 276,939.552285 276,939 L276,937 C276,936.447715 275.552285,936 275,936 L273,936 Z M273,935 L275,935 C276.104569,935 277,935.895431 277,937 L277,939 C277,940.104569 276.104569,941 275,941 L273,941 C271.895431,941 271,940.104569 271,939 L271,937 C271,935.895431 271.895431,935 273,935 Z M280,936 C279.447715,936 279,936.447715 279,937 L279,939 C279,939.552285 279.447715,940 280,940 L282,940 C282.552285,940 283,939.552285 283,939 L283,937 C283,936.447715 282.552285,936 282,936 L280,936 Z M280,935 L282,935 C283.104569,935 284,935.895431 284,937 L284,939 C284,940.104569 283.104569,941 282,941 L280,941 C278.895431,941 278,940.104569 278,939 L278,937 C278,935.895431 278.895431,935 280,935 Z M266,943 C265.447715,943 265,943.447715 265,944 L265,946 C265,946.552285 265.447715,947 266,947 L268,947 C268.552285,947 269,946.552285 269,946 L269,944 C269,943.447715 268.552285,943 268,943 L266,943 Z M266,942 L268,942 C269.104569,942 270,942.895431 270,944 L270,946 C270,947.104569 269.104569,948 268,948 L266,948 C264.895431,948 264,947.104569 264,946 L264,944 C264,942.895431 264.895431,942 266,942 Z M273,943 C272.447715,943 272,943.447715 272,944 L272,946 C272,946.552285 272.447715,947 273,947 L275,947 C275.552285,947 276,946.552285 276,946 L276,944 C276,943.447715 275.552285,943 275,943 L273,943 Z M273,942 L275,942 C276.104569,942 277,942.895431 277,944 L277,946 C277,947.104569 276.104569,948 275,948 L273,948 C271.895431,948 271,947.104569 271,946 L271,944 C271,942.895431 271.895431,942 273,942 Z M280,943 C279.447715,943 279,943.447715 279,944 L279,946 C279,946.552285 279.447715,947 280,947 L282,947 C282.552285,947 283,946.552285 283,946 L283,944 C283,943.447715 282.552285,943 282,943 L280,943 Z M280,942 L282,942 C283.104569,942 284,942.895431 284,944 L284,946 C284,947.104569 283.104569,948 282,948 L280,948 C278.895431,948 278,947.104569 278,946 L278,944 C278,942.895431 278.895431,942 280,942 Z M355,843 L355,847 L335,847 L335,843 C332.238576,843 330,845.238576 330,848 L330,873 C330,875.761424 332.238576,878 335,878 L355,878 C357.761424,878 360,875.761424 360,873 L360,848 C360,845.238576 357.761424,843 355,843 Z M336,842 L336,846 L354,846 L354,842 L354,834.620682 L350.943172,836.154688 L348.017225,834.201381 L345.005863,836.201127 L342.006263,834.201419 L339.071118,836.153638 L336,834.618048 L336,842 Z M355,842 C358.313708,842 361,844.686292 361,848 L361,873 C361,876.313708 358.313708,879 355,879 L335,879 C331.686292,879 329,876.313708 329,873 L329,848 C329,844.686292 331.686292,842 335,842 L335,833 L338.999921,835 L342.006904,833 L345.006942,835 L348.018687,833 L351.01458,835 L355,833 L355,842 Z M337,851 C336.447715,851 336,851.447715 336,852 L336,855 C336,855.552285 336.447715,856 337,856 L353,856 C353.552285,856 354,855.552285 354,855 L354,852 C354,851.447715 353.552285,851 353,851 L337,851 Z M337,850 L353,850 C354.104569,850 355,850.895431 355,852 L355,855 C355,856.104569 354.104569,857 353,857 L337,857 C335.895431,857 335,856.104569 335,855 L335,852 C335,850.895431 335.895431,850 337,850 Z M337,860 C336.447715,860 336,860.447715 336,861 L336,863 C336,863.552285 336.447715,864 337,864 L339,864 C339.552285,864 340,863.552285 340,863 L340,861 C340,860.447715 339.552285,860 339,860 L337,860 Z M337,859 L339,859 C340.104569,859 341,859.895431 341,861 L341,863 C341,864.104569 340.104569,865 339,865 L337,865 C335.895431,865 335,864.104569 335,863 L335,861 C335,859.895431 335.895431,859 337,859 Z M344,860 C343.447715,860 343,860.447715 343,861 L343,863 C343,863.552285 343.447715,864 344,864 L346,864 C346.552285,864 347,863.552285 347,863 L347,861 C347,860.447715 346.552285,860 346,860 L344,860 Z M344,859 L346,859 C347.104569,859 348,859.895431 348,861 L348,863 C348,864.104569 347.104569,865 346,865 L344,865 C342.895431,865 342,864.104569 342,863 L342,861 C342,859.895431 342.895431,859 344,859 Z M351,860 C350.447715,860 350,860.447715 350,861 L350,863 C350,863.552285 350.447715,864 351,864 L353,864 C353.552285,864 354,863.552285 354,863 L354,861 C354,860.447715 353.552285,860 353,860 L351,860 Z M351,859 L353,859 C354.104569,859 355,859.895431 355,861 L355,863 C355,864.104569 354.104569,865 353,865 L351,865 C349.895431,865 349,864.104569 349,863 L349,861 C349,859.895431 349.895431,859 351,859 Z M337,867 C336.447715,867 336,867.447715 336,868 L336,870 C336,870.552285 336.447715,871 337,871 L339,871 C339.552285,871 340,870.552285 340,870 L340,868 C340,867.447715 339.552285,867 339,867 L337,867 Z M337,866 L339,866 C340.104569,866 341,866.895431 341,868 L341,870 C341,871.104569 340.104569,872 339,872 L337,872 C335.895431,872 335,871.104569 335,870 L335,868 C335,866.895431 335.895431,866 337,866 Z M344,867 C343.447715,867 343,867.447715 343,868 L343,870 C343,870.552285 343.447715,871 344,871 L346,871 C346.552285,871 347,870.552285 347,870 L347,868 C347,867.447715 346.552285,867 346,867 L344,867 Z M344,866 L346,866 C347.104569,866 348,866.895431 348,868 L348,870 C348,871.104569 347.104569,872 346,872 L344,872 C342.895431,872 342,871.104569 342,870 L342,868 C342,866.895431 342.895431,866 344,866 Z M351,867 C350.447715,867 350,867.447715 350,868 L350,870 C350,870.552285 350.447715,871 351,871 L353,871 C353.552285,871 354,870.552285 354,870 L354,868 C354,867.447715 353.552285,867 353,867 L351,867 Z M351,866 L353,866 C354.104569,866 355,866.895431 355,868 L355,870 C355,871.104569 354.104569,872 353,872 L351,872 C349.895431,872 349,871.104569 349,870 L349,868 C349,866.895431 349.895431,866 351,866 Z M426,919 L426,923 L406,923 L406,919 C403.238576,919 401,921.238576 401,924 L401,949 C401,951.761424 403.238576,954 406,954 L426,954 C428.761424,954 431,951.761424 431,949 L431,924 C431,921.238576 428.761424,919 426,919 Z M407,918 L407,922 L425,922 L425,918 L425,910.620682 L421.943172,912.154688 L419.017225,910.201381 L416.005863,912.201127 L413.006263,910.201419 L410.071118,912.153638 L407,910.618048 L407,918 Z M426,918 C429.313708,918 432,920.686292 432,924 L432,949 C432,952.313708 429.313708,955 426,955 L406,955 C402.686292,955 400,952.313708 400,949 L400,924 C400,920.686292 402.686292,918 406,918 L406,909 L409.999921,911 L413.006904,909 L416.006942,911 L419.018687,909 L422.01458,911 L426,909 L426,918 Z M408,927 C407.447715,927 407,927.447715 407,928 L407,931 C407,931.552285 407.447715,932 408,932 L424,932 C424.552285,932 425,931.552285 425,931 L425,928 C425,927.447715 424.552285,927 424,927 L408,927 Z M408,926 L424,926 C425.104569,926 426,926.895431 426,928 L426,931 C426,932.104569 425.104569,933 424,933 L408,933 C406.895431,933 406,932.104569 406,931 L406,928 C406,926.895431 406.895431,926 408,926 Z M408,936 C407.447715,936 407,936.447715 407,937 L407,939 C407,939.552285 407.447715,940 408,940 L410,940 C410.552285,940 411,939.552285 411,939 L411,937 C411,936.447715 410.552285,936 410,936 L408,936 Z M408,935 L410,935 C411.104569,935 412,935.895431 412,937 L412,939 C412,940.104569 411.104569,941 410,941 L408,941 C406.895431,941 406,940.104569 406,939 L406,937 C406,935.895431 406.895431,935 408,935 Z M415,936 C414.447715,936 414,936.447715 414,937 L414,939 C414,939.552285 414.447715,940 415,940 L417,940 C417.552285,940 418,939.552285 418,939 L418,937 C418,936.447715 417.552285,936 417,936 L415,936 Z M415,935 L417,935 C418.104569,935 419,935.895431 419,937 L419,939 C419,940.104569 418.104569,941 417,941 L415,941 C413.895431,941 413,940.104569 413,939 L413,937 C413,935.895431 413.895431,935 415,935 Z M422,936 C421.447715,936 421,936.447715 421,937 L421,939 C421,939.552285 421.447715,940 422,940 L424,940 C424.552285,940 425,939.552285 425,939 L425,937 C425,936.447715 424.552285,936 424,936 L422,936 Z M422,935 L424,935 C425.104569,935 426,935.895431 426,937 L426,939 C426,940.104569 425.104569,941 424,941 L422,941 C420.895431,941 420,940.104569 420,939 L420,937 C420,935.895431 420.895431,935 422,935 Z M408,943 C407.447715,943 407,943.447715 407,944 L407,946 C407,946.552285 407.447715,947 408,947 L410,947 C410.552285,947 411,946.552285 411,946 L411,944 C411,943.447715 410.552285,943 410,943 L408,943 Z M408,942 L410,942 C411.104569,942 412,942.895431 412,944 L412,946 C412,947.104569 411.104569,948 410,948 L408,948 C406.895431,948 406,947.104569 406,946 L406,944 C406,942.895431 406.895431,942 408,942 Z M415,943 C414.447715,943 414,943.447715 414,944 L414,946 C414,946.552285 414.447715,947 415,947 L417,947 C417.552285,947 418,946.552285 418,946 L418,944 C418,943.447715 417.552285,943 417,943 L415,943 Z M415,942 L417,942 C418.104569,942 419,942.895431 419,944 L419,946 C419,947.104569 418.104569,948 417,948 L415,948 C413.895431,948 413,947.104569 413,946 L413,944 C413,942.895431 413.895431,942 415,942 Z M422,943 C421.447715,943 421,943.447715 421,944 L421,946 C421,946.552285 421.447715,947 422,947 L424,947 C424.552285,947 425,946.552285 425,946 L425,944 C425,943.447715 424.552285,943 424,943 L422,943 Z M422,942 L424,942 C425.104569,942 426,942.895431 426,944 L426,946 C426,947.104569 425.104569,948 424,948 L422,948 C420.895431,948 420,947.104569 420,946 L420,944 C420,942.895431 420.895431,942 422,942 Z M497,843 L497,847 L477,847 L477,843 C474.238576,843 472,845.238576 472,848 L472,873 C472,875.761424 474.238576,878 477,878 L497,878 C499.761424,878 502,875.761424 502,873 L502,848 C502,845.238576 499.761424,843 497,843 Z M478,842 L478,846 L496,846 L496,842 L496,834.620682 L492.943172,836.154688 L490.017225,834.201381 L487.005863,836.201127 L484.006263,834.201419 L481.071118,836.153638 L478,834.618048 L478,842 Z M497,842 C500.313708,842 503,844.686292 503,848 L503,873 C503,876.313708 500.313708,879 497,879 L477,879 C473.686292,879 471,876.313708 471,873 L471,848 C471,844.686292 473.686292,842 477,842 L477,833 L480.999921,835 L484.006904,833 L487.006942,835 L490.018687,833 L493.01458,835 L497,833 L497,842 Z M479,851 C478.447715,851 478,851.447715 478,852 L478,855 C478,855.552285 478.447715,856 479,856 L495,856 C495.552285,856 496,855.552285 496,855 L496,852 C496,851.447715 495.552285,851 495,851 L479,851 Z M479,850 L495,850 C496.104569,850 497,850.895431 497,852 L497,855 C497,856.104569 496.104569,857 495,857 L479,857 C477.895431,857 477,856.104569 477,855 L477,852 C477,850.895431 477.895431,850 479,850 Z M479,860 C478.447715,860 478,860.447715 478,861 L478,863 C478,863.552285 478.447715,864 479,864 L481,864 C481.552285,864 482,863.552285 482,863 L482,861 C482,860.447715 481.552285,860 481,860 L479,860 Z M479,859 L481,859 C482.104569,859 483,859.895431 483,861 L483,863 C483,864.104569 482.104569,865 481,865 L479,865 C477.895431,865 477,864.104569 477,863 L477,861 C477,859.895431 477.895431,859 479,859 Z M486,860 C485.447715,860 485,860.447715 485,861 L485,863 C485,863.552285 485.447715,864 486,864 L488,864 C488.552285,864 489,863.552285 489,863 L489,861 C489,860.447715 488.552285,860 488,860 L486,860 Z M486,859 L488,859 C489.104569,859 490,859.895431 490,861 L490,863 C490,864.104569 489.104569,865 488,865 L486,865 C484.895431,865 484,864.104569 484,863 L484,861 C484,859.895431 484.895431,859 486,859 Z M493,860 C492.447715,860 492,860.447715 492,861 L492,863 C492,863.552285 492.447715,864 493,864 L495,864 C495.552285,864 496,863.552285 496,863 L496,861 C496,860.447715 495.552285,860 495,860 L493,860 Z M493,859 L495,859 C496.104569,859 497,859.895431 497,861 L497,863 C497,864.104569 496.104569,865 495,865 L493,865 C491.895431,865 491,864.104569 491,863 L491,861 C491,859.895431 491.895431,859 493,859 Z M479,867 C478.447715,867 478,867.447715 478,868 L478,870 C478,870.552285 478.447715,871 479,871 L481,871 C481.552285,871 482,870.552285 482,870 L482,868 C482,867.447715 481.552285,867 481,867 L479,867 Z M479,866 L481,866 C482.104569,866 483,866.895431 483,868 L483,870 C483,871.104569 482.104569,872 481,872 L479,872 C477.895431,872 477,871.104569 477,870 L477,868 C477,866.895431 477.895431,866 479,866 Z M486,867 C485.447715,867 485,867.447715 485,868 L485,870 C485,870.552285 485.447715,871 486,871 L488,871 C488.552285,871 489,870.552285 489,870 L489,868 C489,867.447715 488.552285,867 488,867 L486,867 Z M486,866 L488,866 C489.104569,866 490,866.895431 490,868 L490,870 C490,871.104569 489.104569,872 488,872 L486,872 C484.895431,872 484,871.104569 484,870 L484,868 C484,866.895431 484.895431,866 486,866 Z M493,867 C492.447715,867 492,867.447715 492,868 L492,870 C492,870.552285 492.447715,871 493,871 L495,871 C495.552285,871 496,870.552285 496,870 L496,868 C496,867.447715 495.552285,867 495,867 L493,867 Z M493,866 L495,866 C496.104569,866 497,866.895431 497,868 L497,870 C497,871.104569 496.104569,872 495,872 L493,872 C491.895431,872 491,871.104569 491,870 L491,868 C491,866.895431 491.895431,866 493,866 Z M568,919 L568,923 L548,923 L548,919 C545.238576,919 543,921.238576 543,924 L543,949 C543,951.761424 545.238576,954 548,954 L568,954 C570.761424,954 573,951.761424 573,949 L573,924 C573,921.238576 570.761424,919 568,919 Z M549,918 L549,922 L567,922 L567,918 L567,910.620682 L563.943172,912.154688 L561.017225,910.201381 L558.005863,912.201127 L555.006263,910.201419 L552.071118,912.153638 L549,910.618048 L549,918 Z M568,918 C571.313708,918 574,920.686292 574,924 L574,949 C574,952.313708 571.313708,955 568,955 L548,955 C544.686292,955 542,952.313708 542,949 L542,924 C542,920.686292 544.686292,918 548,918 L548,909 L551.999921,911 L555.006904,909 L558.006942,911 L561.018687,909 L564.01458,911 L568,909 L568,918 Z M550,927 C549.447715,927 549,927.447715 549,928 L549,931 C549,931.552285 549.447715,932 550,932 L566,932 C566.552285,932 567,931.552285 567,931 L567,928 C567,927.447715 566.552285,927 566,927 L550,927 Z M550,926 L566,926 C567.104569,926 568,926.895431 568,928 L568,931 C568,932.104569 567.104569,933 566,933 L550,933 C548.895431,933 548,932.104569 548,931 L548,928 C548,926.895431 548.895431,926 550,926 Z M550,936 C549.447715,936 549,936.447715 549,937 L549,939 C549,939.552285 549.447715,940 550,940 L552,940 C552.552285,940 553,939.552285 553,939 L553,937 C553,936.447715 552.552285,936 552,936 L550,936 Z M550,935 L552,935 C553.104569,935 554,935.895431 554,937 L554,939 C554,940.104569 553.104569,941 552,941 L550,941 C548.895431,941 548,940.104569 548,939 L548,937 C548,935.895431 548.895431,935 550,935 Z M557,936 C556.447715,936 556,936.447715 556,937 L556,939 C556,939.552285 556.447715,940 557,940 L559,940 C559.552285,940 560,939.552285 560,939 L560,937 C560,936.447715 559.552285,936 559,936 L557,936 Z M557,935 L559,935 C560.104569,935 561,935.895431 561,937 L561,939 C561,940.104569 560.104569,941 559,941 L557,941 C555.895431,941 555,940.104569 555,939 L555,937 C555,935.895431 555.895431,935 557,935 Z M564,936 C563.447715,936 563,936.447715 563,937 L563,939 C563,939.552285 563.447715,940 564,940 L566,940 C566.552285,940 567,939.552285 567,939 L567,937 C567,936.447715 566.552285,936 566,936 L564,936 Z M564,935 L566,935 C567.104569,935 568,935.895431 568,937 L568,939 C568,940.104569 567.104569,941 566,941 L564,941 C562.895431,941 562,940.104569 562,939 L562,937 C562,935.895431 562.895431,935 564,935 Z M550,943 C549.447715,943 549,943.447715 549,944 L549,946 C549,946.552285 549.447715,947 550,947 L552,947 C552.552285,947 553,946.552285 553,946 L553,944 C553,943.447715 552.552285,943 552,943 L550,943 Z M550,942 L552,942 C553.104569,942 554,942.895431 554,944 L554,946 C554,947.104569 553.104569,948 552,948 L550,948 C548.895431,948 548,947.104569 548,946 L548,944 C548,942.895431 548.895431,942 550,942 Z M557,943 C556.447715,943 556,943.447715 556,944 L556,946 C556,946.552285 556.447715,947 557,947 L559,947 C559.552285,947 560,946.552285 560,946 L560,944 C560,943.447715 559.552285,943 559,943 L557,943 Z M557,942 L559,942 C560.104569,942 561,942.895431 561,944 L561,946 C561,947.104569 560.104569,948 559,948 L557,948 C555.895431,948 555,947.104569 555,946 L555,944 C555,942.895431 555.895431,942 557,942 Z M564,943 C563.447715,943 563,943.447715 563,944 L563,946 C563,946.552285 563.447715,947 564,947 L566,947 C566.552285,947 567,946.552285 567,946 L567,944 C567,943.447715 566.552285,943 566,943 L564,943 Z M564,942 L566,942 C567.104569,942 568,942.895431 568,944 L568,946 C568,947.104569 567.104569,948 566,948 L564,948 C562.895431,948 562,947.104569 562,946 L562,944 C562,942.895431 562.895431,942 564,942 Z M639,843 L639,847 L619,847 L619,843 C616.238576,843 614,845.238576 614,848 L614,873 C614,875.761424 616.238576,878 619,878 L639,878 C641.761424,878 644,875.761424 644,873 L644,848 C644,845.238576 641.761424,843 639,843 Z M620,842 L620,846 L638,846 L638,842 L638,834.620682 L634.943172,836.154688 L632.017225,834.201381 L629.005863,836.201127 L626.006263,834.201419 L623.071118,836.153638 L620,834.618048 L620,842 Z M639,842 C642.313708,842 645,844.686292 645,848 L645,873 C645,876.313708 642.313708,879 639,879 L619,879 C615.686292,879 613,876.313708 613,873 L613,848 C613,844.686292 615.686292,842 619,842 L619,833 L622.999921,835 L626.006904,833 L629.006942,835 L632.018687,833 L635.01458,835 L639,833 L639,842 Z M621,851 C620.447715,851 620,851.447715 620,852 L620,855 C620,855.552285 620.447715,856 621,856 L637,856 C637.552285,856 638,855.552285 638,855 L638,852 C638,851.447715 637.552285,851 637,851 L621,851 Z M621,850 L637,850 C638.104569,850 639,850.895431 639,852 L639,855 C639,856.104569 638.104569,857 637,857 L621,857 C619.895431,857 619,856.104569 619,855 L619,852 C619,850.895431 619.895431,850 621,850 Z M621,860 C620.447715,860 620,860.447715 620,861 L620,863 C620,863.552285 620.447715,864 621,864 L623,864 C623.552285,864 624,863.552285 624,863 L624,861 C624,860.447715 623.552285,860 623,860 L621,860 Z M621,859 L623,859 C624.104569,859 625,859.895431 625,861 L625,863 C625,864.104569 624.104569,865 623,865 L621,865 C619.895431,865 619,864.104569 619,863 L619,861 C619,859.895431 619.895431,859 621,859 Z M628,860 C627.447715,860 627,860.447715 627,861 L627,863 C627,863.552285 627.447715,864 628,864 L630,864 C630.552285,864 631,863.552285 631,863 L631,861 C631,860.447715 630.552285,860 630,860 L628,860 Z M628,859 L630,859 C631.104569,859 632,859.895431 632,861 L632,863 C632,864.104569 631.104569,865 630,865 L628,865 C626.895431,865 626,864.104569 626,863 L626,861 C626,859.895431 626.895431,859 628,859 Z M635,860 C634.447715,860 634,860.447715 634,861 L634,863 C634,863.552285 634.447715,864 635,864 L637,864 C637.552285,864 638,863.552285 638,863 L638,861 C638,860.447715 637.552285,860 637,860 L635,860 Z M635,859 L637,859 C638.104569,859 639,859.895431 639,861 L639,863 C639,864.104569 638.104569,865 637,865 L635,865 C633.895431,865 633,864.104569 633,863 L633,861 C633,859.895431 633.895431,859 635,859 Z M621,867 C620.447715,867 620,867.447715 620,868 L620,870 C620,870.552285 620.447715,871 621,871 L623,871 C623.552285,871 624,870.552285 624,870 L624,868 C624,867.447715 623.552285,867 623,867 L621,867 Z M621,866 L623,866 C624.104569,866 625,866.895431 625,868 L625,870 C625,871.104569 624.104569,872 623,872 L621,872 C619.895431,872 619,871.104569 619,870 L619,868 C619,866.895431 619.895431,866 621,866 Z M628,867 C627.447715,867 627,867.447715 627,868 L627,870 C627,870.552285 627.447715,871 628,871 L630,871 C630.552285,871 631,870.552285 631,870 L631,868 C631,867.447715 630.552285,867 630,867 L628,867 Z M628,866 L630,866 C631.104569,866 632,866.895431 632,868 L632,870 C632,871.104569 631.104569,872 630,872 L628,872 C626.895431,872 626,871.104569 626,870 L626,868 C626,866.895431 626.895431,866 628,866 Z M635,867 C634.447715,867 634,867.447715 634,868 L634,870 C634,870.552285 634.447715,871 635,871 L637,871 C637.552285,871 638,870.552285 638,870 L638,868 C638,867.447715 637.552285,867 637,867 L635,867 Z M635,866 L637,866 C638.104569,866 639,866.895431 639,868 L639,870 C639,871.104569 638.104569,872 637,872 L635,872 C633.895431,872 633,871.104569 633,870 L633,868 C633,866.895431 633.895431,866 635,866 Z M426,767 L426,771 L406,771 L406,767 C403.238576,767 401,769.238576 401,772 L401,797 C401,799.761424 403.238576,802 406,802 L426,802 C428.761424,802 431,799.761424 431,797 L431,772 C431,769.238576 428.761424,767 426,767 Z M407,766 L407,770 L425,770 L425,766 L425,758.620682 L421.943172,760.154688 L419.017225,758.201381 L416.005863,760.201127 L413.006263,758.201419 L410.071118,760.153638 L407,758.618048 L407,766 Z M426,766 C429.313708,766 432,768.686292 432,772 L432,797 C432,800.313708 429.313708,803 426,803 L406,803 C402.686292,803 400,800.313708 400,797 L400,772 C400,768.686292 402.686292,766 406,766 L406,757 L409.999921,759 L413.006904,757 L416.006942,759 L419.018687,757 L422.01458,759 L426,757 L426,766 Z M408,775 C407.447715,775 407,775.447715 407,776 L407,779 C407,779.552285 407.447715,780 408,780 L424,780 C424.552285,780 425,779.552285 425,779 L425,776 C425,775.447715 424.552285,775 424,775 L408,775 Z M408,774 L424,774 C425.104569,774 426,774.895431 426,776 L426,779 C426,780.104569 425.104569,781 424,781 L408,781 C406.895431,781 406,780.104569 406,779 L406,776 C406,774.895431 406.895431,774 408,774 Z M408,784 C407.447715,784 407,784.447715 407,785 L407,787 C407,787.552285 407.447715,788 408,788 L410,788 C410.552285,788 411,787.552285 411,787 L411,785 C411,784.447715 410.552285,784 410,784 L408,784 Z M408,783 L410,783 C411.104569,783 412,783.895431 412,785 L412,787 C412,788.104569 411.104569,789 410,789 L408,789 C406.895431,789 406,788.104569 406,787 L406,785 C406,783.895431 406.895431,783 408,783 Z M415,784 C414.447715,784 414,784.447715 414,785 L414,787 C414,787.552285 414.447715,788 415,788 L417,788 C417.552285,788 418,787.552285 418,787 L418,785 C418,784.447715 417.552285,784 417,784 L415,784 Z M415,783 L417,783 C418.104569,783 419,783.895431 419,785 L419,787 C419,788.104569 418.104569,789 417,789 L415,789 C413.895431,789 413,788.104569 413,787 L413,785 C413,783.895431 413.895431,783 415,783 Z M422,784 C421.447715,784 421,784.447715 421,785 L421,787 C421,787.552285 421.447715,788 422,788 L424,788 C424.552285,788 425,787.552285 425,787 L425,785 C425,784.447715 424.552285,784 424,784 L422,784 Z M422,783 L424,783 C425.104569,783 426,783.895431 426,785 L426,787 C426,788.104569 425.104569,789 424,789 L422,789 C420.895431,789 420,788.104569 420,787 L420,785 C420,783.895431 420.895431,783 422,783 Z M408,791 C407.447715,791 407,791.447715 407,792 L407,794 C407,794.552285 407.447715,795 408,795 L410,795 C410.552285,795 411,794.552285 411,794 L411,792 C411,791.447715 410.552285,791 410,791 L408,791 Z M408,790 L410,790 C411.104569,790 412,790.895431 412,792 L412,794 C412,795.104569 411.104569,796 410,796 L408,796 C406.895431,796 406,795.104569 406,794 L406,792 C406,790.895431 406.895431,790 408,790 Z M415,791 C414.447715,791 414,791.447715 414,792 L414,794 C414,794.552285 414.447715,795 415,795 L417,795 C417.552285,795 418,794.552285 418,794 L418,792 C418,791.447715 417.552285,791 417,791 L415,791 Z M415,790 L417,790 C418.104569,790 419,790.895431 419,792 L419,794 C419,795.104569 418.104569,796 417,796 L415,796 C413.895431,796 413,795.104569 413,794 L413,792 C413,790.895431 413.895431,790 415,790 Z M422,791 C421.447715,791 421,791.447715 421,792 L421,794 C421,794.552285 421.447715,795 422,795 L424,795 C424.552285,795 425,794.552285 425,794 L425,792 C425,791.447715 424.552285,791 424,791 L422,791 Z M422,790 L424,790 C425.104569,790 426,790.895431 426,792 L426,794 C426,795.104569 425.104569,796 424,796 L422,796 C420.895431,796 420,795.104569 420,794 L420,792 C420,790.895431 420.895431,790 422,790 Z M568,767 L568,771 L548,771 L548,767 C545.238576,767 543,769.238576 543,772 L543,797 C543,799.761424 545.238576,802 548,802 L568,802 C570.761424,802 573,799.761424 573,797 L573,772 C573,769.238576 570.761424,767 568,767 Z M549,766 L549,770 L567,770 L567,766 L567,758.620682 L563.943172,760.154688 L561.017225,758.201381 L558.005863,760.201127 L555.006263,758.201419 L552.071118,760.153638 L549,758.618048 L549,766 Z M568,766 C571.313708,766 574,768.686292 574,772 L574,797 C574,800.313708 571.313708,803 568,803 L548,803 C544.686292,803 542,800.313708 542,797 L542,772 C542,768.686292 544.686292,766 548,766 L548,757 L551.999921,759 L555.006904,757 L558.006942,759 L561.018687,757 L564.01458,759 L568,757 L568,766 Z M550,775 C549.447715,775 549,775.447715 549,776 L549,779 C549,779.552285 549.447715,780 550,780 L566,780 C566.552285,780 567,779.552285 567,779 L567,776 C567,775.447715 566.552285,775 566,775 L550,775 Z M550,774 L566,774 C567.104569,774 568,774.895431 568,776 L568,779 C568,780.104569 567.104569,781 566,781 L550,781 C548.895431,781 548,780.104569 548,779 L548,776 C548,774.895431 548.895431,774 550,774 Z M550,784 C549.447715,784 549,784.447715 549,785 L549,787 C549,787.552285 549.447715,788 550,788 L552,788 C552.552285,788 553,787.552285 553,787 L553,785 C553,784.447715 552.552285,784 552,784 L550,784 Z M550,783 L552,783 C553.104569,783 554,783.895431 554,785 L554,787 C554,788.104569 553.104569,789 552,789 L550,789 C548.895431,789 548,788.104569 548,787 L548,785 C548,783.895431 548.895431,783 550,783 Z M557,784 C556.447715,784 556,784.447715 556,785 L556,787 C556,787.552285 556.447715,788 557,788 L559,788 C559.552285,788 560,787.552285 560,787 L560,785 C560,784.447715 559.552285,784 559,784 L557,784 Z M557,783 L559,783 C560.104569,783 561,783.895431 561,785 L561,787 C561,788.104569 560.104569,789 559,789 L557,789 C555.895431,789 555,788.104569 555,787 L555,785 C555,783.895431 555.895431,783 557,783 Z M564,784 C563.447715,784 563,784.447715 563,785 L563,787 C563,787.552285 563.447715,788 564,788 L566,788 C566.552285,788 567,787.552285 567,787 L567,785 C567,784.447715 566.552285,784 566,784 L564,784 Z M564,783 L566,783 C567.104569,783 568,783.895431 568,785 L568,787 C568,788.104569 567.104569,789 566,789 L564,789 C562.895431,789 562,788.104569 562,787 L562,785 C562,783.895431 562.895431,783 564,783 Z M550,791 C549.447715,791 549,791.447715 549,792 L549,794 C549,794.552285 549.447715,795 550,795 L552,795 C552.552285,795 553,794.552285 553,794 L553,792 C553,791.447715 552.552285,791 552,791 L550,791 Z M550,790 L552,790 C553.104569,790 554,790.895431 554,792 L554,794 C554,795.104569 553.104569,796 552,796 L550,796 C548.895431,796 548,795.104569 548,794 L548,792 C548,790.895431 548.895431,790 550,790 Z M557,791 C556.447715,791 556,791.447715 556,792 L556,794 C556,794.552285 556.447715,795 557,795 L559,795 C559.552285,795 560,794.552285 560,794 L560,792 C560,791.447715 559.552285,791 559,791 L557,791 Z M557,790 L559,790 C560.104569,790 561,790.895431 561,792 L561,794 C561,795.104569 560.104569,796 559,796 L557,796 C555.895431,796 555,795.104569 555,794 L555,792 C555,790.895431 555.895431,790 557,790 Z M564,791 C563.447715,791 563,791.447715 563,792 L563,794 C563,794.552285 563.447715,795 564,795 L566,795 C566.552285,795 567,794.552285 567,794 L567,792 C567,791.447715 566.552285,791 566,791 L564,791 Z M564,790 L566,790 C567.104569,790 568,790.895431 568,792 L568,794 C568,795.104569 567.104569,796 566,796 L564,796 C562.895431,796 562,795.104569 562,794 L562,792 C562,790.895431 562.895431,790 564,790 Z M710,767 L710,771 L690,771 L690,767 C687.238576,767 685,769.238576 685,772 L685,797 C685,799.761424 687.238576,802 690,802 L710,802 C712.761424,802 715,799.761424 715,797 L715,772 C715,769.238576 712.761424,767 710,767 Z M691,766 L691,770 L709,770 L709,766 L709,758.620682 L705.943172,760.154688 L703.017225,758.201381 L700.005863,760.201127 L697.006263,758.201419 L694.071118,760.153638 L691,758.618048 L691,766 Z M710,766 C713.313708,766 716,768.686292 716,772 L716,797 C716,800.313708 713.313708,803 710,803 L690,803 C686.686292,803 684,800.313708 684,797 L684,772 C684,768.686292 686.686292,766 690,766 L690,757 L693.999921,759 L697.006904,757 L700.006942,759 L703.018687,757 L706.01458,759 L710,757 L710,766 Z M692,775 C691.447715,775 691,775.447715 691,776 L691,779 C691,779.552285 691.447715,780 692,780 L708,780 C708.552285,780 709,779.552285 709,779 L709,776 C709,775.447715 708.552285,775 708,775 L692,775 Z M692,774 L708,774 C709.104569,774 710,774.895431 710,776 L710,779 C710,780.104569 709.104569,781 708,781 L692,781 C690.895431,781 690,780.104569 690,779 L690,776 C690,774.895431 690.895431,774 692,774 Z M692,784 C691.447715,784 691,784.447715 691,785 L691,787 C691,787.552285 691.447715,788 692,788 L694,788 C694.552285,788 695,787.552285 695,787 L695,785 C695,784.447715 694.552285,784 694,784 L692,784 Z M692,783 L694,783 C695.104569,783 696,783.895431 696,785 L696,787 C696,788.104569 695.104569,789 694,789 L692,789 C690.895431,789 690,788.104569 690,787 L690,785 C690,783.895431 690.895431,783 692,783 Z M699,784 C698.447715,784 698,784.447715 698,785 L698,787 C698,787.552285 698.447715,788 699,788 L701,788 C701.552285,788 702,787.552285 702,787 L702,785 C702,784.447715 701.552285,784 701,784 L699,784 Z M699,783 L701,783 C702.104569,783 703,783.895431 703,785 L703,787 C703,788.104569 702.104569,789 701,789 L699,789 C697.895431,789 697,788.104569 697,787 L697,785 C697,783.895431 697.895431,783 699,783 Z M706,784 C705.447715,784 705,784.447715 705,785 L705,787 C705,787.552285 705.447715,788 706,788 L708,788 C708.552285,788 709,787.552285 709,787 L709,785 C709,784.447715 708.552285,784 708,784 L706,784 Z M706,783 L708,783 C709.104569,783 710,783.895431 710,785 L710,787 C710,788.104569 709.104569,789 708,789 L706,789 C704.895431,789 704,788.104569 704,787 L704,785 C704,783.895431 704.895431,783 706,783 Z M692,791 C691.447715,791 691,791.447715 691,792 L691,794 C691,794.552285 691.447715,795 692,795 L694,795 C694.552285,795 695,794.552285 695,794 L695,792 C695,791.447715 694.552285,791 694,791 L692,791 Z M692,790 L694,790 C695.104569,790 696,790.895431 696,792 L696,794 C696,795.104569 695.104569,796 694,796 L692,796 C690.895431,796 690,795.104569 690,794 L690,792 C690,790.895431 690.895431,790 692,790 Z M699,791 C698.447715,791 698,791.447715 698,792 L698,794 C698,794.552285 698.447715,795 699,795 L701,795 C701.552285,795 702,794.552285 702,794 L702,792 C702,791.447715 701.552285,791 701,791 L699,791 Z M699,790 L701,790 C702.104569,790 703,790.895431 703,792 L703,794 C703,795.104569 702.104569,796 701,796 L699,796 C697.895431,796 697,795.104569 697,794 L697,792 C697,790.895431 697.895431,790 699,790 Z M706,791 C705.447715,791 705,791.447715 705,792 L705,794 C705,794.552285 705.447715,795 706,795 L708,795 C708.552285,795 709,794.552285 709,794 L709,792 C709,791.447715 708.552285,791 708,791 L706,791 Z M706,790 L708,790 C709.104569,790 710,790.895431 710,792 L710,794 C710,795.104569 709.104569,796 708,796 L706,796 C704.895431,796 704,795.104569 704,794 L704,792 C704,790.895431 704.895431,790 706,790 Z M497,691 L497,695 L477,695 L477,691 C474.238576,691 472,693.238576 472,696 L472,721 C472,723.761424 474.238576,726 477,726 L497,726 C499.761424,726 502,723.761424 502,721 L502,696 C502,693.238576 499.761424,691 497,691 Z M478,690 L478,694 L496,694 L496,690 L496,682.620682 L492.943172,684.154688 L490.017225,682.201381 L487.005863,684.201127 L484.006263,682.201419 L481.071118,684.153638 L478,682.618048 L478,690 Z M497,690 C500.313708,690 503,692.686292 503,696 L503,721 C503,724.313708 500.313708,727 497,727 L477,727 C473.686292,727 471,724.313708 471,721 L471,696 C471,692.686292 473.686292,690 477,690 L477,681 L480.999921,683 L484.006904,681 L487.006942,683 L490.018687,681 L493.01458,683 L497,681 L497,690 Z M479,699 C478.447715,699 478,699.447715 478,700 L478,703 C478,703.552285 478.447715,704 479,704 L495,704 C495.552285,704 496,703.552285 496,703 L496,700 C496,699.447715 495.552285,699 495,699 L479,699 Z M479,698 L495,698 C496.104569,698 497,698.895431 497,700 L497,703 C497,704.104569 496.104569,705 495,705 L479,705 C477.895431,705 477,704.104569 477,703 L477,700 C477,698.895431 477.895431,698 479,698 Z M479,708 C478.447715,708 478,708.447715 478,709 L478,711 C478,711.552285 478.447715,712 479,712 L481,712 C481.552285,712 482,711.552285 482,711 L482,709 C482,708.447715 481.552285,708 481,708 L479,708 Z M479,707 L481,707 C482.104569,707 483,707.895431 483,709 L483,711 C483,712.104569 482.104569,713 481,713 L479,713 C477.895431,713 477,712.104569 477,711 L477,709 C477,707.895431 477.895431,707 479,707 Z M486,708 C485.447715,708 485,708.447715 485,709 L485,711 C485,711.552285 485.447715,712 486,712 L488,712 C488.552285,712 489,711.552285 489,711 L489,709 C489,708.447715 488.552285,708 488,708 L486,708 Z M486,707 L488,707 C489.104569,707 490,707.895431 490,709 L490,711 C490,712.104569 489.104569,713 488,713 L486,713 C484.895431,713 484,712.104569 484,711 L484,709 C484,707.895431 484.895431,707 486,707 Z M493,708 C492.447715,708 492,708.447715 492,709 L492,711 C492,711.552285 492.447715,712 493,712 L495,712 C495.552285,712 496,711.552285 496,711 L496,709 C496,708.447715 495.552285,708 495,708 L493,708 Z M493,707 L495,707 C496.104569,707 497,707.895431 497,709 L497,711 C497,712.104569 496.104569,713 495,713 L493,713 C491.895431,713 491,712.104569 491,711 L491,709 C491,707.895431 491.895431,707 493,707 Z M479,715 C478.447715,715 478,715.447715 478,716 L478,718 C478,718.552285 478.447715,719 479,719 L481,719 C481.552285,719 482,718.552285 482,718 L482,716 C482,715.447715 481.552285,715 481,715 L479,715 Z M479,714 L481,714 C482.104569,714 483,714.895431 483,716 L483,718 C483,719.104569 482.104569,720 481,720 L479,720 C477.895431,720 477,719.104569 477,718 L477,716 C477,714.895431 477.895431,714 479,714 Z M486,715 C485.447715,715 485,715.447715 485,716 L485,718 C485,718.552285 485.447715,719 486,719 L488,719 C488.552285,719 489,718.552285 489,718 L489,716 C489,715.447715 488.552285,715 488,715 L486,715 Z M486,714 L488,714 C489.104569,714 490,714.895431 490,716 L490,718 C490,719.104569 489.104569,720 488,720 L486,720 C484.895431,720 484,719.104569 484,718 L484,716 C484,714.895431 484.895431,714 486,714 Z M493,715 C492.447715,715 492,715.447715 492,716 L492,718 C492,718.552285 492.447715,719 493,719 L495,719 C495.552285,719 496,718.552285 496,718 L496,716 C496,715.447715 495.552285,715 495,715 L493,715 Z M493,714 L495,714 C496.104569,714 497,714.895431 497,716 L497,718 C497,719.104569 496.104569,720 495,720 L493,720 C491.895431,720 491,719.104569 491,718 L491,716 C491,714.895431 491.895431,714 493,714 Z M639,691 L639,695 L619,695 L619,691 C616.238576,691 614,693.238576 614,696 L614,721 C614,723.761424 616.238576,726 619,726 L639,726 C641.761424,726 644,723.761424 644,721 L644,696 C644,693.238576 641.761424,691 639,691 Z M620,690 L620,694 L638,694 L638,690 L638,682.620682 L634.943172,684.154688 L632.017225,682.201381 L629.005863,684.201127 L626.006263,682.201419 L623.071118,684.153638 L620,682.618048 L620,690 Z M639,690 C642.313708,690 645,692.686292 645,696 L645,721 C645,724.313708 642.313708,727 639,727 L619,727 C615.686292,727 613,724.313708 613,721 L613,696 C613,692.686292 615.686292,690 619,690 L619,681 L622.999921,683 L626.006904,681 L629.006942,683 L632.018687,681 L635.01458,683 L639,681 L639,690 Z M621,699 C620.447715,699 620,699.447715 620,700 L620,703 C620,703.552285 620.447715,704 621,704 L637,704 C637.552285,704 638,703.552285 638,703 L638,700 C638,699.447715 637.552285,699 637,699 L621,699 Z M621,698 L637,698 C638.104569,698 639,698.895431 639,700 L639,703 C639,704.104569 638.104569,705 637,705 L621,705 C619.895431,705 619,704.104569 619,703 L619,700 C619,698.895431 619.895431,698 621,698 Z M621,708 C620.447715,708 620,708.447715 620,709 L620,711 C620,711.552285 620.447715,712 621,712 L623,712 C623.552285,712 624,711.552285 624,711 L624,709 C624,708.447715 623.552285,708 623,708 L621,708 Z M621,707 L623,707 C624.104569,707 625,707.895431 625,709 L625,711 C625,712.104569 624.104569,713 623,713 L621,713 C619.895431,713 619,712.104569 619,711 L619,709 C619,707.895431 619.895431,707 621,707 Z M628,708 C627.447715,708 627,708.447715 627,709 L627,711 C627,711.552285 627.447715,712 628,712 L630,712 C630.552285,712 631,711.552285 631,711 L631,709 C631,708.447715 630.552285,708 630,708 L628,708 Z M628,707 L630,707 C631.104569,707 632,707.895431 632,709 L632,711 C632,712.104569 631.104569,713 630,713 L628,713 C626.895431,713 626,712.104569 626,711 L626,709 C626,707.895431 626.895431,707 628,707 Z M635,708 C634.447715,708 634,708.447715 634,709 L634,711 C634,711.552285 634.447715,712 635,712 L637,712 C637.552285,712 638,711.552285 638,711 L638,709 C638,708.447715 637.552285,708 637,708 L635,708 Z M635,707 L637,707 C638.104569,707 639,707.895431 639,709 L639,711 C639,712.104569 638.104569,713 637,713 L635,713 C633.895431,713 633,712.104569 633,711 L633,709 C633,707.895431 633.895431,707 635,707 Z M621,715 C620.447715,715 620,715.447715 620,716 L620,718 C620,718.552285 620.447715,719 621,719 L623,719 C623.552285,719 624,718.552285 624,718 L624,716 C624,715.447715 623.552285,715 623,715 L621,715 Z M621,714 L623,714 C624.104569,714 625,714.895431 625,716 L625,718 C625,719.104569 624.104569,720 623,720 L621,720 C619.895431,720 619,719.104569 619,718 L619,716 C619,714.895431 619.895431,714 621,714 Z M628,715 C627.447715,715 627,715.447715 627,716 L627,718 C627,718.552285 627.447715,719 628,719 L630,719 C630.552285,719 631,718.552285 631,718 L631,716 C631,715.447715 630.552285,715 630,715 L628,715 Z M628,714 L630,714 C631.104569,714 632,714.895431 632,716 L632,718 C632,719.104569 631.104569,720 630,720 L628,720 C626.895431,720 626,719.104569 626,718 L626,716 C626,714.895431 626.895431,714 628,714 Z M635,715 C634.447715,715 634,715.447715 634,716 L634,718 C634,718.552285 634.447715,719 635,719 L637,719 C637.552285,719 638,718.552285 638,718 L638,716 C638,715.447715 637.552285,715 637,715 L635,715 Z M635,714 L637,714 C638.104569,714 639,714.895431 639,716 L639,718 C639,719.104569 638.104569,720 637,720 L635,720 C633.895431,720 633,719.104569 633,718 L633,716 C633,714.895431 633.895431,714 635,714 Z M781,691 L781,695 L761,695 L761,691 C758.238576,691 756,693.238576 756,696 L756,721 C756,723.761424 758.238576,726 761,726 L781,726 C783.761424,726 786,723.761424 786,721 L786,696 C786,693.238576 783.761424,691 781,691 Z M762,690 L762,694 L780,694 L780,690 L780,682.620682 L776.943172,684.154688 L774.017225,682.201381 L771.005863,684.201127 L768.006263,682.201419 L765.071118,684.153638 L762,682.618048 L762,690 Z M781,690 C784.313708,690 787,692.686292 787,696 L787,721 C787,724.313708 784.313708,727 781,727 L761,727 C757.686292,727 755,724.313708 755,721 L755,696 C755,692.686292 757.686292,690 761,690 L761,681 L764.999921,683 L768.006904,681 L771.006942,683 L774.018687,681 L777.01458,683 L781,681 L781,690 Z M763,699 C762.447715,699 762,699.447715 762,700 L762,703 C762,703.552285 762.447715,704 763,704 L779,704 C779.552285,704 780,703.552285 780,703 L780,700 C780,699.447715 779.552285,699 779,699 L763,699 Z M763,698 L779,698 C780.104569,698 781,698.895431 781,700 L781,703 C781,704.104569 780.104569,705 779,705 L763,705 C761.895431,705 761,704.104569 761,703 L761,700 C761,698.895431 761.895431,698 763,698 Z M763,708 C762.447715,708 762,708.447715 762,709 L762,711 C762,711.552285 762.447715,712 763,712 L765,712 C765.552285,712 766,711.552285 766,711 L766,709 C766,708.447715 765.552285,708 765,708 L763,708 Z M763,707 L765,707 C766.104569,707 767,707.895431 767,709 L767,711 C767,712.104569 766.104569,713 765,713 L763,713 C761.895431,713 761,712.104569 761,711 L761,709 C761,707.895431 761.895431,707 763,707 Z M770,708 C769.447715,708 769,708.447715 769,709 L769,711 C769,711.552285 769.447715,712 770,712 L772,712 C772.552285,712 773,711.552285 773,711 L773,709 C773,708.447715 772.552285,708 772,708 L770,708 Z M770,707 L772,707 C773.104569,707 774,707.895431 774,709 L774,711 C774,712.104569 773.104569,713 772,713 L770,713 C768.895431,713 768,712.104569 768,711 L768,709 C768,707.895431 768.895431,707 770,707 Z M777,708 C776.447715,708 776,708.447715 776,709 L776,711 C776,711.552285 776.447715,712 777,712 L779,712 C779.552285,712 780,711.552285 780,711 L780,709 C780,708.447715 779.552285,708 779,708 L777,708 Z M777,707 L779,707 C780.104569,707 781,707.895431 781,709 L781,711 C781,712.104569 780.104569,713 779,713 L777,713 C775.895431,713 775,712.104569 775,711 L775,709 C775,707.895431 775.895431,707 777,707 Z M763,715 C762.447715,715 762,715.447715 762,716 L762,718 C762,718.552285 762.447715,719 763,719 L765,719 C765.552285,719 766,718.552285 766,718 L766,716 C766,715.447715 765.552285,715 765,715 L763,715 Z M763,714 L765,714 C766.104569,714 767,714.895431 767,716 L767,718 C767,719.104569 766.104569,720 765,720 L763,720 C761.895431,720 761,719.104569 761,718 L761,716 C761,714.895431 761.895431,714 763,714 Z M770,715 C769.447715,715 769,715.447715 769,716 L769,718 C769,718.552285 769.447715,719 770,719 L772,719 C772.552285,719 773,718.552285 773,718 L773,716 C773,715.447715 772.552285,715 772,715 L770,715 Z M770,714 L772,714 C773.104569,714 774,714.895431 774,716 L774,718 C774,719.104569 773.104569,720 772,720 L770,720 C768.895431,720 768,719.104569 768,718 L768,716 C768,714.895431 768.895431,714 770,714 Z M777,715 C776.447715,715 776,715.447715 776,716 L776,718 C776,718.552285 776.447715,719 777,719 L779,719 C779.552285,719 780,718.552285 780,718 L780,716 C780,715.447715 779.552285,715 779,715 L777,715 Z M777,714 L779,714 C780.104569,714 781,714.895431 781,716 L781,718 C781,719.104569 780.104569,720 779,720 L777,720 C775.895431,720 775,719.104569 775,718 L775,716 C775,714.895431 775.895431,714 777,714 Z M568,615 L568,619 L548,619 L548,615 C545.238576,615 543,617.238576 543,620 L543,645 C543,647.761424 545.238576,650 548,650 L568,650 C570.761424,650 573,647.761424 573,645 L573,620 C573,617.238576 570.761424,615 568,615 Z M549,614 L549,618 L567,618 L567,614 L567,606.620682 L563.943172,608.154688 L561.017225,606.201381 L558.005863,608.201127 L555.006263,606.201419 L552.071118,608.153638 L549,606.618048 L549,614 Z M568,614 C571.313708,614 574,616.686292 574,620 L574,645 C574,648.313708 571.313708,651 568,651 L548,651 C544.686292,651 542,648.313708 542,645 L542,620 C542,616.686292 544.686292,614 548,614 L548,605 L551.999921,607 L555.006904,605 L558.006942,607 L561.018687,605 L564.01458,607 L568,605 L568,614 Z M550,623 C549.447715,623 549,623.447715 549,624 L549,627 C549,627.552285 549.447715,628 550,628 L566,628 C566.552285,628 567,627.552285 567,627 L567,624 C567,623.447715 566.552285,623 566,623 L550,623 Z M550,622 L566,622 C567.104569,622 568,622.895431 568,624 L568,627 C568,628.104569 567.104569,629 566,629 L550,629 C548.895431,629 548,628.104569 548,627 L548,624 C548,622.895431 548.895431,622 550,622 Z M550,632 C549.447715,632 549,632.447715 549,633 L549,635 C549,635.552285 549.447715,636 550,636 L552,636 C552.552285,636 553,635.552285 553,635 L553,633 C553,632.447715 552.552285,632 552,632 L550,632 Z M550,631 L552,631 C553.104569,631 554,631.895431 554,633 L554,635 C554,636.104569 553.104569,637 552,637 L550,637 C548.895431,637 548,636.104569 548,635 L548,633 C548,631.895431 548.895431,631 550,631 Z M557,632 C556.447715,632 556,632.447715 556,633 L556,635 C556,635.552285 556.447715,636 557,636 L559,636 C559.552285,636 560,635.552285 560,635 L560,633 C560,632.447715 559.552285,632 559,632 L557,632 Z M557,631 L559,631 C560.104569,631 561,631.895431 561,633 L561,635 C561,636.104569 560.104569,637 559,637 L557,637 C555.895431,637 555,636.104569 555,635 L555,633 C555,631.895431 555.895431,631 557,631 Z M564,632 C563.447715,632 563,632.447715 563,633 L563,635 C563,635.552285 563.447715,636 564,636 L566,636 C566.552285,636 567,635.552285 567,635 L567,633 C567,632.447715 566.552285,632 566,632 L564,632 Z M564,631 L566,631 C567.104569,631 568,631.895431 568,633 L568,635 C568,636.104569 567.104569,637 566,637 L564,637 C562.895431,637 562,636.104569 562,635 L562,633 C562,631.895431 562.895431,631 564,631 Z M550,639 C549.447715,639 549,639.447715 549,640 L549,642 C549,642.552285 549.447715,643 550,643 L552,643 C552.552285,643 553,642.552285 553,642 L553,640 C553,639.447715 552.552285,639 552,639 L550,639 Z M550,638 L552,638 C553.104569,638 554,638.895431 554,640 L554,642 C554,643.104569 553.104569,644 552,644 L550,644 C548.895431,644 548,643.104569 548,642 L548,640 C548,638.895431 548.895431,638 550,638 Z M557,639 C556.447715,639 556,639.447715 556,640 L556,642 C556,642.552285 556.447715,643 557,643 L559,643 C559.552285,643 560,642.552285 560,642 L560,640 C560,639.447715 559.552285,639 559,639 L557,639 Z M557,638 L559,638 C560.104569,638 561,638.895431 561,640 L561,642 C561,643.104569 560.104569,644 559,644 L557,644 C555.895431,644 555,643.104569 555,642 L555,640 C555,638.895431 555.895431,638 557,638 Z M564,639 C563.447715,639 563,639.447715 563,640 L563,642 C563,642.552285 563.447715,643 564,643 L566,643 C566.552285,643 567,642.552285 567,642 L567,640 C567,639.447715 566.552285,639 566,639 L564,639 Z M564,638 L566,638 C567.104569,638 568,638.895431 568,640 L568,642 C568,643.104569 567.104569,644 566,644 L564,644 C562.895431,644 562,643.104569 562,642 L562,640 C562,638.895431 562.895431,638 564,638 Z M710,615 L710,619 L690,619 L690,615 C687.238576,615 685,617.238576 685,620 L685,645 C685,647.761424 687.238576,650 690,650 L710,650 C712.761424,650 715,647.761424 715,645 L715,620 C715,617.238576 712.761424,615 710,615 Z M691,614 L691,618 L709,618 L709,614 L709,606.620682 L705.943172,608.154688 L703.017225,606.201381 L700.005863,608.201127 L697.006263,606.201419 L694.071118,608.153638 L691,606.618048 L691,614 Z M710,614 C713.313708,614 716,616.686292 716,620 L716,645 C716,648.313708 713.313708,651 710,651 L690,651 C686.686292,651 684,648.313708 684,645 L684,620 C684,616.686292 686.686292,614 690,614 L690,605 L693.999921,607 L697.006904,605 L700.006942,607 L703.018687,605 L706.01458,607 L710,605 L710,614 Z M692,623 C691.447715,623 691,623.447715 691,624 L691,627 C691,627.552285 691.447715,628 692,628 L708,628 C708.552285,628 709,627.552285 709,627 L709,624 C709,623.447715 708.552285,623 708,623 L692,623 Z M692,622 L708,622 C709.104569,622 710,622.895431 710,624 L710,627 C710,628.104569 709.104569,629 708,629 L692,629 C690.895431,629 690,628.104569 690,627 L690,624 C690,622.895431 690.895431,622 692,622 Z M692,632 C691.447715,632 691,632.447715 691,633 L691,635 C691,635.552285 691.447715,636 692,636 L694,636 C694.552285,636 695,635.552285 695,635 L695,633 C695,632.447715 694.552285,632 694,632 L692,632 Z M692,631 L694,631 C695.104569,631 696,631.895431 696,633 L696,635 C696,636.104569 695.104569,637 694,637 L692,637 C690.895431,637 690,636.104569 690,635 L690,633 C690,631.895431 690.895431,631 692,631 Z M699,632 C698.447715,632 698,632.447715 698,633 L698,635 C698,635.552285 698.447715,636 699,636 L701,636 C701.552285,636 702,635.552285 702,635 L702,633 C702,632.447715 701.552285,632 701,632 L699,632 Z M699,631 L701,631 C702.104569,631 703,631.895431 703,633 L703,635 C703,636.104569 702.104569,637 701,637 L699,637 C697.895431,637 697,636.104569 697,635 L697,633 C697,631.895431 697.895431,631 699,631 Z M706,632 C705.447715,632 705,632.447715 705,633 L705,635 C705,635.552285 705.447715,636 706,636 L708,636 C708.552285,636 709,635.552285 709,635 L709,633 C709,632.447715 708.552285,632 708,632 L706,632 Z M706,631 L708,631 C709.104569,631 710,631.895431 710,633 L710,635 C710,636.104569 709.104569,637 708,637 L706,637 C704.895431,637 704,636.104569 704,635 L704,633 C704,631.895431 704.895431,631 706,631 Z M692,639 C691.447715,639 691,639.447715 691,640 L691,642 C691,642.552285 691.447715,643 692,643 L694,643 C694.552285,643 695,642.552285 695,642 L695,640 C695,639.447715 694.552285,639 694,639 L692,639 Z M692,638 L694,638 C695.104569,638 696,638.895431 696,640 L696,642 C696,643.104569 695.104569,644 694,644 L692,644 C690.895431,644 690,643.104569 690,642 L690,640 C690,638.895431 690.895431,638 692,638 Z M699,639 C698.447715,639 698,639.447715 698,640 L698,642 C698,642.552285 698.447715,643 699,643 L701,643 C701.552285,643 702,642.552285 702,642 L702,640 C702,639.447715 701.552285,639 701,639 L699,639 Z M699,638 L701,638 C702.104569,638 703,638.895431 703,640 L703,642 C703,643.104569 702.104569,644 701,644 L699,644 C697.895431,644 697,643.104569 697,642 L697,640 C697,638.895431 697.895431,638 699,638 Z M706,639 C705.447715,639 705,639.447715 705,640 L705,642 C705,642.552285 705.447715,643 706,643 L708,643 C708.552285,643 709,642.552285 709,642 L709,640 C709,639.447715 708.552285,639 708,639 L706,639 Z M706,638 L708,638 C709.104569,638 710,638.895431 710,640 L710,642 C710,643.104569 709.104569,644 708,644 L706,644 C704.895431,644 704,643.104569 704,642 L704,640 C704,638.895431 704.895431,638 706,638 Z M852,615 L852,619 L832,619 L832,615 C829.238576,615 827,617.238576 827,620 L827,645 C827,647.761424 829.238576,650 832,650 L852,650 C854.761424,650 857,647.761424 857,645 L857,620 C857,617.238576 854.761424,615 852,615 Z M833,614 L833,618 L851,618 L851,614 L851,606.620682 L847.943172,608.154688 L845.017225,606.201381 L842.005863,608.201127 L839.006263,606.201419 L836.071118,608.153638 L833,606.618048 L833,614 Z M852,614 C855.313708,614 858,616.686292 858,620 L858,645 C858,648.313708 855.313708,651 852,651 L832,651 C828.686292,651 826,648.313708 826,645 L826,620 C826,616.686292 828.686292,614 832,614 L832,605 L835.999921,607 L839.006904,605 L842.006942,607 L845.018687,605 L848.01458,607 L852,605 L852,614 Z M834,623 C833.447715,623 833,623.447715 833,624 L833,627 C833,627.552285 833.447715,628 834,628 L850,628 C850.552285,628 851,627.552285 851,627 L851,624 C851,623.447715 850.552285,623 850,623 L834,623 Z M834,622 L850,622 C851.104569,622 852,622.895431 852,624 L852,627 C852,628.104569 851.104569,629 850,629 L834,629 C832.895431,629 832,628.104569 832,627 L832,624 C832,622.895431 832.895431,622 834,622 Z M834,632 C833.447715,632 833,632.447715 833,633 L833,635 C833,635.552285 833.447715,636 834,636 L836,636 C836.552285,636 837,635.552285 837,635 L837,633 C837,632.447715 836.552285,632 836,632 L834,632 Z M834,631 L836,631 C837.104569,631 838,631.895431 838,633 L838,635 C838,636.104569 837.104569,637 836,637 L834,637 C832.895431,637 832,636.104569 832,635 L832,633 C832,631.895431 832.895431,631 834,631 Z M841,632 C840.447715,632 840,632.447715 840,633 L840,635 C840,635.552285 840.447715,636 841,636 L843,636 C843.552285,636 844,635.552285 844,635 L844,633 C844,632.447715 843.552285,632 843,632 L841,632 Z M841,631 L843,631 C844.104569,631 845,631.895431 845,633 L845,635 C845,636.104569 844.104569,637 843,637 L841,637 C839.895431,637 839,636.104569 839,635 L839,633 C839,631.895431 839.895431,631 841,631 Z M848,632 C847.447715,632 847,632.447715 847,633 L847,635 C847,635.552285 847.447715,636 848,636 L850,636 C850.552285,636 851,635.552285 851,635 L851,633 C851,632.447715 850.552285,632 850,632 L848,632 Z M848,631 L850,631 C851.104569,631 852,631.895431 852,633 L852,635 C852,636.104569 851.104569,637 850,637 L848,637 C846.895431,637 846,636.104569 846,635 L846,633 C846,631.895431 846.895431,631 848,631 Z M834,639 C833.447715,639 833,639.447715 833,640 L833,642 C833,642.552285 833.447715,643 834,643 L836,643 C836.552285,643 837,642.552285 837,642 L837,640 C837,639.447715 836.552285,639 836,639 L834,639 Z M834,638 L836,638 C837.104569,638 838,638.895431 838,640 L838,642 C838,643.104569 837.104569,644 836,644 L834,644 C832.895431,644 832,643.104569 832,642 L832,640 C832,638.895431 832.895431,638 834,638 Z M841,639 C840.447715,639 840,639.447715 840,640 L840,642 C840,642.552285 840.447715,643 841,643 L843,643 C843.552285,643 844,642.552285 844,642 L844,640 C844,639.447715 843.552285,639 843,639 L841,639 Z M841,638 L843,638 C844.104569,638 845,638.895431 845,640 L845,642 C845,643.104569 844.104569,644 843,644 L841,644 C839.895431,644 839,643.104569 839,642 L839,640 C839,638.895431 839.895431,638 841,638 Z M848,639 C847.447715,639 847,639.447715 847,640 L847,642 C847,642.552285 847.447715,643 848,643 L850,643 C850.552285,643 851,642.552285 851,642 L851,640 C851,639.447715 850.552285,639 850,639 L848,639 Z M848,638 L850,638 C851.104569,638 852,638.895431 852,640 L852,642 C852,643.104569 851.104569,644 850,644 L848,644 C846.895431,644 846,643.104569 846,642 L846,640 C846,638.895431 846.895431,638 848,638 Z" id="dpspattern"></path>
        </g>
    </g>
</svg>
