<?xml version="1.0" encoding="UTF-8"?>
<svg width="25px" height="30px" viewBox="0 0 25 30" version="1.1" xmlns="http://www.w3.org/2000/svg" xmlns:xlink="http://www.w3.org/1999/xlink">
    <!-- Generator: Sketch 54.1 (76490) - https://sketchapp.com -->
    <title>en</title>
    <desc>Created with Sketch.</desc>
    <g id="UI" stroke="none" stroke-width="1" fill="none" fill-rule="evenodd">
        <g id="Apple-TV" transform="translate(-1720.000000, -231.000000)" fill="#1A1A1A" fill-rule="nonzero">
            <path d="M1744,257 L1721,257 L1721,260 L1744,260 L1744,257 Z M1726.9,249 L1726.9,242 L1732.09,242 L1732.09,243.1 L1728.13,243.1 L1728.13,244.92 L1731.64,244.92 L1731.64,246.02 L1728.13,246.02 L1728.13,247.9 L1732.14,247.9 L1732.14,249 L1726.9,249 Z M1733.48,249 L1733.48,243.72 L1734.69,243.72 L1734.69,244.54 C1735.03,244.04 1735.52,243.61 1736.34,243.61 C1737.53,243.61 1738.22,244.41 1738.22,245.64 L1738.22,249 L1737.01,249 L1737.01,246 C1737.01,245.18 1736.6,244.71 1735.88,244.71 C1735.18,244.71 1734.69,245.2 1734.69,246.02 L1734.69,249 L1733.48,249 Z M1720,236.555556 L1725.70174,231 L1745,231 L1745,261 L1720,261 L1720,236.555556 Z M1721,256 L1744,256 L1744,232 L1726.09533,232 L1721,236.945068 L1721,256 Z" id="en"></path>
        </g>
    </g>
</svg>