<?xml version="1.0" encoding="UTF-8"?>
<svg width="9px" height="16px" viewBox="0 0 9 16" version="1.1" xmlns="http://www.w3.org/2000/svg" xmlns:xlink="http://www.w3.org/1999/xlink">
    <!-- Generator: Sketch 54.1 (76490) - https://sketchapp.com -->
    <title>facebook</title>
    <desc>Created with Sketch.</desc>
    <g id="UI" stroke="none" stroke-width="1" fill="none" fill-rule="evenodd">
        <g id="Apple-TV" transform="translate(-107.000000, -328.000000)" fill="#000000">
            <path d="M115.661086,328.003329 L113.502396,328 C111.077181,328 109.5099,329.54552 109.5099,331.937622 L109.5099,333.753129 L107.339433,333.753129 C107.151879,333.753129 107,333.899275 107,334.079544 L107,336.710007 C107,336.890276 107.152052,337.036256 107.339433,337.036256 L109.5099,337.036256 L109.5099,343.673751 C109.5099,343.85402 109.661779,344 109.849333,344 L112.681175,344 C112.868729,344 113.020608,343.853854 113.020608,343.673751 L113.020608,337.036256 L115.558391,337.036256 C115.745945,337.036256 115.897824,336.890276 115.897824,336.710007 L115.898863,334.079544 C115.898863,333.992988 115.863014,333.910094 115.799457,333.84884 C115.7359,333.787585 115.64931,333.753129 115.559256,333.753129 L113.020608,333.753129 L113.020608,332.214101 C113.020608,331.474382 113.204006,331.098863 114.206546,331.098863 L115.66074,331.098364 C115.848121,331.098364 116,330.952217 116,330.772115 L116,328.329578 C116,328.149642 115.848294,328.003662 115.661086,328.003329 Z" id="facebook"></path>
        </g>
    </g>
</svg>