<?xml version="1.0" encoding="UTF-8"?>
<svg width="18px" height="18px" viewBox="0 0 18 18" version="1.1" xmlns="http://www.w3.org/2000/svg" xmlns:xlink="http://www.w3.org/1999/xlink">
    <!-- Generator: Sketch 54.1 (76490) - https://sketchapp.com -->
    <title>insta</title>
    <desc>Created with Sketch.</desc>
    <g id="UI" stroke="none" stroke-width="1" fill="none" fill-rule="evenodd">
        <g id="Apple-TV" transform="translate(-147.000000, -327.000000)" fill="#000000">
            <path d="M156,328.62225 C158.403,328.62225 158.688,328.63125 159.6375,328.67475 C162.0765,328.78575 163.21575,329.943 163.32675,332.364 C163.37025,333.31275 163.3785,333.59775 163.3785,336.00075 C163.3785,338.4045 163.3695,338.68875 163.32675,339.6375 C163.215,342.05625 162.07875,343.21575 159.6375,343.32675 C158.688,343.37025 158.4045,343.37925 156,343.37925 C153.597,343.37925 153.312,343.37025 152.36325,343.32675 C149.91825,343.215 148.785,342.0525 148.674,339.63675 C148.6305,338.688 148.6215,338.40375 148.6215,336 C148.6215,333.597 148.63125,333.31275 148.674,332.36325 C148.78575,329.943 149.922,328.785 152.36325,328.674 C153.31275,328.63125 153.597,328.62225 156,328.62225 L156,328.62225 Z M156,327 C153.55575,327 153.24975,327.0105 152.28975,327.054 C149.02125,327.204 147.20475,329.0175 147.05475,332.289 C147.0105,333.24975 147,333.55575 147,336 C147,338.44425 147.0105,338.751 147.054,339.711 C147.204,342.9795 149.0175,344.796 152.289,344.946 C153.24975,344.9895 153.55575,345 156,345 C158.44425,345 158.751,344.9895 159.711,344.946 C162.9765,344.796 164.7975,342.9825 164.94525,339.711 C164.9895,338.751 165,338.44425 165,336 C165,333.55575 164.9895,333.24975 164.946,332.28975 C164.799,329.02425 162.98325,327.20475 159.71175,327.05475 C158.751,327.0105 158.44425,327 156,327 Z M156,331.3785 C153.44775,331.3785 151.3785,333.44775 151.3785,336 C151.3785,338.55225 153.44775,340.62225 156,340.62225 C158.55225,340.62225 160.6215,338.553 160.6215,336 C160.6215,333.44775 158.55225,331.3785 156,331.3785 Z M156,339 C154.34325,339 153,337.6575 153,336 C153,334.34325 154.34325,333 156,333 C157.65675,333 159,334.34325 159,336 C159,337.6575 157.65675,339 156,339 Z M160.8045,330.11625 C160.2075,330.11625 159.72375,330.6 159.72375,331.19625 C159.72375,331.7925 160.2075,332.27625 160.8045,332.27625 C161.40075,332.27625 161.88375,331.7925 161.88375,331.19625 C161.88375,330.6 161.40075,330.11625 160.8045,330.11625 Z" id="insta"></path>
        </g>
    </g>
</svg>