<svg width="15px" height="21px" viewBox="0 0 15 21" version="1.1" xmlns="http://www.w3.org/2000/svg" xmlns:xlink="http://www.w3.org/1999/xlink">
    <g id="Webdesign" stroke="none" stroke-width="1" fill="none" fill-rule="evenodd">
        <g id="d—contact" transform="translate(-1116.000000, -791.000000)" fill="#FFFFFF" fill-rule="nonzero">
            <g id="Map" transform="translate(155.000000, 616.000000)">
                <g id="Pin" transform="translate(948.000000, 164.000000)">
                    <path d="M20,21 C18.3431458,21 17,19.6568542 17,18 C17,16.3431458 18.3431458,15 20,15 C21.6568542,15 23,16.3431458 23,18 C23,19.6568542 21.6568542,21 20,21 Z M20,20 C21.1045695,20 22,19.1045695 22,18 C22,16.8954305 21.1045695,16 20,16 C18.8954305,16 18,16.8954305 18,18 C18,19.1045695 18.8954305,20 20,20 Z M27.0536814,18.497827 C27.0536814,19.689819 26.7434161,20.8616779 26.1528426,21.9002575 L20.9533029,31.0441415 C20.6736478,31.5359414 20.0444454,31.7100674 19.5479399,31.4330626 C19.3836386,31.3413975 19.2478398,31.2068857 19.1552976,31.0441415 L13.9557578,21.9002575 C12.0586684,18.5640457 13.251184,14.3361918 16.619316,12.4570813 C17.6678324,11.8721047 18.8509035,11.5647799 20.0543002,11.5647799 C23.9199517,11.5647799 27.0536814,14.6688108 27.0536814,18.497827 Z M17.1065285,13.3303647 C14.2225042,14.9393872 13.2030811,18.5535726 14.8250448,21.4059498 L20.0245846,30.5498337 C20.0266726,30.5535056 20.0302383,30.5570376 20.0351524,30.5597792 C20.0530832,30.5697829 20.0763303,30.5633495 20.0840159,30.5498337 L25.2835556,21.4059498 C25.7885114,20.5179371 26.0536814,19.5164013 26.0536814,18.497827 C26.0536814,15.2232384 23.3697873,12.5647799 20.0543002,12.5647799 C19.0213545,12.5647799 18.0060149,12.8285334 17.1065285,13.3303647 Z" id="location-in"></path>
                </g>
            </g>
        </g>
    </g>
</svg>
