<svg width="115px" height="26px" viewBox="0 0 115 26" version="1.1" xmlns="http://www.w3.org/2000/svg" xmlns:xlink="http://www.w3.org/1999/xlink">
    <g id="Symbols" stroke="none" stroke-width="1" fill="none" fill-rule="evenodd">
        <g id="Header" transform="translate(-155.000000, -39.000000)">
            <g id="logo_Dataphone_new">
                <g transform="translate(155.000000, 39.000000)">
                    <path d="M0.394044118,19.0454333 L1.01386029,19.0454333 L2.99,22.0796333 L4.96571691,19.0454333 L5.58511029,19.0454333 L5.58511029,24.6051 L4.97332721,24.6051 L4.97332721,20.1023333 L2.9971875,23.0802 L2.96632353,23.0802 L0.990606618,20.1101333 L0.990606618,24.6051 L0.394044118,24.6051 L0.394044118,19.0454333 Z M10.3347794,22.5558667 C10.3347794,21.6744667 9.69213235,20.9521 8.84738971,20.9521 C7.97939338,20.9521 7.38325368,21.6744667 7.38325368,22.5558667 C7.38325368,23.4372667 8.01829044,24.1518333 8.86261029,24.1518333 C9.73060662,24.1518333 10.3347794,23.4372667 10.3347794,22.5558667 Z M6.77104779,22.5558667 C6.77104779,21.3967 7.65426471,20.4121667 8.86261029,20.4121667 C10.0641912,20.4121667 10.9474081,21.3811 10.9474081,22.5558667 C10.9474081,23.7154667 10.0561581,24.7 8.84738971,24.7 C7.64665441,24.7 6.77104779,23.7310667 6.77104779,22.5558667 Z M15.4573529,22.5485 C15.4573529,21.5791333 14.8058272,20.9594667 14.0469118,20.9594667 C13.3027941,20.9594667 12.5979963,21.6029667 12.5979963,22.5558667 C12.5979963,23.5087667 13.3027941,24.1444667 14.0469118,24.1444667 C14.8218934,24.1444667 15.4573529,23.5568667 15.4573529,22.5485 Z M12.62125,23.8181667 L12.62125,24.6051 L12.0246875,24.6051 L12.0246875,18.8079667 L12.62125,18.8079667 L12.62125,21.3247667 C12.9463787,20.8325 13.4190625,20.4121667 14.1551471,20.4121667 C15.1157353,20.4121667 16.0687132,21.1904333 16.0687132,22.5558667 C16.0687132,23.8983333 15.1237684,24.6922 14.1551471,24.6922 C13.4114522,24.6922 12.9311581,24.2796667 12.62125,23.8181667 Z M17.223364,24.6051 L17.223364,20.4992667 L17.8199265,20.4992667 L17.8199265,24.6051 L17.223364,24.6051 Z M17.1848897,19.6022667 L17.1848897,18.9271333 L17.8664338,18.9271333 L17.8664338,19.6022667 L17.1848897,19.6022667 Z M19.2612316,24.6051 L19.2612316,18.8079667 L19.8582169,18.8079667 L19.8582169,24.6051 L19.2612316,24.6051 Z M21.2986765,24.6051 L21.2986765,20.4992667 L21.8956618,20.4992667 L21.8956618,24.6051 L21.2986765,24.6051 Z M21.2602022,19.6022667 L21.2602022,18.9271333 L21.9421691,18.9271333 L21.9421691,19.6022667 L21.2602022,19.6022667 Z M23.4917096,23.5165667 L23.4917096,21.0387667 L22.9340441,21.0387667 L22.9340441,20.4992667 L23.4917096,20.4992667 L23.4917096,19.2603667 L24.0886949,19.2603667 L24.0886949,20.4992667 L25.3587684,20.4992667 L25.3587684,21.0387667 L24.0886949,21.0387667 L24.0886949,23.4372667 C24.0886949,23.9377667 24.3597059,24.1202 24.7626287,24.1202 C24.9638787,24.1202 25.1342647,24.0807667 25.3435478,23.9776333 L25.3435478,24.5015333 C25.1342647,24.6129 24.909761,24.6766 24.6231066,24.6766 C23.9800368,24.6766 23.4917096,24.3507333 23.4917096,23.5165667 Z M26.1802574,25.6927667 L26.3819301,25.2083 C26.5755699,25.3114333 26.753989,25.3591 27.0097794,25.3591 C27.3661949,25.3591 27.5906985,25.1684333 27.8312684,24.5886333 L26.0098713,20.4992667 L26.6685846,20.4992667 L28.1251103,23.9217333 L29.4116728,20.4992667 L30.0467096,20.4992667 L28.3652574,24.7398667 C28.0244853,25.5896333 27.6372059,25.8994667 27.0326103,25.8994667 C26.6994485,25.8994667 26.4512684,25.8279667 26.1802574,25.6927667 Z M33.4176471,19.0454333 L37.3377941,19.0454333 L37.3377941,19.6174333 L34.0298529,19.6174333 L34.0298529,21.5158667 L36.9894118,21.5158667 L36.9894118,22.0874333 L34.0298529,22.0874333 L34.0298529,24.0331 L37.3766912,24.0331 L37.3766912,24.6051 L33.4176471,24.6051 L33.4176471,19.0454333 Z M39.7172794,22.5168667 L38.2062132,20.4992667 L38.8877574,20.4992667 L40.0732721,22.0874333 L41.258364,20.4992667 L41.9255331,20.4992667 L40.4068566,22.5004 L41.9868382,24.6051 L41.2976838,24.6051 L40.0580515,22.9289667 L38.8099632,24.6051 L38.1440625,24.6051 L39.7172794,22.5168667 Z M42.4366912,22.5558667 C42.4366912,21.3967 43.3194853,20.4121667 44.4897794,20.4121667 C45.2491176,20.4121667 45.7213787,20.7376 46.0934375,21.1423333 L45.7137684,21.5553 C45.39625,21.2138333 45.024614,20.9521 44.4817463,20.9521 C43.6687132,20.9521 43.0488971,21.6588667 43.0488971,22.5558667 C43.0488971,23.4450667 43.6839338,24.1518333 44.5206434,24.1518333 C45.0322243,24.1518333 45.4118934,23.8818667 45.7298346,23.5326 L46.1243015,23.9061333 C45.7213787,24.3663333 45.2410846,24.7 44.4897794,24.7 C43.3194853,24.7 42.4366912,23.7232667 42.4366912,22.5558667 Z M49.9294485,22.3097333 C49.8596875,21.5635333 49.4411213,20.9282667 48.6504963,20.9282667 C47.9613419,20.9282667 47.4345404,21.5158667 47.349136,22.3097333 L49.9294485,22.3097333 Z M48.7595772,24.1683 C49.3092096,24.1683 49.696489,23.9377667 50.0220404,23.5880667 L50.3940993,23.9299667 C49.9911765,24.3901667 49.5028493,24.7 48.7443566,24.7 C47.6434007,24.7 46.7445404,23.8346333 46.7445404,22.5558667 C46.7445404,21.3650667 47.5584191,20.4121667 48.6665625,20.4121667 C49.8520772,20.4121667 50.5336213,21.3811 50.5336213,22.5879333 C50.5336213,22.6434 50.5336213,22.7071 50.5255882,22.8024333 L47.349136,22.8024333 C47.4345404,23.6678 48.0543566,24.1683 48.7595772,24.1683 Z M51.6337316,24.6051 L51.6337316,18.8079667 L52.2311397,18.8079667 L52.2311397,24.6051 L51.6337316,24.6051 Z M53.6715993,24.6051 L53.6715993,18.8079667 L54.2681618,18.8079667 L54.2681618,24.6051 L53.6715993,24.6051 Z M58.5916544,22.3097333 C58.5223162,21.5635333 58.10375,20.9282667 57.313125,20.9282667 C56.6235478,20.9282667 56.0963235,21.5158667 56.0113419,22.3097333 L58.5916544,22.3097333 Z M57.4213603,24.1683 C57.972261,24.1683 58.3595404,23.9377667 58.6850919,23.5880667 L59.0567279,23.9299667 C58.6538051,24.3901667 58.1654779,24.7 57.4057169,24.7 C56.3056066,24.7 55.4071691,23.8346333 55.4071691,22.5558667 C55.4071691,21.3650667 56.220625,20.4121667 57.3283456,20.4121667 C58.5138603,20.4121667 59.19625,21.3811 59.19625,22.5879333 C59.19625,22.6434 59.19625,22.7071 59.1886397,22.8024333 L56.0113419,22.8024333 C56.0963235,23.6678 56.7165625,24.1683 57.4213603,24.1683 Z M60.2422426,20.4992667 L60.8392279,20.4992667 L60.8392279,21.2138333 C61.1026287,20.7688 61.5207721,20.4121667 62.2103493,20.4121667 C63.1789706,20.4121667 63.7446691,21.0790667 63.7446691,22.0558 L63.7446691,24.6051 L63.1481066,24.6051 L63.1481066,22.2066 C63.1481066,21.4443667 62.7451838,20.9672667 62.0391176,20.9672667 C61.350386,20.9672667 60.8392279,21.4838 60.8392279,22.2542667 L60.8392279,24.6051 L60.2422426,24.6051 L60.2422426,20.4992667 Z M64.7674081,22.5558667 C64.7674081,21.3967 65.6510478,20.4121667 66.8204963,20.4121667 C67.5794118,20.4121667 68.0516728,20.7376 68.425,21.1423333 L68.0440625,21.5553 C67.7269669,21.2138333 67.3557537,20.9521 66.812886,20.9521 C65.9998529,20.9521 65.379614,21.6588667 65.379614,22.5558667 C65.379614,23.4450667 66.0154963,24.1518333 66.8517831,24.1518333 C67.3629412,24.1518333 67.7430331,23.8818667 68.0609743,23.5326 L68.4554412,23.9061333 C68.0516728,24.3663333 67.5709559,24.7 66.8204963,24.7 C65.6510478,24.7 64.7674081,23.7232667 64.7674081,22.5558667 Z M72.2605882,22.3097333 C72.1904044,21.5635333 71.7726838,20.9282667 70.9824816,20.9282667 C70.2929044,20.9282667 69.7652574,21.5158667 69.6802757,22.3097333 L72.2605882,22.3097333 Z M71.0907169,24.1683 C71.6403493,24.1683 72.0276287,23.9377667 72.3531801,23.5880667 L72.7256618,23.9299667 C72.322739,24.3901667 71.8344118,24.7 71.0746507,24.7 C69.9749632,24.7 69.0756801,23.8346333 69.0756801,22.5558667 C69.0756801,21.3650667 69.8899816,20.4121667 70.9972794,20.4121667 C72.1832169,20.4121667 72.8651838,21.3811 72.8651838,22.5879333 C72.8651838,22.6434 72.8651838,22.7071 72.8567279,22.8024333 L69.6802757,22.8024333 C69.7652574,23.6678 70.3854963,24.1683 71.0907169,24.1683 Z" id="Shape" fill="#1A1A1A"></path>
                    <path d="M9.99823529,7.60456667 C10.1707353,7.14696667 10.2569853,6.6534 10.2569853,6.12256667 C10.2569853,5.59216667 10.1707353,5.1012 9.99823529,4.64836667 C9.82573529,4.19596667 9.58474265,3.80856667 9.27483456,3.48616667 C8.96534926,3.16376667 8.60047794,2.91156667 8.17979779,2.72956667 C7.75827206,2.54756667 7.29911765,2.45656667 6.80191176,2.45656667 L2.31183824,2.45656667 L2.31183824,9.83493333 L6.80191176,9.83493333 C7.29911765,9.83493333 7.75827206,9.74176667 8.17979779,9.55456667 C8.60047794,9.3665 8.96534926,9.1104 9.27483456,8.78236667 C9.58474265,8.45433333 9.82573529,8.0626 9.99823529,7.60456667 Z M10.6679412,2.01933333 C11.1444301,2.50856667 11.5181801,3.09356667 11.7866544,3.77476667 C12.0555515,4.4564 12.19,5.20693333 12.19,6.02853333 C12.19,6.85056667 12.0555515,7.61496667 11.7866544,8.3213 C11.5181801,9.02893333 11.1444301,9.63993333 10.6679412,10.1556 C10.1906066,10.6691 9.62279412,11.0755667 8.9628125,11.3715333 C8.30367647,11.6683667 7.58323529,11.817 6.80191176,11.817 L0.394044118,11.817 L0.394044118,0.474933333 L6.80191176,0.474933333 C7.58323529,0.474933333 8.30367647,0.610133333 8.9628125,0.880533333 C9.62279412,1.15093333 10.1906066,1.5314 10.6679412,2.01933333 Z M20.112739,0.490966667 C20.2598713,0.605366667 20.3888235,0.761366667 20.500864,0.958966667 L26.8778676,11.817 L24.5491176,11.817 L22.8904963,8.96133333 L17.6541912,8.96133333 L18.5674265,7.35496667 L21.9616176,7.35496667 L19.4958824,3.11176667 L14.473511,11.817 L12.2665257,11.817 L18.6287316,0.958966667 C18.7399265,0.761366667 18.872261,0.605366667 19.0244669,0.490966667 C19.1758272,0.376566667 19.3588971,0.319366667 19.5719853,0.319366667 C19.7850735,0.319366667 19.9651838,0.376566667 20.112739,0.490966667 Z M35.3096507,0.474933333 L35.3096507,2.45656667 L31.1091912,2.45656667 L31.1091912,11.817 L29.1761765,11.817 L29.1761765,2.45656667 L24.9752941,2.45656667 L24.9752941,0.474933333 L35.3096507,0.474933333 Z M41.4211397,0.490966667 C41.5682721,0.605366667 41.6972243,0.761366667 41.8092647,0.958966667 L48.1866912,11.817 L45.8575184,11.817 L44.1988971,8.96133333 L38.9634375,8.96133333 L39.87625,7.35496667 L43.2700184,7.35496667 L40.8047059,3.11176667 L35.781489,11.817 L33.5753493,11.817 L39.9362868,0.958966667 C40.0491728,0.761366667 40.180239,0.605366667 40.3328676,0.490966667 C40.4850735,0.376566667 40.6677206,0.319366667 40.8808088,0.319366667 C41.0938971,0.319366667 41.2735846,0.376566667 41.4211397,0.490966667 Z M60.1953125,1.57516667 C60.5403125,1.92313333 60.8037132,2.34693333 60.9863603,2.84656667 C61.1698529,3.34576667 61.2611765,3.90736667 61.2611765,4.53136667 C61.2611765,5.14496667 61.1698529,5.70353333 60.9863603,6.20793333 C60.8037132,6.71276667 60.5403125,7.14696667 60.1953125,7.51053333 C59.8511581,7.87453333 59.4275184,8.15793333 58.9243934,8.36116667 C58.4225368,8.56353333 57.8517647,8.66493333 57.2129228,8.66493333 L52.7680882,8.66493333 L52.7680882,6.74656667 L57.2129228,6.74656667 C57.8923529,6.74656667 58.4225368,6.5494 58.8030515,6.15333333 C59.1835662,5.75856667 59.3738235,5.23856667 59.3738235,4.59376667 C59.3738235,3.93813333 59.1835662,3.41856667 58.8030515,3.03333333 C58.4225368,2.6494 57.8923529,2.45656667 57.2129228,2.45656667 L51.3525735,2.45656667 L51.3525735,11.817 L49.4347794,11.817 L49.4347794,0.474933333 L57.2129228,0.474933333 C57.8517647,0.474933333 58.4225368,0.571566667 58.9243934,0.763966667 C59.4275184,0.956366667 59.8511581,1.22633333 60.1953125,1.57516667 Z M63.0724265,11.8633667 L63.0724265,0.474933333 L65.0045956,0.474933333 L65.0045956,11.8633667 L63.0724265,11.8633667 Z M71.975625,5.17053333 L71.975625,0.474933333 L73.9090625,0.474933333 L73.9090625,11.8633667 L71.975625,11.8633667 L71.975625,6.93333333 L66.4053125,6.93333333 L66.4053125,5.17053333 L71.975625,5.17053333 Z M100.74296,8.68096667 L100.74296,0.381766667 L102.584651,0.381766667 L102.584651,10.7713667 C102.584651,11.1457667 102.495441,11.4369667 102.317022,11.6441 C102.140294,11.8525333 101.909026,11.9574 101.625754,11.9574 C101.311195,11.9574 101.016507,11.8161333 100.74296,11.5353333 L92.965239,3.51736667 L92.965239,11.8161333 L91.1235478,11.8161333 L91.1235478,1.521 C91.1235478,1.157 91.2119118,0.8684 91.3894853,0.6552 C91.5670588,0.441133333 91.8076287,0.3354 92.112886,0.3354 C92.2549449,0.3354 92.3919301,0.3666 92.5234191,0.428566667 C92.6553309,0.490966667 92.7918934,0.594966667 92.9347978,0.740566667 L100.74296,8.68096667 Z M106.982555,2.45656667 L106.982555,9.83493333 L114.958566,9.83493333 L114.958566,11.817 L105.065184,11.817 L105.065184,0.474933333 L114.942923,0.474933333 L114.942923,2.45656667 L106.982555,2.45656667 Z M108.398915,6.88696667 L108.398915,5.21776667 L114.532813,5.21776667 L114.532813,6.88696667 L108.398915,6.88696667 Z M78.0029779,4.64056667 C77.9264522,4.8399 77.869375,5.0505 77.82625,5.26846667 L75.8526471,5.26846667 C75.9105699,4.72853333 76.029375,4.22196667 76.2154044,3.75136667 C76.4834559,3.06496667 76.8593199,2.47996667 77.3408824,1.9968 C77.8228676,1.51276667 78.3911029,1.13836667 79.046011,0.872733333 C79.7000735,0.607966667 80.4133272,0.474933333 81.1849265,0.474933333 L83.1944669,0.474933333 L83.1944669,2.45656667 L81.1849265,2.45656667 C80.686875,2.45656667 80.2277206,2.54756667 79.8066176,2.72956667 C79.3863603,2.91156667 79.0227574,3.16376667 78.7191912,3.48616667 C78.4143566,3.80856667 78.1754779,4.19293333 78.0029779,4.64056667 Z M88.9013419,3.77476667 C89.1651654,4.4564 89.2970772,5.20693333 89.2970772,6.02853333 C89.2970772,6.85056667 89.1626287,7.61496667 88.8933088,8.3213 C88.6248346,9.02893333 88.2493934,9.63993333 87.7669853,10.1556 C87.2854228,10.6691 86.7150735,11.0755667 86.0550919,11.3715333 C85.3955331,11.6683667 84.6695956,11.817 83.8785478,11.817 L81.1849265,11.817 C80.4133272,11.817 79.7000735,11.6683667 79.046011,11.3715333 C78.3911029,11.0755667 77.8228676,10.6691 77.3408824,10.1556 C76.8593199,9.63993333 76.4834559,9.02893333 76.2154044,8.3213 C76.0221875,7.8156 75.9,7.28 75.8454596,6.71536667 L77.7865074,6.71536667 C77.8270956,7.02476667 77.8964338,7.32246667 78.0029779,7.60456667 C78.1754779,8.0626 78.4143566,8.45433333 78.7191912,8.78236667 C79.0227574,9.1104 79.3863603,9.3665 79.8066176,9.55456667 C80.2277206,9.74176667 80.686875,9.83493333 81.1849265,9.83493333 L83.8785478,9.83493333 C84.3854779,9.83493333 84.8526654,9.74176667 85.2788419,9.55456667 C85.7050184,9.3665 86.0724265,9.1104 86.3823346,8.78236667 C86.6909743,8.45433333 86.9311213,8.0626 87.1053125,7.60456667 C87.2782353,7.14696667 87.3640625,6.6534 87.3640625,6.12256667 C87.3640625,5.59216667 87.2782353,5.1012 87.1053125,4.64836667 C86.9311213,4.19596667 86.6909743,3.80856667 86.3823346,3.48616667 C86.0724265,3.16376667 85.7050184,2.91156667 85.2788419,2.72956667 C85.0649081,2.63813333 84.84125,2.5701 84.6065993,2.5246 L84.6065993,0.519566667 C85.12875,0.5772 85.6208824,0.6942 86.0775,0.880533333 C86.7421324,1.15093333 87.31375,1.5314 87.790239,2.01933333 C88.2671507,2.50856667 88.6370956,3.09356667 88.9013419,3.77476667 Z" id="Shape" fill="#E2241B"></path>
                </g>
            </g>
        </g>
    </g>
</svg>
