<?xml version="1.0" encoding="UTF-8"?>
<svg width="96px" height="96px" viewBox="0 0 96 96" version="1.1" xmlns="http://www.w3.org/2000/svg" xmlns:xlink="http://www.w3.org/1999/xlink">
    <!-- Generator: Sketch 54.1 (76490) - https://sketchapp.com -->
    <title>ramka</title>
    <desc>Created with Sketch.</desc>
    <g id="UI" stroke="none" stroke-width="1" fill="none" fill-rule="evenodd">
        <g id="Apple-TV" transform="translate(-166.000000, -2127.000000)" fill="#E2241B">
            <g id="Group-8" transform="translate(64.000000, 1984.000000)">
                <path d="M197.394837,147.925332 C197.797428,148.942683 198,150.064034 198,151.289386 L195.036394,151.289386 C195.021081,150.551814 194.895072,149.864647 194.646563,149.229481 C194.381465,148.554118 194.012371,147.976056 193.540235,147.494656 C193.066186,147.013257 192.50409,146.636815 191.852351,146.36533 C191.200294,146.093526 190.484754,145.957624 189.70924,145.957624 L185.587945,145.957624 L185.587945,143 L189.70924,143 C190.936154,143 192.057794,143.20162 193.073842,143.604541 C194.090847,144.008738 194.964935,144.575953 195.694193,145.305549 C196.424408,146.035783 196.990651,146.908619 197.394837,147.925332 Z M102.605163,147.925332 C103.009668,146.908619 103.575592,146.035783 104.305807,145.305549 C105.034746,144.575953 105.908834,144.008738 106.925839,143.604541 C107.941887,143.20162 109.063846,143 110.290441,143 L114.412055,143 L114.412055,145.957624 L110.290441,145.957624 C109.514927,145.957624 108.799706,146.093526 108.147649,146.36533 C107.49591,146.636815 106.933814,147.013257 106.459765,147.494656 C105.98731,147.976056 105.618535,148.554118 105.353118,149.229481 C105.104609,149.864647 104.978281,150.551814 104.963287,151.289386 L102,151.289386 C102,150.064034 102.202253,148.942683 102.605163,147.925332 Z M197.394837,234.074668 C196.990651,235.092019 196.424408,235.965174 195.694193,236.695408 C194.964935,237.424047 194.090847,237.991581 193.073842,238.396097 C192.057794,238.799018 190.936154,239 189.70924,239 L185.587945,239 L185.587945,236.042057 L189.70924,236.042057 C190.484754,236.042057 191.200294,235.906474 191.852351,235.635308 C192.50409,235.363504 193.066186,234.987062 193.540235,234.505663 C194.012371,234.024263 194.381465,233.445882 194.646563,232.770838 C194.895072,232.135353 195.021081,231.448186 195.036394,230.709976 L198,230.709976 C198,231.935647 197.797428,233.057955 197.394837,234.074668 Z M102.605163,234.074668 C102.202253,233.057955 102,231.935647 102,230.709976 L104.963287,230.709976 C104.978281,231.448186 105.104609,232.135353 105.353118,232.770838 C105.618535,233.445882 105.98731,234.024263 106.459765,234.505663 C106.933814,234.987062 107.49591,235.363504 108.147649,235.635308 C108.799706,235.906474 109.514927,236.042057 110.290441,236.042057 L114.412055,236.042057 L114.412055,239 L110.290441,239 C109.063846,239 107.941887,238.799018 106.925839,238.396097 C105.908834,237.991581 105.034746,237.424047 104.305807,236.695408 C103.575592,235.965174 103.009668,235.092019 102.605163,234.074668 Z" id="ramka"></path>
            </g>
        </g>
    </g>
</svg>