<svg width="20px" height="20px" viewBox="0 0 20 20" version="1.1" xmlns="http://www.w3.org/2000/svg" xmlns:xlink="http://www.w3.org/1999/xlink">
    <g id="UI" stroke="none" stroke-width="1" fill="none" fill-rule="evenodd">
        <g id="Apple-TV" transform="translate(-304.000000, -328.000000)" fill="#1A1A1A">
            <path d="M305,334.236459 C306.521625,331.018806 309.797314,328.792893 313.592893,328.792893 C318.839598,328.792893 323.092893,333.046188 323.092893,338.292893 C323.092893,343.539598 318.839598,347.792893 313.592893,347.792893 C309.582192,347.792893 306.151982,345.307513 304.758404,341.792893 L305.844633,341.792893 C307.178622,344.741418 310.146184,346.792893 313.592893,346.792893 C318.287314,346.792893 322.092893,342.987314 322.092893,338.292893 C322.092893,333.598473 318.287314,329.792893 313.592893,329.792893 C310.066045,329.792893 307.040885,331.940874 305.754248,335 L311.5,335 C311.776142,335 312,335.223858 312,335.5 C312,335.776142 311.776142,336 311.5,336 L304.5,336 C304.223858,336 304,335.776142 304,335.5 L304,328.5 C304,328.223858 304.223858,328 304.5,328 C304.776142,328 305,328.223858 305,328.5 L305,334.236459 L305,334.236459 Z" id="rotate"></path>
        </g>
    </g>
</svg>
