<?xml version="1.0" encoding="UTF-8"?>
<svg width="15px" height="15px" viewBox="0 0 15 15" version="1.1" xmlns="http://www.w3.org/2000/svg" xmlns:xlink="http://www.w3.org/1999/xlink">
    <!-- Generator: Sketch 54.1 (76490) - https://sketchapp.com -->
    <title>search</title>
    <desc>Created with Sketch.</desc>
    <g id="UI" stroke="none" stroke-width="1" fill="none" fill-rule="evenodd">
        <g id="Apple-TV" transform="translate(-415.000000, -333.000000)" fill="#1A1A1A" fill-rule="nonzero">
            <path d="M420.582557,343.150103 C423.105143,343.150103 425.150103,341.105143 425.150103,338.582557 C425.150103,336.059971 423.105143,334.01501 420.582557,334.01501 C418.059971,334.01501 416.01501,336.059971 416.01501,338.582557 C416.01501,341.105143 418.059971,343.150103 420.582557,343.150103 Z M424.872635,342.154914 L430,347.282279 L429.282279,348 L424.154914,342.872635 C423.186851,343.679622 421.9414,344.165114 420.582557,344.165114 C417.499396,344.165114 415,341.665718 415,338.582557 C415,335.499396 417.499396,333 420.582557,333 C423.665718,333 426.165114,335.499396 426.165114,338.582557 C426.165114,339.9414 425.679622,341.186851 424.872635,342.154914 Z" id="search"></path>
        </g>
    </g>
</svg>