<svg width="600px" height="350px" viewBox="0 0 600 350" version="1.1" xmlns="http://www.w3.org/2000/svg" xmlns:xlink="http://www.w3.org/1999/xlink">
    <g id="UI" stroke="none" stroke-width="1" fill="none" fill-rule="evenodd">
        <g id="Apple-TV-Copy-3" transform="translate(-251.000000, -116.000000)" fill="#FFFFFF" fill-rule="nonzero">
            <path d="M545.469765,129.712652 C545.34287,129.289668 544.953547,129 544.511939,129 L543.5,129 C543.223858,129 543,128.776142 543,128.5 C543,128.223858 543.223858,128 543.5,128 L544.511939,128 C545.395155,128 546.173801,128.579336 546.427591,129.425304 L548.530235,136.287348 C548.65713,136.710332 549.046453,137 549.488061,137 L555,137 C555.552285,137 556,136.552285 556,136 L556,133 C556,132.447715 555.552285,132 555,132 L550.5,132 C550.223858,132 550,131.776142 550,131.5 C550,131.223858 550.223858,131 550.5,131 L555,131 C556.104569,131 557,131.895431 557,133 L557,136 C557,137.104569 556.104569,138 555,138 L549.488061,138 C548.604845,138 547.826199,137.420664 547.572409,136.574696 L545.469765,129.712652 Z M554,142 C553.447715,142 553,141.552285 553,141 C553,140.447715 553.447715,140 554,140 C554.552285,140 555,140.447715 555,141 C555,141.552285 554.552285,142 554,142 Z M550,142 C549.447715,142 549,141.552285 549,141 C549,140.447715 549.447715,140 550,140 C550.552285,140 551,140.447715 551,141 C551,141.552285 550.552285,142 550,142 Z M541,117 C538.238576,117 536,119.238576 536,122 L536,156 C536,158.761424 538.238576,161 541,161 L561,161 C563.761424,161 566,158.761424 566,156 L566,122 C566,119.238576 563.761424,117 561,117 L541,117 Z M541,116 L561,116 C564.313708,116 567,118.686292 567,122 L567,156 C567,159.313708 564.313708,162 561,162 L541,162 C537.686292,162 535,159.313708 535,156 L535,122 C535,118.686292 537.686292,116 541,116 Z M551,158.5 C549.067003,158.5 547.5,156.932997 547.5,155 C547.5,153.067003 549.067003,151.5 551,151.5 C552.932997,151.5 554.5,153.067003 554.5,155 C554.5,156.932997 552.932997,158.5 551,158.5 Z M551,157.5 C552.380712,157.5 553.5,156.380712 553.5,155 C553.5,153.619288 552.380712,152.5 551,152.5 C549.619288,152.5 548.5,153.619288 548.5,155 C548.5,156.380712 549.619288,157.5 551,157.5 Z M687.469765,129.712652 C687.34287,129.289668 686.953547,129 686.511939,129 L685.5,129 C685.223858,129 685,128.776142 685,128.5 C685,128.223858 685.223858,128 685.5,128 L686.511939,128 C687.395155,128 688.173801,128.579336 688.427591,129.425304 L690.530235,136.287348 C690.65713,136.710332 691.046453,137 691.488061,137 L697,137 C697.552285,137 698,136.552285 698,136 L698,133 C698,132.447715 697.552285,132 697,132 L692.5,132 C692.223858,132 692,131.776142 692,131.5 C692,131.223858 692.223858,131 692.5,131 L697,131 C698.104569,131 699,131.895431 699,133 L699,136 C699,137.104569 698.104569,138 697,138 L691.488061,138 C690.604845,138 689.826199,137.420664 689.572409,136.574696 L687.469765,129.712652 Z M696,142 C695.447715,142 695,141.552285 695,141 C695,140.447715 695.447715,140 696,140 C696.552285,140 697,140.447715 697,141 C697,141.552285 696.552285,142 696,142 Z M692,142 C691.447715,142 691,141.552285 691,141 C691,140.447715 691.447715,140 692,140 C692.552285,140 693,140.447715 693,141 C693,141.552285 692.552285,142 692,142 Z M683,117 C680.238576,117 678,119.238576 678,122 L678,156 C678,158.761424 680.238576,161 683,161 L703,161 C705.761424,161 708,158.761424 708,156 L708,122 C708,119.238576 705.761424,117 703,117 L683,117 Z M683,116 L703,116 C706.313708,116 709,118.686292 709,122 L709,156 C709,159.313708 706.313708,162 703,162 L683,162 C679.686292,162 677,159.313708 677,156 L677,122 C677,118.686292 679.686292,116 683,116 Z M693,158.5 C691.067003,158.5 689.5,156.932997 689.5,155 C689.5,153.067003 691.067003,151.5 693,151.5 C694.932997,151.5 696.5,153.067003 696.5,155 C696.5,156.932997 694.932997,158.5 693,158.5 Z M693,157.5 C694.380712,157.5 695.5,156.380712 695.5,155 C695.5,153.619288 694.380712,152.5 693,152.5 C691.619288,152.5 690.5,153.619288 690.5,155 C690.5,156.380712 691.619288,157.5 693,157.5 Z M829.469765,129.712652 C829.34287,129.289668 828.953547,129 828.511939,129 L827.5,129 C827.223858,129 827,128.776142 827,128.5 C827,128.223858 827.223858,128 827.5,128 L828.511939,128 C829.395155,128 830.173801,128.579336 830.427591,129.425304 L832.530235,136.287348 C832.65713,136.710332 833.046453,137 833.488061,137 L839,137 C839.552285,137 840,136.552285 840,136 L840,133 C840,132.447715 839.552285,132 839,132 L834.5,132 C834.223858,132 834,131.776142 834,131.5 C834,131.223858 834.223858,131 834.5,131 L839,131 C840.104569,131 841,131.895431 841,133 L841,136 C841,137.104569 840.104569,138 839,138 L833.488061,138 C832.604845,138 831.826199,137.420664 831.572409,136.574696 L829.469765,129.712652 Z M838,142 C837.447715,142 837,141.552285 837,141 C837,140.447715 837.447715,140 838,140 C838.552285,140 839,140.447715 839,141 C839,141.552285 838.552285,142 838,142 Z M834,142 C833.447715,142 833,141.552285 833,141 C833,140.447715 833.447715,140 834,140 C834.552285,140 835,140.447715 835,141 C835,141.552285 834.552285,142 834,142 Z M825,117 C822.238576,117 820,119.238576 820,122 L820,156 C820,158.761424 822.238576,161 825,161 L845,161 C847.761424,161 850,158.761424 850,156 L850,122 C850,119.238576 847.761424,117 845,117 L825,117 Z M825,116 L845,116 C848.313708,116 851,118.686292 851,122 L851,156 C851,159.313708 848.313708,162 845,162 L825,162 C821.686292,162 819,159.313708 819,156 L819,122 C819,118.686292 821.686292,116 825,116 Z M835,158.5 C833.067003,158.5 831.5,156.932997 831.5,155 C831.5,153.067003 833.067003,151.5 835,151.5 C836.932997,151.5 838.5,153.067003 838.5,155 C838.5,156.932997 836.932997,158.5 835,158.5 Z M835,157.5 C836.380712,157.5 837.5,156.380712 837.5,155 C837.5,153.619288 836.380712,152.5 835,152.5 C833.619288,152.5 832.5,153.619288 832.5,155 C832.5,156.380712 833.619288,157.5 835,157.5 Z M403.469765,281.712652 C403.34287,281.289668 402.953547,281 402.511939,281 L401.5,281 C401.223858,281 401,280.776142 401,280.5 C401,280.223858 401.223858,280 401.5,280 L402.511939,280 C403.395155,280 404.173801,280.579336 404.427591,281.425304 L406.530235,288.287348 C406.65713,288.710332 407.046453,289 407.488061,289 L413,289 C413.552285,289 414,288.552285 414,288 L414,285 C414,284.447715 413.552285,284 413,284 L408.5,284 C408.223858,284 408,283.776142 408,283.5 C408,283.223858 408.223858,283 408.5,283 L413,283 C414.104569,283 415,283.895431 415,285 L415,288 C415,289.104569 414.104569,290 413,290 L407.488061,290 C406.604845,290 405.826199,289.420664 405.572409,288.574696 L403.469765,281.712652 Z M412,294 C411.447715,294 411,293.552285 411,293 C411,292.447715 411.447715,292 412,292 C412.552285,292 413,292.447715 413,293 C413,293.552285 412.552285,294 412,294 Z M408,294 C407.447715,294 407,293.552285 407,293 C407,292.447715 407.447715,292 408,292 C408.552285,292 409,292.447715 409,293 C409,293.552285 408.552285,294 408,294 Z M399,269 C396.238576,269 394,271.238576 394,274 L394,308 C394,310.761424 396.238576,313 399,313 L419,313 C421.761424,313 424,310.761424 424,308 L424,274 C424,271.238576 421.761424,269 419,269 L399,269 Z M399,268 L419,268 C422.313708,268 425,270.686292 425,274 L425,308 C425,311.313708 422.313708,314 419,314 L399,314 C395.686292,314 393,311.313708 393,308 L393,274 C393,270.686292 395.686292,268 399,268 Z M409,310.5 C407.067003,310.5 405.5,308.932997 405.5,307 C405.5,305.067003 407.067003,303.5 409,303.5 C410.932997,303.5 412.5,305.067003 412.5,307 C412.5,308.932997 410.932997,310.5 409,310.5 Z M409,309.5 C410.380712,309.5 411.5,308.380712 411.5,307 C411.5,305.619288 410.380712,304.5 409,304.5 C407.619288,304.5 406.5,305.619288 406.5,307 C406.5,308.380712 407.619288,309.5 409,309.5 Z M545.469765,281.712652 C545.34287,281.289668 544.953547,281 544.511939,281 L543.5,281 C543.223858,281 543,280.776142 543,280.5 C543,280.223858 543.223858,280 543.5,280 L544.511939,280 C545.395155,280 546.173801,280.579336 546.427591,281.425304 L548.530235,288.287348 C548.65713,288.710332 549.046453,289 549.488061,289 L555,289 C555.552285,289 556,288.552285 556,288 L556,285 C556,284.447715 555.552285,284 555,284 L550.5,284 C550.223858,284 550,283.776142 550,283.5 C550,283.223858 550.223858,283 550.5,283 L555,283 C556.104569,283 557,283.895431 557,285 L557,288 C557,289.104569 556.104569,290 555,290 L549.488061,290 C548.604845,290 547.826199,289.420664 547.572409,288.574696 L545.469765,281.712652 Z M554,294 C553.447715,294 553,293.552285 553,293 C553,292.447715 553.447715,292 554,292 C554.552285,292 555,292.447715 555,293 C555,293.552285 554.552285,294 554,294 Z M550,294 C549.447715,294 549,293.552285 549,293 C549,292.447715 549.447715,292 550,292 C550.552285,292 551,292.447715 551,293 C551,293.552285 550.552285,294 550,294 Z M541,269 C538.238576,269 536,271.238576 536,274 L536,308 C536,310.761424 538.238576,313 541,313 L561,313 C563.761424,313 566,310.761424 566,308 L566,274 C566,271.238576 563.761424,269 561,269 L541,269 Z M541,268 L561,268 C564.313708,268 567,270.686292 567,274 L567,308 C567,311.313708 564.313708,314 561,314 L541,314 C537.686292,314 535,311.313708 535,308 L535,274 C535,270.686292 537.686292,268 541,268 Z M551,310.5 C549.067003,310.5 547.5,308.932997 547.5,307 C547.5,305.067003 549.067003,303.5 551,303.5 C552.932997,303.5 554.5,305.067003 554.5,307 C554.5,308.932997 552.932997,310.5 551,310.5 Z M551,309.5 C552.380712,309.5 553.5,308.380712 553.5,307 C553.5,305.619288 552.380712,304.5 551,304.5 C549.619288,304.5 548.5,305.619288 548.5,307 C548.5,308.380712 549.619288,309.5 551,309.5 Z M687.469765,281.712652 C687.34287,281.289668 686.953547,281 686.511939,281 L685.5,281 C685.223858,281 685,280.776142 685,280.5 C685,280.223858 685.223858,280 685.5,280 L686.511939,280 C687.395155,280 688.173801,280.579336 688.427591,281.425304 L690.530235,288.287348 C690.65713,288.710332 691.046453,289 691.488061,289 L697,289 C697.552285,289 698,288.552285 698,288 L698,285 C698,284.447715 697.552285,284 697,284 L692.5,284 C692.223858,284 692,283.776142 692,283.5 C692,283.223858 692.223858,283 692.5,283 L697,283 C698.104569,283 699,283.895431 699,285 L699,288 C699,289.104569 698.104569,290 697,290 L691.488061,290 C690.604845,290 689.826199,289.420664 689.572409,288.574696 L687.469765,281.712652 Z M696,294 C695.447715,294 695,293.552285 695,293 C695,292.447715 695.447715,292 696,292 C696.552285,292 697,292.447715 697,293 C697,293.552285 696.552285,294 696,294 Z M692,294 C691.447715,294 691,293.552285 691,293 C691,292.447715 691.447715,292 692,292 C692.552285,292 693,292.447715 693,293 C693,293.552285 692.552285,294 692,294 Z M683,269 C680.238576,269 678,271.238576 678,274 L678,308 C678,310.761424 680.238576,313 683,313 L703,313 C705.761424,313 708,310.761424 708,308 L708,274 C708,271.238576 705.761424,269 703,269 L683,269 Z M683,268 L703,268 C706.313708,268 709,270.686292 709,274 L709,308 C709,311.313708 706.313708,314 703,314 L683,314 C679.686292,314 677,311.313708 677,308 L677,274 C677,270.686292 679.686292,268 683,268 Z M693,310.5 C691.067003,310.5 689.5,308.932997 689.5,307 C689.5,305.067003 691.067003,303.5 693,303.5 C694.932997,303.5 696.5,305.067003 696.5,307 C696.5,308.932997 694.932997,310.5 693,310.5 Z M693,309.5 C694.380712,309.5 695.5,308.380712 695.5,307 C695.5,305.619288 694.380712,304.5 693,304.5 C691.619288,304.5 690.5,305.619288 690.5,307 C690.5,308.380712 691.619288,309.5 693,309.5 Z M474.469765,205.712652 C474.34287,205.289668 473.953547,205 473.511939,205 L472.5,205 C472.223858,205 472,204.776142 472,204.5 C472,204.223858 472.223858,204 472.5,204 L473.511939,204 C474.395155,204 475.173801,204.579336 475.427591,205.425304 L477.530235,212.287348 C477.65713,212.710332 478.046453,213 478.488061,213 L484,213 C484.552285,213 485,212.552285 485,212 L485,209 C485,208.447715 484.552285,208 484,208 L479.5,208 C479.223858,208 479,207.776142 479,207.5 C479,207.223858 479.223858,207 479.5,207 L484,207 C485.104569,207 486,207.895431 486,209 L486,212 C486,213.104569 485.104569,214 484,214 L478.488061,214 C477.604845,214 476.826199,213.420664 476.572409,212.574696 L474.469765,205.712652 Z M483,218 C482.447715,218 482,217.552285 482,217 C482,216.447715 482.447715,216 483,216 C483.552285,216 484,216.447715 484,217 C484,217.552285 483.552285,218 483,218 Z M479,218 C478.447715,218 478,217.552285 478,217 C478,216.447715 478.447715,216 479,216 C479.552285,216 480,216.447715 480,217 C480,217.552285 479.552285,218 479,218 Z M470,193 C467.238576,193 465,195.238576 465,198 L465,232 C465,234.761424 467.238576,237 470,237 L490,237 C492.761424,237 495,234.761424 495,232 L495,198 C495,195.238576 492.761424,193 490,193 L470,193 Z M470,192 L490,192 C493.313708,192 496,194.686292 496,198 L496,232 C496,235.313708 493.313708,238 490,238 L470,238 C466.686292,238 464,235.313708 464,232 L464,198 C464,194.686292 466.686292,192 470,192 Z M480,234.5 C478.067003,234.5 476.5,232.932997 476.5,231 C476.5,229.067003 478.067003,227.5 480,227.5 C481.932997,227.5 483.5,229.067003 483.5,231 C483.5,232.932997 481.932997,234.5 480,234.5 Z M480,233.5 C481.380712,233.5 482.5,232.380712 482.5,231 C482.5,229.619288 481.380712,228.5 480,228.5 C478.619288,228.5 477.5,229.619288 477.5,231 C477.5,232.380712 478.619288,233.5 480,233.5 Z M616.469765,205.712652 C616.34287,205.289668 615.953547,205 615.511939,205 L614.5,205 C614.223858,205 614,204.776142 614,204.5 C614,204.223858 614.223858,204 614.5,204 L615.511939,204 C616.395155,204 617.173801,204.579336 617.427591,205.425304 L619.530235,212.287348 C619.65713,212.710332 620.046453,213 620.488061,213 L626,213 C626.552285,213 627,212.552285 627,212 L627,209 C627,208.447715 626.552285,208 626,208 L621.5,208 C621.223858,208 621,207.776142 621,207.5 C621,207.223858 621.223858,207 621.5,207 L626,207 C627.104569,207 628,207.895431 628,209 L628,212 C628,213.104569 627.104569,214 626,214 L620.488061,214 C619.604845,214 618.826199,213.420664 618.572409,212.574696 L616.469765,205.712652 Z M625,218 C624.447715,218 624,217.552285 624,217 C624,216.447715 624.447715,216 625,216 C625.552285,216 626,216.447715 626,217 C626,217.552285 625.552285,218 625,218 Z M621,218 C620.447715,218 620,217.552285 620,217 C620,216.447715 620.447715,216 621,216 C621.552285,216 622,216.447715 622,217 C622,217.552285 621.552285,218 621,218 Z M612,193 C609.238576,193 607,195.238576 607,198 L607,232 C607,234.761424 609.238576,237 612,237 L632,237 C634.761424,237 637,234.761424 637,232 L637,198 C637,195.238576 634.761424,193 632,193 L612,193 Z M612,192 L632,192 C635.313708,192 638,194.686292 638,198 L638,232 C638,235.313708 635.313708,238 632,238 L612,238 C608.686292,238 606,235.313708 606,232 L606,198 C606,194.686292 608.686292,192 612,192 Z M622,234.5 C620.067003,234.5 618.5,232.932997 618.5,231 C618.5,229.067003 620.067003,227.5 622,227.5 C623.932997,227.5 625.5,229.067003 625.5,231 C625.5,232.932997 623.932997,234.5 622,234.5 Z M622,233.5 C623.380712,233.5 624.5,232.380712 624.5,231 C624.5,229.619288 623.380712,228.5 622,228.5 C620.619288,228.5 619.5,229.619288 619.5,231 C619.5,232.380712 620.619288,233.5 622,233.5 Z M758.469765,205.712652 C758.34287,205.289668 757.953547,205 757.511939,205 L756.5,205 C756.223858,205 756,204.776142 756,204.5 C756,204.223858 756.223858,204 756.5,204 L757.511939,204 C758.395155,204 759.173801,204.579336 759.427591,205.425304 L761.530235,212.287348 C761.65713,212.710332 762.046453,213 762.488061,213 L768,213 C768.552285,213 769,212.552285 769,212 L769,209 C769,208.447715 768.552285,208 768,208 L763.5,208 C763.223858,208 763,207.776142 763,207.5 C763,207.223858 763.223858,207 763.5,207 L768,207 C769.104569,207 770,207.895431 770,209 L770,212 C770,213.104569 769.104569,214 768,214 L762.488061,214 C761.604845,214 760.826199,213.420664 760.572409,212.574696 L758.469765,205.712652 Z M767,218 C766.447715,218 766,217.552285 766,217 C766,216.447715 766.447715,216 767,216 C767.552285,216 768,216.447715 768,217 C768,217.552285 767.552285,218 767,218 Z M763,218 C762.447715,218 762,217.552285 762,217 C762,216.447715 762.447715,216 763,216 C763.552285,216 764,216.447715 764,217 C764,217.552285 763.552285,218 763,218 Z M754,193 C751.238576,193 749,195.238576 749,198 L749,232 C749,234.761424 751.238576,237 754,237 L774,237 C776.761424,237 779,234.761424 779,232 L779,198 C779,195.238576 776.761424,193 774,193 L754,193 Z M754,192 L774,192 C777.313708,192 780,194.686292 780,198 L780,232 C780,235.313708 777.313708,238 774,238 L754,238 C750.686292,238 748,235.313708 748,232 L748,198 C748,194.686292 750.686292,192 754,192 Z M764,234.5 C762.067003,234.5 760.5,232.932997 760.5,231 C760.5,229.067003 762.067003,227.5 764,227.5 C765.932997,227.5 767.5,229.067003 767.5,231 C767.5,232.932997 765.932997,234.5 764,234.5 Z M764,233.5 C765.380712,233.5 766.5,232.380712 766.5,231 C766.5,229.619288 765.380712,228.5 764,228.5 C762.619288,228.5 761.5,229.619288 761.5,231 C761.5,232.380712 762.619288,233.5 764,233.5 Z M332.469765,357.712652 C332.34287,357.289668 331.953547,357 331.511939,357 L330.5,357 C330.223858,357 330,356.776142 330,356.5 C330,356.223858 330.223858,356 330.5,356 L331.511939,356 C332.395155,356 333.173801,356.579336 333.427591,357.425304 L335.530235,364.287348 C335.65713,364.710332 336.046453,365 336.488061,365 L342,365 C342.552285,365 343,364.552285 343,364 L343,361 C343,360.447715 342.552285,360 342,360 L337.5,360 C337.223858,360 337,359.776142 337,359.5 C337,359.223858 337.223858,359 337.5,359 L342,359 C343.104569,359 344,359.895431 344,361 L344,364 C344,365.104569 343.104569,366 342,366 L336.488061,366 C335.604845,366 334.826199,365.420664 334.572409,364.574696 L332.469765,357.712652 Z M341,370 C340.447715,370 340,369.552285 340,369 C340,368.447715 340.447715,368 341,368 C341.552285,368 342,368.447715 342,369 C342,369.552285 341.552285,370 341,370 Z M337,370 C336.447715,370 336,369.552285 336,369 C336,368.447715 336.447715,368 337,368 C337.552285,368 338,368.447715 338,369 C338,369.552285 337.552285,370 337,370 Z M328,345 C325.238576,345 323,347.238576 323,350 L323,384 C323,386.761424 325.238576,389 328,389 L348,389 C350.761424,389 353,386.761424 353,384 L353,350 C353,347.238576 350.761424,345 348,345 L328,345 Z M328,344 L348,344 C351.313708,344 354,346.686292 354,350 L354,384 C354,387.313708 351.313708,390 348,390 L328,390 C324.686292,390 322,387.313708 322,384 L322,350 C322,346.686292 324.686292,344 328,344 Z M338,386.5 C336.067003,386.5 334.5,384.932997 334.5,383 C334.5,381.067003 336.067003,379.5 338,379.5 C339.932997,379.5 341.5,381.067003 341.5,383 C341.5,384.932997 339.932997,386.5 338,386.5 Z M338,385.5 C339.380712,385.5 340.5,384.380712 340.5,383 C340.5,381.619288 339.380712,380.5 338,380.5 C336.619288,380.5 335.5,381.619288 335.5,383 C335.5,384.380712 336.619288,385.5 338,385.5 Z M474.469765,357.712652 C474.34287,357.289668 473.953547,357 473.511939,357 L472.5,357 C472.223858,357 472,356.776142 472,356.5 C472,356.223858 472.223858,356 472.5,356 L473.511939,356 C474.395155,356 475.173801,356.579336 475.427591,357.425304 L477.530235,364.287348 C477.65713,364.710332 478.046453,365 478.488061,365 L484,365 C484.552285,365 485,364.552285 485,364 L485,361 C485,360.447715 484.552285,360 484,360 L479.5,360 C479.223858,360 479,359.776142 479,359.5 C479,359.223858 479.223858,359 479.5,359 L484,359 C485.104569,359 486,359.895431 486,361 L486,364 C486,365.104569 485.104569,366 484,366 L478.488061,366 C477.604845,366 476.826199,365.420664 476.572409,364.574696 L474.469765,357.712652 Z M483,370 C482.447715,370 482,369.552285 482,369 C482,368.447715 482.447715,368 483,368 C483.552285,368 484,368.447715 484,369 C484,369.552285 483.552285,370 483,370 Z M479,370 C478.447715,370 478,369.552285 478,369 C478,368.447715 478.447715,368 479,368 C479.552285,368 480,368.447715 480,369 C480,369.552285 479.552285,370 479,370 Z M470,345 C467.238576,345 465,347.238576 465,350 L465,384 C465,386.761424 467.238576,389 470,389 L490,389 C492.761424,389 495,386.761424 495,384 L495,350 C495,347.238576 492.761424,345 490,345 L470,345 Z M470,344 L490,344 C493.313708,344 496,346.686292 496,350 L496,384 C496,387.313708 493.313708,390 490,390 L470,390 C466.686292,390 464,387.313708 464,384 L464,350 C464,346.686292 466.686292,344 470,344 Z M480,386.5 C478.067003,386.5 476.5,384.932997 476.5,383 C476.5,381.067003 478.067003,379.5 480,379.5 C481.932997,379.5 483.5,381.067003 483.5,383 C483.5,384.932997 481.932997,386.5 480,386.5 Z M480,385.5 C481.380712,385.5 482.5,384.380712 482.5,383 C482.5,381.619288 481.380712,380.5 480,380.5 C478.619288,380.5 477.5,381.619288 477.5,383 C477.5,384.380712 478.619288,385.5 480,385.5 Z M616.469765,357.712652 C616.34287,357.289668 615.953547,357 615.511939,357 L614.5,357 C614.223858,357 614,356.776142 614,356.5 C614,356.223858 614.223858,356 614.5,356 L615.511939,356 C616.395155,356 617.173801,356.579336 617.427591,357.425304 L619.530235,364.287348 C619.65713,364.710332 620.046453,365 620.488061,365 L626,365 C626.552285,365 627,364.552285 627,364 L627,361 C627,360.447715 626.552285,360 626,360 L621.5,360 C621.223858,360 621,359.776142 621,359.5 C621,359.223858 621.223858,359 621.5,359 L626,359 C627.104569,359 628,359.895431 628,361 L628,364 C628,365.104569 627.104569,366 626,366 L620.488061,366 C619.604845,366 618.826199,365.420664 618.572409,364.574696 L616.469765,357.712652 Z M625,370 C624.447715,370 624,369.552285 624,369 C624,368.447715 624.447715,368 625,368 C625.552285,368 626,368.447715 626,369 C626,369.552285 625.552285,370 625,370 Z M621,370 C620.447715,370 620,369.552285 620,369 C620,368.447715 620.447715,368 621,368 C621.552285,368 622,368.447715 622,369 C622,369.552285 621.552285,370 621,370 Z M612,345 C609.238576,345 607,347.238576 607,350 L607,384 C607,386.761424 609.238576,389 612,389 L632,389 C634.761424,389 637,386.761424 637,384 L637,350 C637,347.238576 634.761424,345 632,345 L612,345 Z M612,344 L632,344 C635.313708,344 638,346.686292 638,350 L638,384 C638,387.313708 635.313708,390 632,390 L612,390 C608.686292,390 606,387.313708 606,384 L606,350 C606,346.686292 608.686292,344 612,344 Z M622,386.5 C620.067003,386.5 618.5,384.932997 618.5,383 C618.5,381.067003 620.067003,379.5 622,379.5 C623.932997,379.5 625.5,381.067003 625.5,383 C625.5,384.932997 623.932997,386.5 622,386.5 Z M622,385.5 C623.380712,385.5 624.5,384.380712 624.5,383 C624.5,381.619288 623.380712,380.5 622,380.5 C620.619288,380.5 619.5,381.619288 619.5,383 C619.5,384.380712 620.619288,385.5 622,385.5 Z M261.469765,433.712652 C261.34287,433.289668 260.953547,433 260.511939,433 L259.5,433 C259.223858,433 259,432.776142 259,432.5 C259,432.223858 259.223858,432 259.5,432 L260.511939,432 C261.395155,432 262.173801,432.579336 262.427591,433.425304 L264.530235,440.287348 C264.65713,440.710332 265.046453,441 265.488061,441 L271,441 C271.552285,441 272,440.552285 272,440 L272,437 C272,436.447715 271.552285,436 271,436 L266.5,436 C266.223858,436 266,435.776142 266,435.5 C266,435.223858 266.223858,435 266.5,435 L271,435 C272.104569,435 273,435.895431 273,437 L273,440 C273,441.104569 272.104569,442 271,442 L265.488061,442 C264.604845,442 263.826199,441.420664 263.572409,440.574696 L261.469765,433.712652 Z M270,446 C269.447715,446 269,445.552285 269,445 C269,444.447715 269.447715,444 270,444 C270.552285,444 271,444.447715 271,445 C271,445.552285 270.552285,446 270,446 Z M266,446 C265.447715,446 265,445.552285 265,445 C265,444.447715 265.447715,444 266,444 C266.552285,444 267,444.447715 267,445 C267,445.552285 266.552285,446 266,446 Z M257,421 C254.238576,421 252,423.238576 252,426 L252,460 C252,462.761424 254.238576,465 257,465 L277,465 C279.761424,465 282,462.761424 282,460 L282,426 C282,423.238576 279.761424,421 277,421 L257,421 Z M257,420 L277,420 C280.313708,420 283,422.686292 283,426 L283,460 C283,463.313708 280.313708,466 277,466 L257,466 C253.686292,466 251,463.313708 251,460 L251,426 C251,422.686292 253.686292,420 257,420 Z M267,462.5 C265.067003,462.5 263.5,460.932997 263.5,459 C263.5,457.067003 265.067003,455.5 267,455.5 C268.932997,455.5 270.5,457.067003 270.5,459 C270.5,460.932997 268.932997,462.5 267,462.5 Z M267,461.5 C268.380712,461.5 269.5,460.380712 269.5,459 C269.5,457.619288 268.380712,456.5 267,456.5 C265.619288,456.5 264.5,457.619288 264.5,459 C264.5,460.380712 265.619288,461.5 267,461.5 Z M403.469765,433.712652 C403.34287,433.289668 402.953547,433 402.511939,433 L401.5,433 C401.223858,433 401,432.776142 401,432.5 C401,432.223858 401.223858,432 401.5,432 L402.511939,432 C403.395155,432 404.173801,432.579336 404.427591,433.425304 L406.530235,440.287348 C406.65713,440.710332 407.046453,441 407.488061,441 L413,441 C413.552285,441 414,440.552285 414,440 L414,437 C414,436.447715 413.552285,436 413,436 L408.5,436 C408.223858,436 408,435.776142 408,435.5 C408,435.223858 408.223858,435 408.5,435 L413,435 C414.104569,435 415,435.895431 415,437 L415,440 C415,441.104569 414.104569,442 413,442 L407.488061,442 C406.604845,442 405.826199,441.420664 405.572409,440.574696 L403.469765,433.712652 Z M412,446 C411.447715,446 411,445.552285 411,445 C411,444.447715 411.447715,444 412,444 C412.552285,444 413,444.447715 413,445 C413,445.552285 412.552285,446 412,446 Z M408,446 C407.447715,446 407,445.552285 407,445 C407,444.447715 407.447715,444 408,444 C408.552285,444 409,444.447715 409,445 C409,445.552285 408.552285,446 408,446 Z M399,421 C396.238576,421 394,423.238576 394,426 L394,460 C394,462.761424 396.238576,465 399,465 L419,465 C421.761424,465 424,462.761424 424,460 L424,426 C424,423.238576 421.761424,421 419,421 L399,421 Z M399,420 L419,420 C422.313708,420 425,422.686292 425,426 L425,460 C425,463.313708 422.313708,466 419,466 L399,466 C395.686292,466 393,463.313708 393,460 L393,426 C393,422.686292 395.686292,420 399,420 Z M409,462.5 C407.067003,462.5 405.5,460.932997 405.5,459 C405.5,457.067003 407.067003,455.5 409,455.5 C410.932997,455.5 412.5,457.067003 412.5,459 C412.5,460.932997 410.932997,462.5 409,462.5 Z M409,461.5 C410.380712,461.5 411.5,460.380712 411.5,459 C411.5,457.619288 410.380712,456.5 409,456.5 C407.619288,456.5 406.5,457.619288 406.5,459 C406.5,460.380712 407.619288,461.5 409,461.5 Z M545.469765,433.712652 C545.34287,433.289668 544.953547,433 544.511939,433 L543.5,433 C543.223858,433 543,432.776142 543,432.5 C543,432.223858 543.223858,432 543.5,432 L544.511939,432 C545.395155,432 546.173801,432.579336 546.427591,433.425304 L548.530235,440.287348 C548.65713,440.710332 549.046453,441 549.488061,441 L555,441 C555.552285,441 556,440.552285 556,440 L556,437 C556,436.447715 555.552285,436 555,436 L550.5,436 C550.223858,436 550,435.776142 550,435.5 C550,435.223858 550.223858,435 550.5,435 L555,435 C556.104569,435 557,435.895431 557,437 L557,440 C557,441.104569 556.104569,442 555,442 L549.488061,442 C548.604845,442 547.826199,441.420664 547.572409,440.574696 L545.469765,433.712652 Z M554,446 C553.447715,446 553,445.552285 553,445 C553,444.447715 553.447715,444 554,444 C554.552285,444 555,444.447715 555,445 C555,445.552285 554.552285,446 554,446 Z M550,446 C549.447715,446 549,445.552285 549,445 C549,444.447715 549.447715,444 550,444 C550.552285,444 551,444.447715 551,445 C551,445.552285 550.552285,446 550,446 Z M541,421 C538.238576,421 536,423.238576 536,426 L536,460 C536,462.761424 538.238576,465 541,465 L561,465 C563.761424,465 566,462.761424 566,460 L566,426 C566,423.238576 563.761424,421 561,421 L541,421 Z M541,420 L561,420 C564.313708,420 567,422.686292 567,426 L567,460 C567,463.313708 564.313708,466 561,466 L541,466 C537.686292,466 535,463.313708 535,460 L535,426 C535,422.686292 537.686292,420 541,420 Z M551,462.5 C549.067003,462.5 547.5,460.932997 547.5,459 C547.5,457.067003 549.067003,455.5 551,455.5 C552.932997,455.5 554.5,457.067003 554.5,459 C554.5,460.932997 552.932997,462.5 551,462.5 Z M551,461.5 C552.380712,461.5 553.5,460.380712 553.5,459 C553.5,457.619288 552.380712,456.5 551,456.5 C549.619288,456.5 548.5,457.619288 548.5,459 C548.5,460.380712 549.619288,461.5 551,461.5 Z" id="store—pattern"></path>
        </g>
    </g>
</svg>
